<?xml version="1.0" encoding="UTF-8"?>
<svg id="_レイヤー_2" data-name="レイヤー 2" xmlns="http://www.w3.org/2000/svg" viewBox="0 0 126 102">
  <defs>
    <style>
      .cls-1 {
        fill: #fffaf0;
      }

      .cls-2 {
        fill: #3f2828;
      }

      .cls-3 {
        fill: #9b968e;
      }
    </style>
  </defs>
  <g>
    <polygon class="cls-1" points="77.37 86.94 77.37 84.24 48.62 84.24 48.62 100.21 77.37 100.21 77.37 86.94"/>
    <path class="cls-3" d="M124.24,72.89v9.2c0,1.18-.96,2.14-2.14,2.15H3.9c-1.18,0-2.14-.96-2.14-2.15v-9.2h122.48Z"/>
    <path class="cls-1" d="M124.24,3.92v68.97H1.75V3.92c0-1.19.96-2.15,2.14-2.15h118.21c1.18,0,2.14.96,2.14,2.15h0Z"/>
    <path class="cls-2" d="M39.67,101.47h40.89c1.89,0,3.8.08,5.69,0h.08c1.61,0,1.61-2.51,0-2.51h-40.89c-1.89,0-3.8-.08-5.69,0h-.08c-1.61,0-1.61,2.51,0,2.51h0Z"/>
    <path class="cls-2" d="M49.88,99.88v-15.62c0-1.62-2.5-1.62-2.5,0v15.62c0,1.62,2.5,1.62,2.5,0Z"/>
    <path class="cls-2" d="M76.12,84.27v15.62c0,1.62,2.5,1.62,2.5,0v-15.62c0-1.62-2.5-1.62-2.5,0Z"/>
    <path class="cls-2" d="M122.1.51H6.52c-.87,0-1.74-.03-2.61,0-1.92.04-3.44,1.62-3.4,3.55,0,0,0,0,0,0,0,.52,0,1.05,0,1.57v71.25c0,1.66,0,3.31,0,4.97-.08,1.93,1.42,3.56,3.34,3.64.02,0,.03,0,.05,0,.21,0,.42,0,.64,0h116.85c.24,0,.47,0,.71,0,1.92-.04,3.44-1.63,3.4-3.56,0,0,0-.01,0-.02.01-1.58,0-3.17,0-4.75V4.15c.08-1.93-1.42-3.56-3.35-3.64-.01,0-.03,0-.04,0-1.61-.06-1.61,2.45,0,2.51.85.03.89.75.89,1.39v73.24c0,1.44.02,2.89,0,4.33-.02,1.18-1.23.99-2.05.99H4.44c-.24.02-.49.01-.73-.02-.74-.16-.71-.84-.71-1.42V5.33c0-.89-.25-2.29,1.02-2.3,1.08-.01,2.17,0,3.25,0h114.82c1.61,0,1.61-2.52,0-2.52Z"/>
    <path class="cls-2" d="M1.75,74.15h122.49c1.61,0,1.61-2.51,0-2.51H1.75c-1.61,0-1.61,2.51,0,2.51Z"/>
  </g>
  <g>
    <path class="cls-2" d="M46.52,26.6l-11.72,11.38c-.65.67-.65,1.75,0,2.42l11.72,11.38c1.58,1.53,4-.89,2.41-2.42l-11.72-11.38v2.42l11.72-11.38c1.58-1.54-.83-3.96-2.41-2.42h0Z"/>
    <path class="cls-2" d="M77.07,29.02l11.72,11.38v-2.42l-11.72,11.38c-1.58,1.54.83,3.96,2.41,2.42l11.72-11.38c.65-.67.65-1.75,0-2.42l-11.72-11.38c-1.58-1.53-3.99.89-2.41,2.42Z"/>
    <path class="cls-3" d="M66.99,26.94l-10.93,22.76c-.45.82-.18,1.85.61,2.35.81.47,1.85.2,2.33-.61l10.93-22.76c.45-.82.18-1.85-.61-2.34-.81-.47-1.85-.2-2.33.61Z"/>
  </g>
</svg>