<?xml version="1.0" encoding="UTF-8"?>
<svg id="_レイヤー_2" data-name="レイヤー 2" xmlns="http://www.w3.org/2000/svg" viewBox="0 0 126 102">
  <defs>
    <style>
      .cls-1 {
        fill: #fffaf0;
      }

      .cls-2 {
        fill: #f2635f;
      }

      .cls-3 {
        fill: #ffda71;
      }

      .cls-4 {
        fill: #3f2828;
      }

      .cls-5 {
        fill: #3d8dcc;
      }

      .cls-6 {
        fill: #c1beb9;
      }

      .cls-7 {
        fill: #9b968e;
      }
    </style>
  </defs>
  <g>
    <polygon class="cls-1" points="77.37 86.94 77.37 84.24 48.62 84.24 48.62 100.21 77.37 100.21 77.37 86.94"/>
    <path class="cls-7" d="M124.24,72.89v9.2c0,1.18-.96,2.14-2.14,2.15H3.9c-1.18,0-2.14-.96-2.14-2.15v-9.2h122.48Z"/>
    <path class="cls-1" d="M124.24,3.92v68.97H1.75V3.92c0-1.19.96-2.15,2.14-2.15h118.21c1.18,0,2.14.96,2.14,2.15h0Z"/>
    <path class="cls-4" d="M39.67,101.47h40.89c1.89,0,3.8.08,5.69,0h.08c1.61,0,1.61-2.51,0-2.51h-40.89c-1.89,0-3.8-.08-5.69,0h-.08c-1.61,0-1.61,2.51,0,2.51h0Z"/>
    <path class="cls-4" d="M49.88,99.88v-15.62c0-1.62-2.5-1.62-2.5,0v15.62c0,1.62,2.5,1.62,2.5,0Z"/>
    <path class="cls-4" d="M76.12,84.27v15.62c0,1.62,2.5,1.62,2.5,0v-15.62c0-1.62-2.5-1.62-2.5,0Z"/>
    <path class="cls-4" d="M122.1.51H6.52c-.87,0-1.74-.03-2.61,0-1.92.04-3.44,1.62-3.4,3.55,0,0,0,0,0,0,0,.52,0,1.05,0,1.57v71.25c0,1.66,0,3.31,0,4.97-.08,1.93,1.42,3.56,3.34,3.64.02,0,.03,0,.05,0,.21,0,.42,0,.64,0h116.85c.24,0,.47,0,.71,0,1.92-.04,3.44-1.63,3.4-3.56,0,0,0-.01,0-.02.01-1.58,0-3.17,0-4.75V4.15c.08-1.93-1.42-3.56-3.35-3.64-.01,0-.03,0-.04,0-1.61-.06-1.61,2.45,0,2.51.85.03.89.75.89,1.39v73.24c0,1.44.02,2.89,0,4.33-.02,1.18-1.23.99-2.05.99H4.44c-.24.02-.49.01-.73-.02-.74-.16-.71-.84-.71-1.42V5.33c0-.89-.25-2.29,1.02-2.3,1.08-.01,2.17,0,3.25,0h114.82c1.61,0,1.61-2.52,0-2.52Z"/>
    <path class="cls-4" d="M1.75,74.15h122.49c1.61,0,1.61-2.51,0-2.51H1.75c-1.61,0-1.61,2.51,0,2.51Z"/>
  </g>
  <g>
    <path class="cls-1" d="M106.91,23.92c-1.65-.08-2.84.73-4.14,1.62-1.45,1-2.9,2-4.34,3.01-8.18,5.76-16.39,11.55-24.36,17.61l-.21.16c-.91.69-1.11,1.98-.45,2.92l3.07,4.41c.65.94,1.93,1.19,2.89.58,8.05-5.18,15.93-10.79,23.65-16.45,2.31-1.7,4.7-3.38,6.87-5.26,2.04-1.77,2.26-4.86.5-6.91-.88-1.02-2.14-1.63-3.49-1.69h0Z"/>
    <path class="cls-6" d="M71.53,61.66c2.35-1.65,5.28-4.54,3.91-7.64-.45-1.15-1.11-2.2-1.94-3.11-2.2-2.23-5.94-1.55-8.3.1-2.2,1.55-2.66,3.34-3.16,5.19-.61,2.27-1.38,2.99-3.04,4.78,1.96.93,4.58,2.29,6.8,2.33,2.04.05,4.04-.53,5.74-1.66Z"/>
    <path class="cls-1" d="M53.57,13.89c-9.64-4.6-22.43-3.37-29.23,6.38-5.14,7.36-5,17.1-1.75,24.04,3.51,7.49,14.48,14.98,22.64,10.29,1.81-1,2.92-2.91,2.92-4.98.06-1.39-.12-2.8.13-4.16.6-3.35,3.59-5.56,6.9-5.7,3.61-.15,6.65-.06,8.54-3.81.99-2.16,1.27-4.58.82-6.91-1.06-6.52-4.86-12.45-11-15.18"/>
    <path class="cls-5" d="M37.49,27.26c-.05.31-.13.61-.24.9-.11.25-.24.48-.4.7-.15.18-.32.35-.5.5-.21.15-.44.29-.68.39-.28.11-.57.18-.87.23-.37.04-.74.04-1.1,0-.29-.05-.58-.12-.86-.23-.25-.11-.48-.25-.7-.41-.19-.16-.37-.33-.52-.52-.16-.22-.3-.46-.41-.71-.11-.29-.19-.58-.23-.89-.04-.33-.04-.66,0-.99.05-.3.12-.59.23-.87.11-.25.25-.49.42-.72.33-.43.76-.76,1.26-.98.29-.11.59-.19.89-.24.31-.03.62-.03.94,0,.3.05.6.13.88.24.5.21.93.54,1.26.97.16.22.3.46.42.71.11.28.19.58.24.88.03.34.03.68,0,1.02Z"/>
    <path class="cls-3" d="M34.49,39.12c-.05.31-.13.61-.24.9-.11.25-.25.48-.4.7-.15.18-.32.35-.5.5-.21.15-.44.29-.68.39-.28.11-.57.19-.87.23-.37.04-.74.04-1.1,0-.29-.05-.58-.12-.86-.23-.25-.11-.48-.25-.7-.41-.19-.16-.37-.33-.52-.52-.16-.22-.3-.46-.41-.71-.11-.29-.19-.58-.23-.89-.04-.33-.04-.66,0-.99.05-.3.12-.59.23-.87.11-.25.25-.49.42-.72.33-.43.76-.77,1.26-.98.29-.11.59-.19.89-.24.31-.03.62-.03.93,0,.3.05.6.13.88.24.5.21.93.54,1.26.97.16.22.3.46.42.71.11.28.19.58.24.88.03.34.03.68,0,1.02Z"/>
    <path class="cls-2" d="M48.74,23.28c-.05.31-.13.61-.24.9-.11.25-.25.48-.4.7-.15.18-.32.35-.5.5-.21.15-.44.29-.68.39-.28.11-.57.19-.87.23-.37.04-.74.04-1.1,0-.29-.05-.58-.12-.86-.23-.25-.11-.48-.25-.7-.41-.19-.16-.37-.33-.52-.52-.16-.22-.3-.46-.41-.71-.11-.29-.19-.58-.23-.89-.04-.33-.04-.66,0-.99.05-.3.12-.59.23-.87.11-.25.25-.49.42-.72.17-.21.36-.4.57-.57.22-.16.45-.3.7-.41.29-.11.59-.19.89-.24.31-.03.62-.03.93,0,.3.05.6.13.88.24.25.11.48.25.7.41.2.17.39.36.56.56.16.22.3.46.42.71.11.28.19.58.24.88.03.34.03.68,0,1.02Z"/>
    <path class="cls-4" d="M106.91,22.67c-1.91-.04-3.45.89-4.98,1.93-1.66,1.14-3.32,2.29-4.97,3.46-3.4,2.39-6.8,4.8-10.18,7.21-3.31,2.37-6.61,4.78-9.88,7.2-.82.61-1.63,1.22-2.44,1.83-.74.56-1.64,1.08-2.15,1.89-.72,1.16-.69,2.64.08,3.76.94,1.39,1.91,2.76,2.88,4.13.63,1.05,1.75,1.7,2.97,1.74.88-.06,1.72-.38,2.41-.92.85-.55,1.69-1.1,2.53-1.66,6.89-4.55,13.61-9.35,20.27-14.24,1.82-1.33,3.65-2.65,5.42-4.04,1.56-1.22,3.07-2.38,3.68-4.35,1.21-3.89-1.7-7.69-5.64-7.95-.69,0-1.25.56-1.25,1.26s.56,1.26,1.25,1.26h0c2.02.14,3.54,1.9,3.39,3.93-.03.42-.13.83-.3,1.21-.6,1.36-2.11,2.27-3.23,3.14-1.44,1.11-2.91,2.16-4.38,3.24-5.98,4.39-12.01,8.72-18.17,12.85-1.54,1.03-3.08,2.05-4.64,3.06-.65.42-1.44,1.13-2.08.34-.97-1.2-1.79-2.57-2.67-3.83-.31-.44-.76-.93-.48-1.49.25-.48.92-.81,1.36-1.14.74-.56,1.49-1.12,2.24-1.68,2.99-2.23,6.01-4.44,9.05-6.61,3.38-2.43,6.77-4.84,10.18-7.23,1.72-1.21,3.44-2.42,5.18-3.62,1.37-.95,2.79-2.2,4.54-2.16,1.61.04,1.61-2.47,0-2.51Z"/>
    <path class="cls-4" d="M72.17,62.75c2.02-1.43,4.19-3.36,4.74-5.9.26-1.39.03-2.82-.65-4.05-.56-1.3-1.43-2.44-2.52-3.33-1.94-1.47-4.62-1.5-6.84-.7-2.47.82-4.46,2.68-5.44,5.1-.44,1.11-.59,2.35-1.12,3.42-.6,1.04-1.35,1.99-2.23,2.81-.51.55-.51,1.61.25,1.97,2.21,1.05,4.46,2.22,6.94,2.47,2.42.19,4.84-.44,6.86-1.8,1.33-.9.07-3.08-1.26-2.17-1.64,1.13-3.62,1.64-5.6,1.46-2-.23-3.88-1.28-5.67-2.13l.25,1.97c1.43-1.53,2.68-2.98,3.28-5.03.2-.87.48-1.73.82-2.56.45-.92,1.14-1.71,1.99-2.28,1.44-.97,3.37-1.57,5.09-1.1.86.25,1.61.81,2.11,1.56.67.84,1.13,1.82,1.35,2.87.26,2.2-2.04,4.11-3.63,5.24-.58.36-.78,1.12-.45,1.72.35.59,1.11.79,1.71.45Z"/>
    <path class="cls-4" d="M54.2,12.81c-8.21-3.89-18.6-3.89-26.05,1.74-8.42,6.36-11.07,18.08-7.67,27.88,1.62,4.53,4.62,8.43,8.58,11.15,3.85,2.74,8.79,4.48,13.52,3.4,2.31-.53,4.71-1.76,5.9-3.9.6-1.14.92-2.41.92-3.7.04-1.43-.16-2.9.25-4.3.66-1.99,2.32-3.47,4.36-3.9,1.08-.18,2.17-.26,3.27-.26,1.07-.04,2.13-.21,3.15-.51,2.43-.79,4.04-2.71,4.9-5.07.99-2.73.72-5.75.03-8.52-1.17-4.9-4.01-9.23-8.03-12.23-.99-.71-2.04-1.32-3.15-1.82-.6-.33-1.35-.13-1.71.45-.34.6-.14,1.37.45,1.72,4.09,1.89,7.32,5.26,9.02,9.45.96,2.19,1.49,4.54,1.55,6.93,0,2.16-.64,4.8-2.51,6.08-1.5,1.03-3.44,1.01-5.25,1.08-2.28,0-4.49.82-6.22,2.31-1.9,1.72-2.62,4.11-2.61,6.61,0,1.23.13,2.48-.25,3.67-.29.89-.87,1.66-1.64,2.19-3.54,2.38-8.17,1.69-11.78-.12-3.87-1.91-7.07-4.96-9.17-8.74-4.3-8.07-3.1-19.17,3.27-25.79,5.88-6.11,15.05-7.34,22.87-4.74.94.31,1.86.68,2.76,1.1.6.33,1.35.13,1.71-.45.34-.6.14-1.37-.45-1.72h0Z"/>
    <path class="cls-4" d="M36.28,26.93c-.03.15-.06.31-.1.46-.01.06-.03.11-.05.17,0,.03-.09.26-.04.12.05-.12-.03.05-.03.06-.04.07-.07.14-.11.2s-.08.13-.12.19c.1-.14-.01,0-.07.06-.05.05-.32.28-.14.15-.12.08-.25.16-.38.23-.01,0-.18.08-.05.03.14-.06-.08.02-.11.03-.14.04-.29.07-.44.11-.18.05.18,0-.02,0-.08,0-.16.01-.25.01-.14,0-.29,0-.43,0-.05,0-.24-.04-.02,0-.05-.01-.11-.02-.16-.03-.16-.04-.32-.08-.48-.14.22.08-.1-.06-.17-.1s-.13-.09-.2-.12c-.12-.06,0,0,.03.03-.1-.09-.2-.2-.3-.29-.04-.04-.12-.18,0,0-.04-.07-.09-.13-.13-.2s-.07-.14-.11-.21c-.03-.04-.08-.22-.02-.02-.04-.13-.08-.25-.11-.38-.02-.07-.03-.15-.05-.22-.04-.14,0,.01,0,.04-.02-.18-.02-.37-.02-.56,0-.03.02-.29,0-.14-.02.14.01-.05.01-.06.03-.15.07-.29.12-.44,0-.01.07-.19.02-.06-.06.14.05-.09.06-.11.03-.05.06-.1.09-.16.01-.02.23-.31.07-.13.09-.1.18-.2.28-.29.04-.04.08-.08.13-.12-.16.14-.02.01.02,0,.13-.08.26-.16.4-.23-.03.01-.17.05-.03.02.09-.02.18-.06.28-.09.07-.02.15-.04.22-.05.02,0,.2-.03.06-.01-.16.02.09,0,.12,0,.08,0,.16,0,.23,0s.43.04.19,0c.15.03.3.06.45.1.07.02.15.05.22.07-.21-.07.03.02.07.04.07.04.14.08.2.12.04.03.24.18.07.04.11.1.22.21.32.31.16.16.05.06.02.01.06.08.11.16.16.25.03.05.06.1.09.16.16.29,0-.1.04.07s.09.33.14.5c.01.05.02.22,0,.02,0,.08,0,.17.01.25,0,.21,0,.42-.03.63,0,.69.56,1.25,1.25,1.26.68-.02,1.23-.57,1.25-1.26.23-1.89-.73-3.74-2.42-4.62-2.24-1.16-5-.28-6.16,1.96-.62,1.2-.68,2.6-.17,3.85.7,1.76,2.42,2.89,4.31,2.82,1.06,0,2.09-.36,2.92-1.02.79-.68,1.31-1.63,1.47-2.66.17-.67-.22-1.35-.87-1.55-.67-.18-1.35.21-1.54.88Z"/>
    <path class="cls-4" d="M33.28,38.79c-.03.15-.06.31-.09.46-.01.06-.03.11-.05.17,0,.03-.09.26-.04.12.05-.12-.03.05-.03.06-.04.07-.07.14-.11.2s-.08.13-.12.2c.1-.14-.01,0-.07.06-.05.05-.32.28-.14.15-.12.08-.25.16-.38.23-.01,0-.18.08-.05.03.14-.06-.08.02-.11.03-.14.04-.29.07-.44.11-.18.05.18,0-.02,0-.08,0-.16.01-.25.01-.14,0-.29,0-.43,0-.05,0-.24-.04-.02,0-.05-.01-.11-.02-.16-.03-.16-.04-.32-.08-.48-.14.22.08-.1-.06-.17-.1s-.13-.09-.2-.12c-.12-.06,0,0,.03.03-.1-.09-.2-.2-.3-.29-.04-.04-.12-.18,0,0-.04-.07-.09-.13-.13-.2s-.07-.14-.11-.21c-.03-.04-.08-.22-.02-.02-.04-.13-.08-.25-.11-.38-.02-.07-.03-.15-.05-.22-.04-.14,0,.01,0,.04-.02-.18-.02-.37-.02-.56,0-.03.02-.29,0-.14-.02.14.01-.05.01-.06.03-.15.07-.29.12-.44,0-.01.07-.19.02-.06-.06.14.05-.09.06-.12.03-.05.06-.1.09-.15.01-.02.23-.31.07-.13.09-.1.18-.2.28-.29.04-.04.08-.08.13-.12-.15.14-.02.01.02,0,.13-.08.26-.16.4-.23-.03.01-.17.05-.03.02.09-.02.18-.06.28-.09.07-.02.15-.04.22-.05.02,0,.2-.03.06-.01-.16.02.09,0,.12,0,.08,0,.16,0,.23,0s.43.04.19,0c.15.03.3.06.45.1.07.02.15.05.22.07-.21-.08.03.02.07.04.07.04.14.08.2.12.04.03.24.18.08.04.11.1.22.21.32.31.16.16.05.06.02.01.06.08.11.16.16.25.03.05.06.1.09.16.16.29,0-.1.04.07s.09.33.14.5c.01.05.02.22,0,.02,0,.08,0,.17.01.25,0,.21,0,.42-.03.63,0,.69.56,1.25,1.25,1.26.68-.02,1.23-.57,1.25-1.26.23-1.9-.73-3.74-2.42-4.62-2.24-1.16-5-.28-6.16,1.96-.62,1.2-.68,2.6-.17,3.85.7,1.76,2.42,2.89,4.31,2.82,1.06,0,2.09-.36,2.92-1.02.79-.68,1.31-1.63,1.47-2.66.17-.67-.22-1.35-.87-1.55-.66-.17-1.34.21-1.53.87Z"/>
    <path class="cls-4" d="M47.53,22.95c-.03.15-.06.31-.09.46-.02.06-.03.11-.05.17,0,.03-.09.26-.04.12.05-.12-.03.05-.03.06-.04.07-.07.14-.11.2s-.08.13-.12.2c.1-.14-.01,0-.07.06-.05.05-.32.28-.14.15-.12.08-.25.16-.38.23-.01,0-.18.08-.05.03.14-.06-.08.02-.11.03-.14.04-.29.07-.44.11-.18.05.18,0-.02,0-.08,0-.16.01-.25.01-.14,0-.29,0-.43,0-.05,0-.24-.04-.02,0-.05-.01-.11-.02-.16-.03-.16-.04-.32-.08-.48-.14.22.08-.1-.06-.17-.1s-.13-.09-.2-.12c-.12-.06,0,0,.03.03-.1-.09-.2-.2-.3-.29-.04-.04-.12-.18,0,0-.04-.07-.09-.13-.13-.2s-.07-.14-.11-.2c-.03-.04-.08-.22-.02-.02-.04-.13-.08-.25-.11-.38-.02-.07-.03-.15-.05-.22-.04-.13,0,.01,0,.04-.02-.18-.02-.37-.02-.56,0-.03.02-.29,0-.14-.02.14.01-.05.01-.06.03-.15.07-.29.12-.44,0-.01.07-.19.02-.06-.06.14.05-.09.06-.12.03-.05.06-.1.09-.15.01-.02.23-.31.07-.13.09-.1.18-.2.28-.29.04-.04.08-.08.13-.12-.16.14-.02.01.02,0,.13-.08.26-.16.4-.23-.03.01-.16.05-.03.02.09-.02.18-.06.28-.08.07-.02.15-.04.22-.05.02,0,.2-.03.06-.01-.16.02.09,0,.12,0,.08,0,.16,0,.23,0s.43.04.19,0c.15.03.3.06.44.1.07.02.15.05.22.07-.21-.08.03.02.07.04.07.04.14.08.2.12.04.03.24.18.08.04.11.1.22.21.32.31.16.16.05.06.02.01.06.08.11.16.16.25.03.05.06.1.09.15.16.29,0-.1.04.07s.09.33.14.49c.01.05.02.22,0,.02,0,.08,0,.17.01.25,0,.21,0,.42-.03.63,0,.69.56,1.25,1.25,1.26.68-.02,1.23-.57,1.25-1.26.23-1.89-.73-3.74-2.41-4.62-1.72-.84-3.77-.56-5.2.71-1.36,1.32-1.81,3.33-1.12,5.1.7,1.76,2.42,2.89,4.31,2.82,1.06,0,2.09-.36,2.92-1.02.79-.68,1.31-1.63,1.47-2.66.17-.67-.22-1.35-.87-1.55-.67-.17-1.35.21-1.54.88Z"/>
  </g>
</svg>