<?xml version="1.0" encoding="UTF-8"?>
<svg id="_レイヤー_2" data-name="レイヤー 2" xmlns="http://www.w3.org/2000/svg" viewBox="0 0 1367 193">
  <defs>
    <style>
      .cls-1 {
        fill: #c00;
      }

      .cls-2 {
        opacity: .1;
      }

      .cls-3 {
        fill: none;
        stroke: #c00;
        stroke-miterlimit: 10;
        stroke-width: 4px;
      }
    </style>
  </defs>
  <g class="cls-2">
    <g>
      <path class="cls-1" d="M645.65,123.15c-12.57-1.85-23.67-7.28-31.25-15.28-3.28-3.46-7.35-9.01-8.18-15.81-.68-5.65.56-11.64,3.6-17.3,2.95-5.5,7.42-10.31,13.27-14.28l3.42,5.02c-5.03,3.41-8.85,7.49-11.33,12.12-2.41,4.49-3.45,9.36-2.92,13.71.62,5.16,3.91,9.57,6.56,12.37,6.55,6.92,16.66,11.82,27.72,13.45l-.89,6.01Z"/>
      <path class="cls-1" d="M645.17,135.35c-9.8-1.26-19.28-4.52-27.41-9.43-7.57-4.57-13.58-10.28-17.87-16.97-4.93-7.68-6.88-16.43-5.64-25.29,2.26-16.19,14.12-30.76,30.96-38.03l2.42,5.57c-14.91,6.44-25.39,19.2-27.35,33.3-1.03,7.41.61,14.73,4.74,21.18,3.79,5.91,9.13,10.97,15.9,15.05,7.41,4.47,16.07,7.44,25.04,8.6l-.78,6.02Z"/>
      <path class="cls-1" d="M647.5,147.79c-13.8-1.06-27.08-5.55-38.41-12.99-10.41-6.83-18.43-15.85-23.18-26.08-4.23-9.1-5.3-19.97-3.02-30.59,2.37-11.05,8.14-21.33,16.68-29.72,8.15-8.01,18.43-13.87,30.55-17.43l1.71,5.83c-11.15,3.27-20.57,8.63-28,15.93-7.58,7.45-12.91,16.92-15,26.67-2,9.35-1.08,18.85,2.59,26.77,4.27,9.2,11.54,17.35,21,23.56,10.48,6.87,22.77,11.02,35.54,12.01l-.47,6.05Z"/>
    </g>
    <g>
      <path class="cls-1" d="M622.49,82.77l-.03-.49c-.34-4.74-.7-9.65-.74-14.55-.02-3.54.17-6.95.46-10.97.99-13.69,5.65-26.35,13.11-35.67,8.57-10.7,22-17.78,37.81-19.94,13.33-1.82,26.26.26,37.39,6.01,12.34,6.37,23.17,16.5,33.12,30.97l-5.02,3.44c-9.36-13.62-19.47-23.11-30.9-29.01-10.02-5.18-21.7-7.04-33.77-5.39-14.26,1.95-26.3,8.24-33.89,17.72-6.7,8.37-10.89,19.85-11.79,32.32-.28,3.88-.46,7.15-.44,10.49.03,4.71.37,9.3.72,14.16l.04.49-6.07.44Z"/>
      <path class="cls-1" d="M634.07,74.92c-1.39-24.07,3.64-40.8,15.39-51.15,6.1-5.37,14.27-8.89,24.3-10.46,10.09-1.58,19.74-.42,28.7,3.46,8.14,3.52,15.98,9.6,23.32,18.05l-4.6,3.98c-6.74-7.76-13.85-13.3-21.14-16.46-7.88-3.41-16.4-4.43-25.33-3.03-8.86,1.39-16,4.42-21.22,9.02-10.25,9.03-14.62,24.16-13.34,46.24l-6.07.35Z"/>
      <path class="cls-1" d="M646.01,67.79c0-8.82.94-15.68,2.95-21.59,2.12-6.23,5.67-11.31,10.26-14.69,4.47-3.29,10.29-5.38,17.82-6.39,5.56-.74,10.69-.42,15.66.98,5.76,1.62,11.48,4.9,17.03,9.77l-4.02,4.56c-4.85-4.26-9.78-7.12-14.65-8.49-4.17-1.17-8.49-1.43-13.21-.8-6.48.86-11.39,2.58-15.01,5.25-4.53,3.34-6.91,8.24-8.11,11.76-1.79,5.26-2.63,11.5-2.63,19.63h-6.08Z"/>
    </g>
    <g>
      <path class="cls-1" d="M761.15,136.34l-4.2-4.39c8.97-8.54,15.08-19.78,17.23-31.64,1.04-5.77,1.12-11.49.22-17-.79-4.88-2.63-9.97-5.45-15.12-4.88-8.9-12.05-16.24-20.76-21.25-8.69-4.99-18.68-7.44-28.88-7.07-12.15.44-23.96,3.6-33.26,8.9l-3.02-5.27c10.14-5.78,22.94-9.22,36.05-9.69,11.35-.41,22.45,2.32,32.13,7.88,9.68,5.56,17.65,13.72,23.06,23.59,3.16,5.76,5.22,11.5,6.12,17.06,1.01,6.19.93,12.6-.24,19.05-2.37,13.12-9.12,25.53-19.01,34.95Z"/>
      <path class="cls-1" d="M758.13,121.58l-4.78-3.75c5.72-7.26,9.08-16.18,9.48-25.11.64-14.4-8.37-28.95-22.43-36.19-6.51-3.36-13.86-4.9-21.28-4.5-9.09.51-17.54,2.55-24.44,5.91l-2.67-5.46c7.62-3.71,16.88-5.97,26.77-6.52,8.49-.47,16.94,1.31,24.41,5.17,16.12,8.31,26.46,25.13,25.71,41.86-.45,10.19-4.28,20.34-10.78,28.59Z"/>
      <path class="cls-1" d="M751.93,109l-5.24-3.09c3.1-5.24,4.57-12.02,3.83-17.71-1.13-8.74-7.94-17.37-16.94-21.48-3.93-1.79-8.29-2.67-12.93-2.6-5.43.08-11.4,1.2-16.81,3.16l-2.07-5.71c6.03-2.18,12.7-3.43,18.79-3.52,5.51-.08,10.79.98,15.55,3.16,10.84,4.95,19.05,15.49,20.44,26.23.92,7.06-.81,15.13-4.63,21.57Z"/>
    </g>
    <g>
      <path class="cls-1" d="M614.72,101.79l-4.95-3.52c4.97-6.97,10.65-13.37,16.87-19,6.24-5.65,13.33-10.43,21.07-14.22,4.56-2.23,9.1-4.24,13.51-5.96l2.22,5.65c-4.25,1.66-8.64,3.6-13.05,5.76-7.23,3.54-13.85,8-19.66,13.27-5.9,5.34-11.28,11.4-16,18.02Z"/>
      <path class="cls-1" d="M623.07,111.1l-5.02-3.43c5.16-7.52,10.85-14.09,16.89-19.51,3.63-3.26,7.03-5.87,10.41-7.98,4.25-2.66,8.79-4.79,12.26-6.34,4.69-2.09,9.6-4.11,15.01-6.17l2.16,5.68c-5.3,2.01-10.11,3.99-14.69,6.03-3.5,1.56-7.61,3.49-11.51,5.94-3.07,1.93-6.21,4.33-9.57,7.36-5.69,5.11-11.05,11.31-15.94,18.43Z"/>
      <path class="cls-1" d="M633.45,117.43l-5.02-3.42c4.83-7.06,10.37-13.26,16.47-18.43,7.25-6.14,15.88-10,23.4-13.13,4.58-1.91,9.5-3.91,14.49-5.63l1.99,5.74c-4.83,1.67-9.65,3.63-14.13,5.5-7.42,3.09-15.22,6.58-21.81,12.16-5.69,4.82-10.86,10.61-15.39,17.22Z"/>
    </g>
    <g>
      <path class="cls-1" d="M711.81,79.13l-6.19-6.97c-3.99-4.5-7.76-8.75-12.05-12.66-8.54-7.8-18.61-15.2-32.64-24.01l3.24-5.14c14.35,9.01,24.68,16.62,33.5,24.67,4.52,4.13,8.58,8.7,12.5,13.12l6.18,6.97-4.55,4.03Z"/>
      <path class="cls-1" d="M704.67,89.41c-2.09-2.28-4.15-4.64-6.14-6.92-1.29-1.47-2.57-2.94-3.87-4.4-2.4-2.7-5.61-6.21-9.07-9.45-3.04-2.84-6.29-5.44-10.25-8.48-6.82-5.23-14.37-10.39-23.08-15.76l3.2-5.17c8.89,5.48,16.61,10.75,23.59,16.11,4.1,3.15,7.49,5.86,10.7,8.86,3.65,3.41,6.97,7.05,9.46,9.85,1.31,1.47,2.61,2.96,3.91,4.45,1.97,2.25,4,4.58,6.04,6.81l-4.49,4.09Z"/>
      <path class="cls-1" d="M695.52,97.43l-10.63-12c-4.94-5.57-10.62-10.79-17.36-15.94-5.67-4.34-11.87-8.61-18.95-13.06l3.24-5.14c7.24,4.55,13.59,8.93,19.41,13.38,7.06,5.4,13.01,10.87,18.21,16.74l10.63,12-4.56,4.02Z"/>
    </g>
    <g>
      <path class="cls-1" d="M683.1,113.09l-3.74-4.79c3.55-2.76,7.21-5.83,10.86-9.1,7.15-6.42,12.61-12.11,17.17-17.92,2.73-3.48,4.83-6.66,6.4-9.71.99-1.92,2.82-5.49,2.31-8.05l5.97-1.18c.81,4.08-.9,8.18-2.87,12.01-1.75,3.4-4.05,6.89-7.02,10.68-4.79,6.09-10.47,12.03-17.89,18.69-3.76,3.37-7.52,6.53-11.19,9.38Z"/>
      <path class="cls-1" d="M692.39,121.19l-3.78-4.76c4.16-3.3,8.14-6.7,11.84-10.11,7.61-7.03,13.61-13.56,18.35-19.98,4.39-5.94,10.16-14.85,9.47-23.53l6.06-.48c.85,10.7-5.66,20.88-10.63,27.61-4.97,6.73-11.23,13.54-19.12,20.83-3.81,3.52-7.91,7.02-12.19,10.41Z"/>
      <path class="cls-1" d="M703.07,127.28v-6.07c-.81,0-1.3.35-1.31.35.2-.14.68-.64.91-.88.28-.29.52-.52.66-.65.9-.78,1.8-1.57,2.69-2.37,1.84-1.64,3.51-3.19,5.12-4.72,3.42-3.25,6.67-6.58,9.66-9.9,6.75-7.48,11.67-14.42,15.03-21.2,2.25-4.53,3.65-8.76,4.29-12.92l6.01.92c-.74,4.79-2.33,9.59-4.85,14.69-3.61,7.29-8.83,14.67-15.96,22.57-3.1,3.43-6.46,6.88-9.98,10.23-1.66,1.58-3.38,3.16-5.26,4.85-.91.82-1.83,1.63-2.76,2.43-.05.05-.16.17-.29.3-1.13,1.16-2.3,2.36-3.96,2.36Z"/>
    </g>
    <g>
      <path class="cls-1" d="M680.3,159.09c-4.72-5.09-8.3-10.47-10.64-15.98-8.93-21.05,4.59-43.47,18.87-56.27l4.06,4.52c-12.8,11.47-25.02,31.28-17.34,49.39,2.06,4.86,5.26,9.65,9.5,14.23l-4.46,4.13Z"/>
      <path class="cls-1" d="M669.65,165.4c-9.62-11.07-14.83-23.4-15.08-35.65-.24-11.97,4.02-24.61,12.32-36.57,4.06-5.86,8.72-11.13,13.85-15.68l4.04,4.54c-4.76,4.23-9.1,9.14-12.89,14.6-7.56,10.9-11.45,22.3-11.23,32.99.27,13.67,7.54,24.83,13.59,31.79l-4.59,3.98Z"/>
      <path class="cls-1" d="M655.25,166.75c-3.58-5.01-6.48-10.29-8.64-15.69-7.72-19.39-4.56-42.59,8.46-62.09l5.06,3.37c-11.91,17.83-14.85,38.94-7.87,56.47,1.97,4.95,4.64,9.79,7.93,14.41l-4.95,3.53Z"/>
    </g>
    <g>
      <path class="cls-1" d="M720.06,129.4c-6.29,0-12.24-.75-17.77-2.23-5.46-1.47-15.63-5.15-22.42-13.35l-1.05-1.26c-1.19-1.42-2.42-2.88-3.55-4.43l4.9-3.6c1.03,1.39,2.2,2.78,3.32,4.13l1.07,1.29c4.18,5.04,11.22,9.18,19.31,11.35,8.18,2.2,17.41,2.61,27.46,1.22l.84,6.02c-4.16.57-8.19.86-12.1.86Z"/>
      <path class="cls-1" d="M720.29,141.53c-15.99,0-30.32-4.17-41.34-12.2-4.51-3.29-8.17-6.96-10.88-10.9l5.02-3.43c2.31,3.37,5.49,6.55,9.45,9.43,13.13,9.57,31.65,13.08,52.14,9.89l.94,6c-5.24.81-10.36,1.22-15.33,1.22Z"/>
      <path class="cls-1" d="M720.19,153.68c-.76,0-1.52,0-2.28-.03-19.84-.44-37.49-6.59-49.7-17.31l4.02-4.56c11.13,9.78,27.4,15.39,45.81,15.8,4.63.1,9.41-.13,14.22-.69l.71,6.03c-4.3.5-8.59.75-12.78.75Z"/>
    </g>
    <g>
      <path class="cls-1" d="M706.45,191.84c-7.65,0-15.43-1.28-23.05-3.84l1.93-5.76c11.99,4.02,24.39,4.61,35.84,1.71,9.8-2.48,18.52-7.9,24.57-15.25,6.32-7.68,10.12-17.46,10.7-27.53.96-16.63-8.15-34.86-24.39-48.78l3.96-4.61c17.66,15.14,27.57,35.23,26.5,53.74-.66,11.34-4.95,22.36-12.07,31.03-6.87,8.35-16.73,14.49-27.78,17.28-5.27,1.33-10.71,2-16.22,2Z"/>
      <path class="cls-1" d="M706.22,179.67c-2.92,0-5.77-.22-8.45-.63l.91-6c13.07,1.97,30.34-.84,39.59-14.66,2.74-4.09,4.61-8.86,5.73-14.59,1.23-6.32-.15-14.24-3.81-21.75-3.65-7.5-9.13-14.5-15.83-20.23l3.96-4.61c7.33,6.27,13.32,13.94,17.34,22.19,2.48,5.09,6.34,15.19,4.31,25.57-1.28,6.53-3.45,12.03-6.65,16.8-8.89,13.27-23.8,17.91-37.11,17.91Z"/>
      <path class="cls-1" d="M708.5,167.51l-.27-6.07c5.1-.23,9.75-1.5,13.45-3.67,3.42-2.01,6.18-5.11,8.2-9.21,5.28-10.71-.28-21.53-4.07-27.03-2.97-4.31-6.02-7.76-9.08-10.25l3.85-4.7c3.5,2.86,6.95,6.73,10.24,11.51,7.84,11.38,9.44,23.15,4.52,33.15-2.56,5.19-6.12,9.15-10.58,11.76-4.56,2.67-10.18,4.23-16.27,4.5Z"/>
    </g>
    <g>
      <path class="cls-1" d="M660.48,168.18c-4.27,0-8.66-.64-13.05-1.95-5.42-1.61-9.56-4.16-12.66-7.79-3.54-4.14-5.89-9.66-6.98-16.41l6.01-.97c.91,5.63,2.79,10.15,5.6,13.43,2.35,2.75,5.45,4.63,9.77,5.92,10.7,3.19,21.4,1.84,29.37-3.71,2.2-1.53,4.1-3.31,5.64-5.3,1.57-2.02,2.52-4.31,3.46-7.11l5.77,1.92c-.98,2.94-2.2,6.05-4.42,8.91-1.92,2.47-4.26,4.68-6.97,6.56-6.17,4.29-13.64,6.49-21.54,6.49Z"/>
      <path class="cls-1" d="M660.74,180.36c-6,0-12.1-.96-18.01-2.86-8.05-2.58-14.78-7.45-19.46-14.07-6.1-8.62-7.69-18.85-8.4-26.8l6.06-.54c.95,10.68,3.21,18.03,7.31,23.83,3.97,5.61,9.48,9.58,16.35,11.79,7.56,2.43,15.81,3.16,23.23,2.05,7.29-1.09,14.5-4.32,20.3-9.1,5.5-4.53,9.3-10.39,11.32-17.42l5.85,1.67c-2.36,8.23-6.83,15.11-13.29,20.43-6.73,5.55-14.78,9.15-23.27,10.42-2.62.39-5.29.59-7.98.59Z"/>
      <path class="cls-1" d="M660.7,192.5c-8.73,0-17.56-1.64-25.48-4.8-10.55-4.2-19.37-12-24.84-21.96-5.36-9.76-7.92-21.63-8.05-37.35l6.08-.05c.12,14.68,2.44,25.63,7.3,34.48,4.79,8.73,12.52,15.56,21.76,19.24,9.24,3.68,19.86,5.1,29.9,4.01,21.19-2.32,39.23-17.07,43.86-35.88l5.91,1.45c-5.23,21.24-25.42,37.87-49.11,40.46-2.42.26-4.87.4-7.33.4Z"/>
    </g>
  </g>
  <g class="cls-2">
    <g>
      <g>
        <line class="cls-3" x1=".5" y1="104.66" x2="49.23" y2="104.66"/>
        <line class="cls-3" x1=".5" y1="96.5" x2="49.23" y2="96.5"/>
        <line class="cls-3" x1=".5" y1="88.34" x2="49.23" y2="88.34"/>
      </g>
      <g>
        <line class="cls-3" x1="49.23" y1="104.66" x2="97.96" y2="104.66"/>
        <line class="cls-3" x1="49.23" y1="96.5" x2="97.96" y2="96.5"/>
        <line class="cls-3" x1="49.23" y1="88.34" x2="97.96" y2="88.34"/>
      </g>
      <g>
        <line class="cls-3" x1="97.96" y1="104.66" x2="146.69" y2="104.66"/>
        <line class="cls-3" x1="97.96" y1="96.5" x2="146.69" y2="96.5"/>
        <line class="cls-3" x1="97.96" y1="88.34" x2="146.69" y2="88.34"/>
      </g>
      <g>
        <line class="cls-3" x1="146.69" y1="104.66" x2="195.42" y2="104.66"/>
        <line class="cls-3" x1="146.69" y1="96.5" x2="195.42" y2="96.5"/>
        <line class="cls-3" x1="146.69" y1="88.34" x2="195.42" y2="88.34"/>
      </g>
      <g>
        <line class="cls-3" x1="195.42" y1="104.66" x2="244.15" y2="104.66"/>
        <line class="cls-3" x1="195.42" y1="96.5" x2="244.15" y2="96.5"/>
        <line class="cls-3" x1="195.42" y1="88.34" x2="244.15" y2="88.34"/>
      </g>
      <g>
        <line class="cls-3" x1="244.15" y1="104.66" x2="292.88" y2="104.66"/>
        <line class="cls-3" x1="244.15" y1="96.5" x2="292.88" y2="96.5"/>
        <line class="cls-3" x1="244.15" y1="88.34" x2="292.88" y2="88.34"/>
      </g>
      <g>
        <line class="cls-3" x1="292.88" y1="104.66" x2="341.62" y2="104.66"/>
        <line class="cls-3" x1="292.88" y1="96.5" x2="341.62" y2="96.5"/>
        <line class="cls-3" x1="292.88" y1="88.34" x2="341.62" y2="88.34"/>
      </g>
      <g>
        <line class="cls-3" x1="341.62" y1="104.66" x2="390.35" y2="104.66"/>
        <line class="cls-3" x1="341.62" y1="96.5" x2="390.35" y2="96.5"/>
        <line class="cls-3" x1="341.62" y1="88.34" x2="390.35" y2="88.34"/>
      </g>
      <g>
        <line class="cls-3" x1="390.35" y1="104.66" x2="439.08" y2="104.66"/>
        <line class="cls-3" x1="390.35" y1="96.5" x2="439.08" y2="96.5"/>
        <line class="cls-3" x1="390.35" y1="88.34" x2="439.08" y2="88.34"/>
      </g>
      <g>
        <line class="cls-3" x1="439.08" y1="104.66" x2="487.81" y2="104.66"/>
        <line class="cls-3" x1="439.08" y1="96.5" x2="487.81" y2="96.5"/>
        <line class="cls-3" x1="439.08" y1="88.34" x2="487.81" y2="88.34"/>
      </g>
      <g>
        <line class="cls-3" x1="487.81" y1="104.66" x2="536.54" y2="104.66"/>
        <line class="cls-3" x1="487.81" y1="96.5" x2="536.54" y2="96.5"/>
        <line class="cls-3" x1="487.81" y1="88.34" x2="536.54" y2="88.34"/>
      </g>
      <g>
        <line class="cls-3" x1="536.54" y1="104.66" x2="585.27" y2="104.66"/>
        <line class="cls-3" x1="536.54" y1="96.5" x2="585.27" y2="96.5"/>
        <line class="cls-3" x1="536.54" y1="88.34" x2="585.27" y2="88.34"/>
      </g>
    </g>
  </g>
  <g class="cls-2">
    <g>
      <g>
        <line class="cls-3" x1="778.81" y1="104.66" x2="827.79" y2="104.66"/>
        <line class="cls-3" x1="778.81" y1="96.5" x2="827.79" y2="96.5"/>
        <line class="cls-3" x1="778.81" y1="88.34" x2="827.79" y2="88.34"/>
      </g>
      <g>
        <line class="cls-3" x1="827.79" y1="104.66" x2="876.76" y2="104.66"/>
        <line class="cls-3" x1="827.79" y1="96.5" x2="876.76" y2="96.5"/>
        <line class="cls-3" x1="827.79" y1="88.34" x2="876.76" y2="88.34"/>
      </g>
      <g>
        <line class="cls-3" x1="876.76" y1="104.66" x2="925.74" y2="104.66"/>
        <line class="cls-3" x1="876.76" y1="96.5" x2="925.74" y2="96.5"/>
        <line class="cls-3" x1="876.76" y1="88.34" x2="925.74" y2="88.34"/>
      </g>
      <g>
        <line class="cls-3" x1="925.74" y1="104.66" x2="974.71" y2="104.66"/>
        <line class="cls-3" x1="925.74" y1="96.5" x2="974.71" y2="96.5"/>
        <line class="cls-3" x1="925.74" y1="88.34" x2="974.71" y2="88.34"/>
      </g>
      <g>
        <line class="cls-3" x1="974.71" y1="104.66" x2="1023.68" y2="104.66"/>
        <line class="cls-3" x1="974.71" y1="96.5" x2="1023.68" y2="96.5"/>
        <line class="cls-3" x1="974.71" y1="88.34" x2="1023.68" y2="88.34"/>
      </g>
      <g>
        <line class="cls-3" x1="1023.68" y1="104.66" x2="1072.66" y2="104.66"/>
        <line class="cls-3" x1="1023.68" y1="96.5" x2="1072.66" y2="96.5"/>
        <line class="cls-3" x1="1023.68" y1="88.34" x2="1072.66" y2="88.34"/>
      </g>
      <g>
        <line class="cls-3" x1="1072.66" y1="104.66" x2="1121.63" y2="104.66"/>
        <line class="cls-3" x1="1072.66" y1="96.5" x2="1121.63" y2="96.5"/>
        <line class="cls-3" x1="1072.66" y1="88.34" x2="1121.63" y2="88.34"/>
      </g>
      <g>
        <line class="cls-3" x1="1121.63" y1="104.66" x2="1170.6" y2="104.66"/>
        <line class="cls-3" x1="1121.63" y1="96.5" x2="1170.6" y2="96.5"/>
        <line class="cls-3" x1="1121.63" y1="88.34" x2="1170.6" y2="88.34"/>
      </g>
      <g>
        <line class="cls-3" x1="1170.6" y1="104.66" x2="1219.58" y2="104.66"/>
        <line class="cls-3" x1="1170.6" y1="96.5" x2="1219.58" y2="96.5"/>
        <line class="cls-3" x1="1170.6" y1="88.34" x2="1219.58" y2="88.34"/>
      </g>
      <g>
        <line class="cls-3" x1="1219.58" y1="104.66" x2="1268.55" y2="104.66"/>
        <line class="cls-3" x1="1219.58" y1="96.5" x2="1268.55" y2="96.5"/>
        <line class="cls-3" x1="1219.58" y1="88.34" x2="1268.55" y2="88.34"/>
      </g>
      <g>
        <line class="cls-3" x1="1268.55" y1="104.66" x2="1317.53" y2="104.66"/>
        <line class="cls-3" x1="1268.55" y1="96.5" x2="1317.53" y2="96.5"/>
        <line class="cls-3" x1="1268.55" y1="88.34" x2="1317.53" y2="88.34"/>
      </g>
      <g>
        <line class="cls-3" x1="1317.53" y1="104.66" x2="1366.5" y2="104.66"/>
        <line class="cls-3" x1="1317.53" y1="96.5" x2="1366.5" y2="96.5"/>
        <line class="cls-3" x1="1317.53" y1="88.34" x2="1366.5" y2="88.34"/>
      </g>
    </g>
  </g>
</svg>