<?xml version="1.0" encoding="UTF-8"?>
<svg id="_レイヤー_2" data-name="レイヤー 2" xmlns="http://www.w3.org/2000/svg" viewBox="0 0 200 192.63">
  <defs>
    <style>
      .cls-1 {
        fill: #fffaf0;
      }

      .cls-2 {
        fill: #c00;
      }

      .cls-3 {
        fill: #fff;
      }
    </style>
  </defs>
  <path class="cls-1" d="M33.57,77.37c-2.42,4.51-3.46,9.39-2.93,13.75.12.97.33,1.91.61,2.81,3.16-4.05,6.55-7.87,10.16-11.44l-.5.04-.03-.49c-.31-4.26-.62-8.66-.7-13.06-2.75,2.54-4.97,5.34-6.6,8.39Z"/>
  <path class="cls-1" d="M134.88,64.12c-2.65.29-5.36.8-8,1.51.66.74,1.33,1.49,1.98,2.22l3.41,3.84c.07-.13.15-.27.21-.4.88-1.71,2.42-4.72,2.4-7.17Z"/>
  <path class="cls-1" d="M18.62,84.27c-1.04,7.43.61,14.78,4.75,21.24,3.8,5.92,9.16,11.01,15.95,15.1,6.46,3.9,13.88,6.66,21.63,8.08,0-2.04.11-4.09.3-6.14-11.42-2.22-21.44-7.42-28.46-14.83-3.29-3.47-7.38-9.04-8.2-15.86-.69-5.67.56-11.68,3.61-17.36,2.75-5.13,6.83-9.65,12.11-13.46.08-1.47.18-2.98.29-4.59.07-1,.17-1.99.28-2.98-12.17,6.96-20.52,18.36-22.25,30.81Z"/>
  <path class="cls-1" d="M102.78,151.4c.95-1.22,1.66-2.53,2.29-3.99-3.79-1.55-7.36-3.36-10.66-5.44,1.73,3.71,4.11,7.37,7.12,10.92.44-.48.86-.97,1.25-1.48Z"/>
  <path class="cls-1" d="M108.07,81.17l8.93,10.08c1.48-1.5,2.87-2.98,4.19-4.44-1.36-1.52-2.7-3.05-4.01-4.55-1.29-1.48-2.58-2.95-3.88-4.42-2.41-2.71-5.62-6.23-9.1-9.48-3.04-2.85-6.31-5.46-10.28-8.51-6-4.61-12.57-9.16-20-13.84-.26.62-.49,1.23-.68,1.79-.46,1.34-.85,2.75-1.19,4.24,6.55,4.18,12.38,8.23,17.75,12.33,7.08,5.41,13.05,10.91,18.27,16.79Z"/>
  <path class="cls-1" d="M36.16,125.83c-7.59-4.58-13.62-10.31-17.93-17.03-4.94-7.71-6.9-16.48-5.66-25.37,2.2-15.74,13.46-29.94,29.53-37.44.56-2.56,1.25-5.05,2.07-7.47-8.55,3.3-15.94,7.94-21.99,13.89-7.6,7.47-12.95,16.98-15.04,26.75-2.01,9.38-1.08,18.91,2.6,26.85,4.29,9.23,11.57,17.4,21.07,23.63,9.34,6.12,20.11,10.09,31.38,11.59-.43-2.09-.74-4.2-.95-6.33-8.97-1.46-17.59-4.57-25.07-9.08Z"/>
  <path class="cls-1" d="M71.01,58.63c-.13,1.28-.22,2.61-.29,4,1.27-.58,2.54-1.14,3.8-1.69-1.14-.77-2.32-1.54-3.51-2.32Z"/>
  <path class="cls-1" d="M157.05,158.4c2.75-4.1,4.63-8.89,5.75-14.63,1.24-6.34-.15-14.29-3.82-21.82-3.08-6.32-7.46-12.28-12.76-17.43-.7.81-1.41,1.63-2.15,2.45-.62.69-1.26,1.37-1.9,2.06,2.53,2.48,5.01,5.48,7.41,8.97,7.86,11.42,9.47,23.23,4.53,33.26-2.56,5.2-6.13,9.18-10.61,11.8-4.19,2.46-9.28,3.96-14.8,4.41-1.48,2.17-3.14,4.25-4.94,6.2,11.91.27,25.46-3.56,33.29-15.26Z"/>
  <path class="cls-1" d="M145.45,153.48c-2.2.13-4.38.2-6.54.2-.76,0-1.53,0-2.29-.03-.44,0-.87-.04-1.3-.05-.72,2.46-1.65,4.85-2.75,7.16,2.9-.62,5.55-1.62,7.84-2.96,1.89-1.11,3.57-2.56,5.04-4.32Z"/>
  <path class="cls-1" d="M63.08,171.78c7.59,2.44,15.86,3.17,23.3,2.06,7.31-1.09,14.55-4.34,20.36-9.13,4.46-3.68,7.79-8.24,9.98-13.58-2.01-.48-3.98-1.03-5.9-1.64-.8,1.91-1.8,3.83-3.22,5.65-1.92,2.48-4.28,4.69-6.99,6.58-6.18,4.3-13.68,6.52-21.61,6.52-4.28,0-8.69-.65-13.09-1.96-5.43-1.62-9.59-4.18-12.7-7.82-3.21-3.76-5.43-8.65-6.63-14.54-2.24-.73-4.45-1.56-6.61-2.48,1.18,7.89,3.31,13.74,6.69,18.53,3.99,5.63,9.51,9.61,16.4,11.83Z"/>
  <path class="cls-3" d="M67.67,160.44c.79.24,1.58.44,2.37.62-1.93-3.26-3.58-6.61-4.93-10-.46-1.15-.87-2.31-1.25-3.48-3.55-.37-7.06-.95-10.5-1.76,1.04,3.47,2.55,6.38,4.51,8.69,2.36,2.76,5.47,4.64,9.8,5.94Z"/>
  <path class="cls-1" d="M110.62,169.41c-6.75,5.57-14.83,9.18-23.34,10.46-2.63.39-5.31.59-8.01.59-6.01,0-12.14-.97-18.07-2.87-8.07-2.59-14.82-7.47-19.52-14.11-5.69-8.04-7.47-17.48-8.26-25.18-2.04-1.1-4.03-2.27-5.97-3.54-.16-.11-.32-.22-.48-.32.66,11.7,2.95,20.85,7.12,28.44,4.8,8.75,12.56,15.61,21.83,19.3,9.27,3.69,19.93,5.12,29.99,4.02,20.11-2.2,37.38-15.57,43.12-32.98-2.12-.21-4.2-.49-6.25-.83-2.54,6.74-6.62,12.46-12.17,17.04Z"/>
  <path class="cls-1" d="M108.37,63.92c3.66,3.42,6.99,7.08,9.49,9.88,1.32,1.48,2.62,2.97,3.92,4.46,1.12,1.28,2.26,2.58,3.4,3.87.3-.37.6-.73.89-1.1,1.05-1.34,2.01-2.63,2.88-3.89l-4.65-5.25c-4-4.52-7.78-8.78-12.08-12.71-8.22-7.5-17.85-14.64-31.03-23.01-1.75,1.33-3.16,2.88-4.32,4.49,7.71,4.86,14.54,9.57,20.78,14.36,4.11,3.16,7.51,5.88,10.73,8.89Z"/>
  <path class="cls-1" d="M85.44,92.98c1.24-1.79,2.54-3.51,3.89-5.19-.04.02-.08.03-.11.05-3.65,1.52-7.38,3.14-11.02,5.05-11.54,17.73-14.32,38.57-7.41,55.92,1.81,4.56,4.23,9.03,7.17,13.31,2.44.07,4.84-.1,7.15-.51-7.66-10.08-11.8-21.04-12.01-31.93-.24-12.01,4.03-24.69,12.35-36.69Z"/>
  <path class="cls-1" d="M63.39,95.39c7.28-6.16,15.93-10.03,23.47-13.17,3.16-1.32,6.49-2.67,9.89-3.96-1.61-1.53-3.3-3.04-5.07-4.53-4.65,1.8-8.95,3.57-13.05,5.4-3.51,1.57-7.63,3.5-11.55,5.96-3.08,1.93-6.23,4.35-9.6,7.38-5.07,4.55-9.88,9.97-14.32,16.13,1.64,1.14,3.38,2.19,5.22,3.14,4.48-6.2,9.52-11.69,15.01-16.34Z"/>
  <path class="cls-1" d="M54.1,114.25c2.57.94,5.25,1.71,8.01,2.26,1.05-5.56,2.79-11.09,5.21-16.47-4.8,4.07-9.23,8.84-13.22,14.2Z"/>
  <path class="cls-1" d="M99.3,105.08c.32.41.63.83.96,1.24,2.83-2.27,5.7-4.72,8.58-7.3,1.33-1.19,2.58-2.35,3.79-3.49l-2.77-3.12c-3.81,3.6-7.5,7.92-10.57,12.68Z"/>
  <path class="cls-1" d="M164.46,119.28c2.49,5.11,6.35,15.24,4.32,25.65-1.28,6.56-3.46,12.07-6.67,16.85-8.92,13.31-23.87,17.97-37.22,17.97-2.46,0-4.87-.17-7.17-.46-2.23,1.8-4.6,3.45-7.1,4.92,9.9,2.25,19.9,2.21,29.27-.16,9.83-2.49,18.58-7.92,24.64-15.3,6.34-7.71,10.15-17.52,10.74-27.62.91-15.64-7.08-32.7-21.5-46.28-1.13,1.62-2.36,3.26-3.65,4.92,5.97,5.73,10.9,12.4,14.36,19.5Z"/>
  <path class="cls-1" d="M123.24,110.65c-2.77,2.56-5.69,5.1-8.72,7.6,2.07.99,4.28,1.85,6.59,2.55.08-.08.16-.16.22-.22.28-.29.52-.52.66-.65.91-.79,1.8-1.58,2.7-2.38,1.84-1.65,3.52-3.2,5.14-4.74,3.43-3.26,6.69-6.6,9.69-9.93,6.77-7.51,11.7-14.46,15.08-21.27,1.96-3.95,3.28-7.67,4.01-11.31-1.73-1.37-3.62-2.56-5.62-3.53-.97,8.96-6.32,17.23-10.57,22.98-4.99,6.75-11.26,13.59-19.18,20.9Z"/>
  <path class="cls-1" d="M137.91,74.08c-1.76,3.41-4.06,6.91-7.04,10.71-4.8,6.11-10.5,12.07-17.95,18.75-2.92,2.62-5.84,5.11-8.72,7.43,1.35,1.43,2.92,2.77,4.68,4.01,3.57-2.89,7.01-5.84,10.22-8.81,7.63-7.05,13.65-13.6,18.41-20.04,4.05-5.48,9.24-13.47,9.53-21.48-1.95-.46-3.97-.73-6.05-.8.1,3.49-1.39,6.96-3.08,10.23Z"/>
  <path class="cls-1" d="M145.53,122.93c-.33-.53-.66-1.03-.98-1.49-2.17-3.15-4.38-5.83-6.61-8.03-1.27,1.28-2.56,2.56-3.89,3.82-1.66,1.58-3.39,3.17-5.28,4.86-.13.12-.26.23-.39.35,5.35.85,11.09,1.01,17.15.49Z"/>
  <path class="cls-1" d="M97.54,129.25c-2.13-1.55-4.05-3.19-5.79-4.89-.35,2.67-.41,5.37-.09,8.06,11.14,9.37,27.09,14.74,45.1,15.14,4.09.09,8.3-.09,12.55-.52.85-2.11,1.3-4.21,1.45-6.27-3.99.48-7.91.72-11.74.72-16.04,0-30.41-4.19-41.47-12.24Z"/>
  <path class="cls-1" d="M120.95,127.09c-5.48-1.47-15.68-5.17-22.49-13.39l-1.06-1.27c-.45-.54-.9-1.09-1.36-1.64-1.03,2.08-1.92,4.21-2.63,6.39,2.09,2.53,4.67,4.93,7.73,7.15,12.51,9.12,29.9,12.74,49.22,10.34-.4-2.1-1.04-4.09-1.8-5.92-3.34.38-6.61.58-9.79.58-6.31,0-12.28-.75-17.83-2.24Z"/>
  <path class="cls-1" d="M86.72,118.43s-.06-.08-.09-.12l.14-.1c3.1-11.81,10.83-22.64,19.04-30.38l-2.32-2.62c-.57-.64-1.15-1.28-1.74-1.92-4.14,3.89-7.94,8.31-11.3,13.16-7.58,10.93-11.48,22.38-11.27,33.1.25,12.68,6.5,23.2,12.24,30.23,1.93-.78,3.77-1.75,5.48-2.92-3.76-4.44-6.68-9.06-8.69-13.79-3.49-8.22-3.55-16.65-1.5-24.64Z"/>
  <path class="cls-1" d="M53.4,87.94c3.64-3.27,7.06-5.89,10.44-8.01,4.26-2.67,8.81-4.8,12.3-6.36,3.22-1.44,6.56-2.84,10.08-4.25-.05-.04-.09-.07-.13-.11-1.81-1.39-3.69-2.77-5.62-4.15-3.79,1.53-7.67,3.25-11.58,5.17-7.25,3.55-13.89,8.03-19.73,13.31-5.42,4.91-10.41,10.44-14.85,16.45.95,1.36,1.97,2.55,2.91,3.54.39.41.79.81,1.2,1.2,4.64-6.39,9.67-12.03,14.98-16.8Z"/>
  <path class="cls-1" d="M159.17,56.21c-6.53-3.37-13.9-4.92-21.35-4.51-7.35.41-14.27,1.84-20.31,4.14,1.65,1.56,3.25,3.16,4.79,4.8,5.54-1.79,11.49-2.82,16.97-2.9,5.53-.08,10.82.98,15.6,3.17,10.87,4.97,19.11,15.54,20.51,26.31.84,6.47-.54,13.76-3.69,19.9,1.28,2.06,2.44,4.15,3.48,6.27,3.9-6.36,6.18-13.61,6.5-20.86.64-14.45-8.4-29.04-22.5-36.31Z"/>
  <path class="cls-1" d="M126.38,12.09c-10.05-5.19-21.76-7.06-33.88-5.41-14.31,1.95-26.38,8.27-33.99,17.78-6.72,8.4-10.92,19.91-11.83,32.42-.28,3.89-.46,7.17-.44,10.53.02,3.42.21,6.77.44,10.21,1.86-1.6,3.78-3.14,5.77-4.59-1.08-23.27,3.99-39.54,15.5-49.68,6.12-5.39,14.32-8.92,24.38-10.5,10.12-1.59,19.81-.42,28.79,3.47,7.85,3.4,15.42,9.17,22.54,17.15,3.01.18,5.99.57,8.92,1.19-8.04-10.22-16.66-17.65-26.19-22.58Z"/>
  <path class="cls-1" d="M137.49,45.62c8.52-.47,16.99,1.32,24.49,5.18,16.17,8.34,26.54,25.22,25.79,41.99-.43,9.65-3.88,19.27-9.75,27.29.86,2.38,1.56,4.78,2.1,7.17,6.62-7.82,11.15-17.25,12.93-27.12,1.05-5.79,1.12-11.53.22-17.06-.8-4.9-2.64-10-5.47-15.17-4.89-8.93-12.09-16.3-20.82-21.32-8.72-5.01-18.74-7.47-28.97-7.09-11.06.4-21.84,3.06-30.72,7.52,1.81,1.43,3.54,2.86,5.21,4.29,7.27-3.21,15.85-5.19,24.99-5.7Z"/>
  <path class="cls-1" d="M169.33,88c-.58-4.45-2.62-8.87-5.68-12.69-.86,2.93-2.04,5.92-3.58,9-.88,1.78-1.86,3.57-2.94,5.36,3.94,3.62,7.45,7.48,10.5,11.52,1.59-4.3,2.24-9.04,1.7-13.2Z"/>
  <path class="cls-1" d="M118.68,21.92c-7.9-3.42-16.46-4.45-25.41-3.04-8.89,1.39-16.05,4.44-21.29,9.05-9.45,8.32-13.89,21.82-13.57,41.13,1.98-1.21,4.01-2.36,6.1-3.43.13-7.94,1.06-14.28,2.94-19.77,2.13-6.25,5.69-11.34,10.29-14.74,4.48-3.3,10.33-5.4,17.88-6.41,5.58-.74,10.72-.42,15.71.98,5.35,1.5,10.67,4.46,15.84,8.77,2.67-.43,5.38-.74,8.11-.92-5.36-5.25-10.92-9.16-16.59-11.62Z"/>
  <path class="cls-1" d="M96.43,30.74c-3.47.46-6.47,1.18-9.09,2.14,5.42,3.51,10.25,6.82,14.63,10.06,5.18-2.91,11.04-5.22,17.28-6.84-3.19-2.13-6.39-3.67-9.57-4.56-4.18-1.17-8.52-1.44-13.25-.81Z"/>
  <path class="cls-2" d="M28.19,74.5c-3.05,5.68-4.29,11.69-3.61,17.36.83,6.83,4.92,12.4,8.2,15.86,7.02,7.41,17.05,12.61,28.46,14.83.19-2.01.48-4.03.86-6.05-2.76-.56-5.44-1.32-8.01-2.26-.75,1-1.48,2.02-2.2,3.07l-5.04-3.44c.5-.73,1-1.44,1.52-2.14-1.84-.95-3.59-2-5.22-3.14-.56.78-1.12,1.56-1.67,2.36l-5.04-3.44c.65-.94,1.3-1.87,1.96-2.78-.41-.39-.81-.79-1.2-1.2-.94-.99-1.96-2.19-2.91-3.54-.4.54-.8,1.08-1.2,1.63l-4.97-3.53c1-1.41,2.05-2.79,3.11-4.15-.28-.91-.49-1.85-.61-2.81-.53-4.36.51-9.25,2.93-13.75,1.63-3.05,3.85-5.85,6.6-8.39-.01-.51-.03-1.03-.03-1.54-.01-2.13.05-4.22.16-6.41-5.28,3.81-9.36,8.33-12.11,13.46Z"/>
  <path class="cls-2" d="M12.58,83.43c-1.24,8.89.72,17.66,5.66,25.37,4.31,6.72,10.34,12.45,17.93,17.03,7.48,4.51,16.1,7.62,25.07,9.08-.2-2.06-.3-4.13-.29-6.22-7.75-1.42-15.16-4.18-21.63-8.08-6.78-4.09-12.15-9.17-15.95-15.1-4.15-6.47-5.79-13.81-4.75-21.24,1.74-12.45,10.09-23.85,22.25-30.81.29-2.54.7-5.03,1.23-7.47-16.07,7.5-27.33,21.7-29.53,37.44Z"/>
  <path class="cls-2" d="M26.78,128.26c.02,2.13.09,4.18.2,6.16.16.11.32.22.48.32,1.93,1.27,3.93,2.44,5.97,3.54-.06-.58-.11-1.15-.16-1.71l6.08-.54c.17,1.9.38,3.69.64,5.39,2.16.92,4.37,1.75,6.61,2.48-.13-.63-.26-1.26-.36-1.92l6.02-.97c.27,1.7.65,3.29,1.1,4.79,3.45.81,6.95,1.4,10.5,1.76-.68-2.08-1.23-4.19-1.67-6.33-11.27-1.5-22.04-5.47-31.38-11.59-9.49-6.23-16.78-14.4-21.07-23.63-3.69-7.94-4.61-17.48-2.6-26.85,2.1-9.78,7.44-19.28,15.04-26.75,6.05-5.95,13.44-10.59,21.99-13.89.88-2.61,1.91-5.12,3.08-7.52-11.59,3.6-21.47,9.32-29.35,17.07-8.57,8.42-14.35,18.73-16.73,29.82-2.28,10.66-1.21,21.56,3.03,30.69,3.68,7.92,9.32,15.12,16.5,21.14,0-.47-.02-.93-.03-1.41l6.1-.05Z"/>
  <path class="cls-2" d="M50.26,36.43c-2.1.62-4.12,1.33-6.09,2.09-.82,2.42-1.51,4.91-2.07,7.47.51-.24,1.01-.49,1.53-.72l2.42,5.59c-1.8.78-3.52,1.65-5.18,2.6-.11.99-.21,1.98-.28,2.98-.12,1.62-.22,3.13-.29,4.59.4-.29.79-.58,1.2-.86l3.43,5.04c-1.74,1.18-3.32,2.44-4.76,3.77.09,4.41.39,8.8.7,13.06l.03.49.5-.04c1.2-1.18,2.41-2.35,3.65-3.47.53-.48,1.07-.94,1.61-1.41-.23-3.44-.42-6.8-.44-10.21-.02-3.35.16-6.63.44-10.53.91-12.51,5.11-24.03,11.83-32.42,7.61-9.51,19.68-15.82,33.99-17.78,12.11-1.66,23.83.21,33.88,5.41,9.54,4.93,18.15,12.36,26.19,22.58,3.32.7,6.57,1.67,9.72,2.92-9.95-14.42-20.78-24.54-33.11-30.91C118.01.9,105.04-1.18,91.67.64c-15.86,2.17-29.33,9.27-37.93,20.01-2.49,3.11-4.66,6.59-6.49,10.35.43-.13.85-.29,1.29-.42l1.72,5.85Z"/>
  <path class="cls-2" d="M40.17,68.99c1.44-1.33,3.03-2.6,4.76-3.77l-3.43-5.04c-.41.28-.8.57-1.2.86-.12,2.2-.18,4.28-.16,6.41,0,.51.02,1.03.03,1.54Z"/>
  <path class="cls-2" d="M46.06,50.87l-2.42-5.59c-.52.22-1.02.48-1.53.72-.53,2.44-.94,4.94-1.23,7.47,1.66-.95,3.39-1.82,5.18-2.6Z"/>
  <path class="cls-2" d="M50.26,36.43l-1.72-5.85c-.44.13-.86.28-1.29.42-1.17,2.4-2.2,4.91-3.08,7.52,1.98-.76,3.99-1.48,6.09-2.09Z"/>
  <path class="cls-2" d="M121.11,16.33c-8.98-3.89-18.66-5.06-28.79-3.47-10.06,1.58-18.26,5.11-24.38,10.5-11.51,10.14-16.58,26.41-15.5,49.68,1.93-1.4,3.93-2.73,5.97-3.98-.33-19.31,4.12-32.81,13.57-41.13,5.23-4.61,12.39-7.65,21.29-9.05,8.95-1.4,17.51-.38,25.41,3.04,5.67,2.46,11.23,6.36,16.59,11.62.84-.05,1.68-.1,2.51-.13,1.96-.07,3.92-.04,5.86.07-7.11-7.98-14.69-13.75-22.54-17.15Z"/>
  <path class="cls-2" d="M95.62,24.7c-7.55,1.01-13.4,3.1-17.88,6.41-4.6,3.39-8.16,8.49-10.29,14.74-1.87,5.5-2.81,11.83-2.94,19.77.56-.29,1.12-.58,1.68-.86,1.51-.74,3.01-1.44,4.51-2.13.07-1.39.16-2.73.29-4-1.28-.83-2.58-1.67-3.93-2.52l3.25-5.15c.58.36,1.14.73,1.71,1.09.34-1.48.73-2.89,1.19-4.24.19-.56.43-1.17.68-1.79-1.04-.65-2.09-1.31-3.16-1.97l3.21-5.18c.98.6,1.94,1.2,2.89,1.8,1.15-1.61,2.57-3.17,4.32-4.49-.56-.36-1.13-.72-1.7-1.08l3.25-5.16c1.59,1,3.12,1.98,4.62,2.95,2.61-.96,5.62-1.68,9.09-2.14,4.74-.63,9.07-.37,13.25.81,3.18.89,6.38,2.43,9.57,4.56,2.59-.67,5.23-1.23,7.93-1.66-5.17-4.31-10.49-7.26-15.84-8.77-4.99-1.4-10.13-1.72-15.71-.98Z"/>
  <path class="cls-2" d="M193.16,64.98c-5.43-9.91-13.43-18.09-23.13-23.67-2.49-1.43-5.08-2.67-7.74-3.72.04.05.08.11.11.16l-5.03,3.45c-1.58-2.29-3.18-4.46-4.8-6.53-2.92-.61-5.9-1.01-8.92-1.19.28.32.57.64.85.96l-4.61,3.99c-1.52-1.75-3.06-3.37-4.61-4.9-2.73.18-5.44.49-8.11.92.41.34.83.68,1.24,1.04l-4.03,4.57c-1.7-1.5-3.42-2.81-5.13-3.96-6.23,1.62-12.1,3.93-17.28,6.84,1.85,1.37,3.62,2.72,5.32,4.07,8.88-4.47,19.66-7.13,30.72-7.52,10.23-.37,20.25,2.08,28.97,7.09,8.73,5.02,15.93,12.39,20.82,21.32,2.83,5.17,4.67,10.28,5.47,15.17.9,5.53.82,11.27-.22,17.06-1.78,9.87-6.31,19.3-12.93,27.12.58,2.59.97,5.17,1.17,7.74,9.21-9.29,15.5-21.21,17.77-33.78,1.17-6.47,1.25-12.9.24-19.11-.91-5.58-2.97-11.34-6.14-17.12Z"/>
  <path class="cls-2" d="M157.37,41.19l5.03-3.45c-.04-.05-.08-.11-.11-.16-3.15-1.24-6.4-2.22-9.72-2.92,1.62,2.06,3.22,4.23,4.8,6.53Z"/>
  <path class="cls-2" d="M137.79,33.41c-.84.03-1.68.07-2.51.13,1.55,1.52,3.1,3.14,4.61,4.9l4.61-3.99c-.28-.33-.57-.64-.85-.96-1.94-.11-3.9-.14-5.86-.07Z"/>
  <path class="cls-2" d="M124.38,40.06l4.03-4.57c-.41-.36-.82-.69-1.24-1.04-2.69.43-5.34.98-7.93,1.66,1.72,1.15,3.43,2.46,5.13,3.96Z"/>
  <path class="cls-2" d="M161.97,50.8c-7.49-3.87-15.97-5.65-24.49-5.18-9.14.51-17.71,2.48-24.99,5.7,1.31,1.12,2.58,2.24,3.82,3.38.41.37.79.77,1.2,1.15,6.04-2.3,12.96-3.73,20.31-4.14,7.44-.41,14.82,1.15,21.35,4.51,14.1,7.27,23.14,21.86,22.5,36.31-.32,7.25-2.6,14.5-6.5,20.86,1.08,2.21,2.03,4.44,2.85,6.69,5.87-8.01,9.32-17.63,9.75-27.29.75-16.78-9.62-33.65-25.79-41.99Z"/>
  <path class="cls-2" d="M175.38,87.22c-1.39-10.77-9.63-21.34-20.51-26.31-4.77-2.18-10.07-3.25-15.6-3.17-5.48.08-11.43,1.1-16.97,2.9,1.56,1.65,3.08,3.33,4.57,5,2.65-.71,5.35-1.22,8-1.51,0-.31-.02-.62-.08-.91l5.99-1.18c.12.6.18,1.21.19,1.81,2.09.07,4.1.34,6.05.8.02-.71.03-1.41-.03-2.12l6.08-.48c.13,1.59.07,3.17-.09,4.72,2,.97,3.89,2.16,5.62,3.53.11-.55.21-1.1.3-1.65l6.03.93c-.29,1.9-.73,3.81-1.29,5.73,3.05,3.82,5.1,8.24,5.68,12.69.54,4.16-.11,8.9-1.7,13.2,1.46,1.94,2.82,3.92,4.06,5.92,3.15-6.14,4.53-13.44,3.69-19.9Z"/>
  <path class="cls-2" d="M31.25,93.94c.69,2.24,1.82,4.28,3.06,6.05,4.44-6,9.43-11.53,14.85-16.45,5.83-5.28,12.47-9.76,19.73-13.31,3.9-1.91,7.79-3.64,11.58-5.17-1.92-1.37-3.89-2.74-5.95-4.12-1.26.54-2.53,1.1-3.8,1.69-.07,1.55-.12,3.16-.12,4.87h-6.1c0-.65.02-1.26.03-1.88-2.08,1.07-4.12,2.21-6.1,3.43.03,1.72.08,3.46.19,5.27l-6.09.35c-.03-.56-.04-1.09-.07-1.64-1.99,1.45-3.91,2.99-5.77,4.59.09,1.32.18,2.64.28,3.99l.04.49-5.59.4c-3.61,3.57-7,7.39-10.16,11.44Z"/>
  <path class="cls-2" d="M28.14,98.09l4.97,3.53c.39-.55.8-1.09,1.2-1.63-1.24-1.77-2.37-3.81-3.06-6.05-1.06,1.36-2.1,2.74-3.11,4.15Z"/>
  <path class="cls-2" d="M46.96,81.61c-.1-1.35-.19-2.67-.28-3.99-.54.47-1.09.93-1.61,1.41-1.24,1.12-2.46,2.29-3.65,3.47l5.59-.4-.04-.49Z"/>
  <path class="cls-2" d="M58.61,74.32c-.1-1.81-.16-3.55-.19-5.27-2.05,1.26-4.04,2.58-5.97,3.98.03.55.04,1.08.07,1.64l6.09-.35Z"/>
  <path class="cls-2" d="M70.6,67.51c0-1.71.04-3.32.12-4.87-1.5.69-3.01,1.39-4.51,2.13-.57.28-1.12.57-1.68.86-.01.63-.03,1.24-.03,1.89h6.1Z"/>
  <path class="cls-2" d="M57.48,92.47c3.38-3.03,6.52-5.45,9.6-7.38,3.92-2.46,8.04-4.39,11.55-5.96,4.1-1.83,8.4-3.61,13.05-5.4-1.74-1.48-3.56-2.94-5.46-4.4-3.52,1.4-6.86,2.81-10.08,4.25-3.49,1.56-8.04,3.69-12.3,6.36-3.38,2.12-6.8,4.74-10.44,8.01-5.31,4.77-10.34,10.4-14.98,16.8,1.44,1.38,3.03,2.67,4.74,3.86,4.45-6.16,9.26-11.58,14.32-16.13Z"/>
  <path class="cls-2" d="M38.42,104.74c-.66.91-1.32,1.84-1.96,2.78l5.04,3.44c.55-.8,1.11-1.59,1.67-2.36-1.71-1.19-3.3-2.48-4.74-3.86Z"/>
  <path class="cls-2" d="M89.32,87.79c2.54-3.16,5.27-6.13,8.15-8.85-.24-.23-.49-.46-.73-.69-3.4,1.28-6.73,2.64-9.89,3.96-7.54,3.14-16.2,7.01-23.47,13.17-5.49,4.66-10.53,10.15-15.01,16.34,1.82.94,3.74,1.78,5.72,2.51,3.99-5.36,8.42-10.13,13.22-14.2,1.74-3.86,3.83-7.63,6.27-11.28l5.08,3.38c-.16.25-.32.5-.48.74,3.64-1.91,7.38-3.53,11.02-5.05.04-.02.08-.03.11-.05Z"/>
  <path class="cls-2" d="M46.86,113.88l5.04,3.44c.72-1.05,1.45-2.06,2.2-3.07-1.99-.73-3.9-1.57-5.72-2.51-.51.71-1.02,1.42-1.52,2.14Z"/>
  <path class="cls-2" d="M81.37,36.01c-.07.05-.13.11-.2.16,13.19,8.37,22.82,15.51,31.03,23.01,4.3,3.93,8.08,8.19,12.08,12.71l4.65,5.25c1.3-1.88,2.4-3.68,3.32-5.44l-3.41-3.84c-.65-.74-1.32-1.48-1.98-2.22-1.48.4-2.95.85-4.37,1.37l-2.08-5.73c.62-.22,1.25-.43,1.88-.64-1.54-1.64-3.14-3.24-4.79-4.8-1.45.55-2.87,1.14-4.21,1.8l-2.68-5.47c.61-.3,1.24-.57,1.87-.84-1.67-1.43-3.4-2.86-5.21-4.29-.9.45-1.78.92-2.64,1.4l-3.02-5.29c.11-.06.23-.12.34-.19-4.38-3.24-9.2-6.56-14.63-10.06-2.29.84-4.27,1.88-5.97,3.13Z"/>
  <path class="cls-2" d="M87.34,32.88c-1.5-.97-3.03-1.95-4.62-2.95l-3.25,5.16c.58.36,1.14.72,1.7,1.08.07-.05.13-.11.2-.16,1.69-1.25,3.68-2.28,5.97-3.13Z"/>
  <path class="cls-2" d="M104.65,48.42c.86-.49,1.74-.95,2.64-1.4-1.7-1.35-3.48-2.71-5.32-4.07-.11.06-.23.12-.34.19l3.02,5.29Z"/>
  <path class="cls-2" d="M112.5,51.31c-.63.28-1.26.55-1.87.84l2.68,5.47c1.34-.65,2.76-1.24,4.21-1.8-.4-.38-.79-.77-1.2-1.15-1.24-1.13-2.51-2.26-3.82-3.38Z"/>
  <path class="cls-2" d="M120.43,61.27l2.08,5.73c1.43-.52,2.89-.97,4.37-1.37-1.49-1.67-3.01-3.34-4.57-5-.63.2-1.26.41-1.88.64Z"/>
  <path class="cls-2" d="M104.2,68.37c3.48,3.25,6.69,6.77,9.1,9.48,1.3,1.46,2.59,2.94,3.88,4.42,1.31,1.5,2.65,3.03,4.01,4.55,1.41-1.57,2.74-3.12,3.99-4.68-1.15-1.3-2.29-2.59-3.4-3.87-1.3-1.49-2.6-2.98-3.92-4.46-2.5-2.81-5.83-6.46-9.49-9.88-3.22-3.01-6.62-5.73-10.73-8.89-6.24-4.79-13.06-9.51-20.78-14.36-1.29,1.8-2.24,3.66-2.94,5.35,7.43,4.69,13.99,9.23,20,13.84,3.97,3.05,7.24,5.66,10.28,8.51Z"/>
  <path class="cls-2" d="M73.97,38.87l-3.21,5.18c1.07.66,2.12,1.31,3.16,1.97.7-1.7,1.65-3.55,2.94-5.35-.95-.6-1.91-1.2-2.89-1.8Z"/>
  <path class="cls-2" d="M79.76,58.78l2.23,5.67c-.5.2-1.01.41-1.52.61,1.93,1.38,3.81,2.76,5.62,4.15.05.04.09.07.13.11,1.62-.65,3.26-1.29,4.97-1.94l2.17,5.69c-.57.22-1.12.43-1.68.65,1.77,1.5,3.45,3.01,5.07,4.53.82-.31,1.64-.61,2.47-.91.04-.03.07-.07.11-.1l.04.05c.68-.24,1.35-.49,2.03-.73l1.71,4.92.28.31s-.09.08-.13.12l.14.4c-.32.11-.63.23-.95.34-.23.21-.46.41-.68.63.59.63,1.17,1.27,1.74,1.92l2.32,2.62c.44-.42.88-.82,1.33-1.22l4.08,4.53c-.45.41-.91.83-1.36,1.25l2.77,3.12c1.54-1.45,2.99-2.87,4.37-4.27l-8.93-10.08c-5.22-5.89-11.19-11.38-18.27-16.79-5.37-4.11-11.2-8.16-17.75-12.33-.46,2.03-.8,4.22-1.04,6.58,1.19.78,2.37,1.55,3.51,2.32,1.76-.76,3.51-1.49,5.24-2.16Z"/>
  <path class="cls-2" d="M70.33,50.96l-3.25,5.15c1.34.84,2.65,1.68,3.93,2.52.24-2.36.58-4.55,1.04-6.58-.57-.36-1.13-.72-1.71-1.09Z"/>
  <path class="cls-2" d="M79.76,58.78c-1.73.68-3.48,1.41-5.24,2.16,2.06,1.38,4.03,2.75,5.95,4.12.51-.2,1.02-.42,1.52-.61l-2.23-5.67Z"/>
  <path class="cls-2" d="M93.37,73.08l-2.17-5.69c-1.71.65-3.36,1.3-4.97,1.94,1.91,1.46,3.72,2.93,5.46,4.4.56-.22,1.11-.43,1.68-.65Z"/>
  <path class="cls-2" d="M99.22,77.35c-.83.3-1.65.6-2.47.91.24.23.49.46.73.69.57-.54,1.16-1.07,1.74-1.6Z"/>
  <path class="cls-2" d="M103.39,82.33l-.14-.4c-.27.24-.54.49-.81.74.32-.11.63-.23.95-.34Z"/>
  <path class="cls-2" d="M101.39,76.57c-.68.23-1.35.48-2.03.73l3.73,4.19-1.71-4.92Z"/>
  <path class="cls-2" d="M125.18,82.13c.88,1,1.77,1.99,2.66,2.97l-4.51,4.11c-.72-.79-1.43-1.59-2.15-2.39-1.32,1.47-2.71,2.94-4.19,4.44l1.73,1.95-4.57,4.04-1.53-1.72c-1.22,1.15-2.47,2.3-3.79,3.49-2.88,2.58-5.75,5.02-8.58,7.3.6.74,1.22,1.48,1.82,2.21l1.08,1.29c.33.39.67.78,1.03,1.16,2.88-2.32,5.8-4.8,8.72-7.43,7.44-6.68,13.15-12.64,17.95-18.75,2.98-3.8,5.29-7.3,7.04-10.71,1.68-3.27,3.17-6.74,3.08-10.23-.54-.02-1.07-.03-1.62-.02-1.46.02-2.97.12-4.49.29.02,2.46-1.52,5.47-2.4,7.17-.07.13-.14.27-.21.4l2.79,3.15-4.57,4.04-1.55-1.75c-.87,1.26-1.83,2.55-2.88,3.89-.29.37-.59.73-.89,1.1Z"/>
  <path class="cls-2" d="M140.99,63.85c-.02-.6-.08-1.21-.19-1.81l-5.99,1.18c.06.29.08.6.08.91,1.52-.17,3.02-.27,4.49-.29.54,0,1.08,0,1.62.02Z"/>
  <path class="cls-2" d="M135.06,74.85l-2.79-3.15c-.93,1.76-2.03,3.56-3.32,5.44l1.55,1.75,4.57-4.04Z"/>
  <path class="cls-2" d="M127.84,85.1c-.89-.97-1.78-1.97-2.66-2.97-1.26,1.56-2.58,3.12-3.99,4.68.71.8,1.42,1.6,2.15,2.39l4.51-4.11Z"/>
  <path class="cls-2" d="M118.73,93.21l-1.73-1.95c-1.38,1.4-2.83,2.82-4.37,4.27l1.53,1.72,4.57-4.04Z"/>
  <path class="cls-2" d="M119.1,106.17c-3.21,2.97-6.65,5.92-10.22,8.81,1.72,1.2,3.61,2.3,5.64,3.27,3.03-2.5,5.96-5.05,8.72-7.6,7.92-7.31,14.19-14.15,19.18-20.9,4.25-5.75,9.6-14.02,10.57-22.98-.22-.11-.44-.22-.66-.33-1.69-.77-3.46-1.36-5.3-1.79-.28,8.01-5.48,16-9.53,21.48-4.76,6.44-10.78,12.99-18.41,20.04Z"/>
  <path class="cls-2" d="M153,66.77c.17-1.56.22-3.13.09-4.72l-6.08.48c.06.71.06,1.41.03,2.12,1.84.43,3.61,1.02,5.3,1.79.22.1.44.22.66.33Z"/>
  <path class="cls-2" d="M163.65,75.31c-1.46-1.83-3.16-3.52-5.03-5.01-.73,3.64-2.05,7.36-4.01,11.31-3.37,6.8-8.3,13.76-15.08,21.27-3,3.33-6.26,6.67-9.69,9.93-1.62,1.54-3.3,3.09-5.14,4.74-.89.8-1.79,1.59-2.7,2.38-.15.13-.39.36-.66.65-.06.06-.14.14-.22.22.47.14.94.28,1.42.41,1.89.51,3.84.91,5.84,1.23.13-.12.26-.23.39-.35,1.89-1.69,3.62-3.28,5.28-4.86,1.32-1.26,2.62-2.54,3.89-3.82-.83-.82-1.66-1.58-2.5-2.26l3.86-4.72c.96.78,1.91,1.65,2.86,2.58.64-.69,1.28-1.37,1.9-2.06.74-.82,1.45-1.64,2.15-2.45-1.01-.98-2.04-1.95-3.12-2.87l3.97-4.63c1.04.89,2.05,1.82,3.04,2.76,1.3-1.66,2.52-3.3,3.65-4.92-.96-.9-1.94-1.79-2.96-2.66l3.98-4.62c.8.69,1.58,1.39,2.35,2.1,1.08-1.8,2.06-3.58,2.94-5.36,1.53-3.09,2.71-6.07,3.58-9Z"/>
  <path class="cls-2" d="M163.65,75.31c.57-1.93,1-3.83,1.29-5.73l-6.03-.93c-.08.55-.18,1.1-.3,1.65,1.88,1.49,3.57,3.18,5.03,5.01Z"/>
  <path class="cls-2" d="M86.78,118.21l4.89-3.34c.54.78,1.12,1.55,1.75,2.31.72-2.17,1.6-4.31,2.63-6.39-.75-.91-1.5-1.84-2.21-2.8l4.91-3.61c.17.23.37.47.55.7,3.07-4.76,6.76-9.08,10.57-12.68l-4.05-4.57c-8.22,7.74-15.95,18.57-19.04,30.38Z"/>
  <path class="cls-2" d="M91.75,124.36c-1.93-1.89-3.61-3.87-5.03-5.93-2.05,7.99-1.99,16.42,1.5,24.64,2,4.73,4.93,9.35,8.69,13.79.07-.05.15-.09.22-.14,1.64-1.14,3.12-2.43,4.4-3.83-3-3.55-5.39-7.21-7.12-10.92-2.73-1.72-5.29-3.62-7.65-5.68l4.03-4.57c.28.24.57.47.86.71-.31-2.69-.26-5.39.09-8.06Z"/>
  <path class="cls-2" d="M111.22,91.14l-4.08-4.53c-.44.4-.89.81-1.33,1.22l4.05,4.57c.45-.43.9-.85,1.36-1.25Z"/>
  <path class="cls-2" d="M90.45,96.45c3.36-4.85,7.16-9.26,11.3-13.16-.09-.1-.18-.19-.27-.29-4.16,1.5-8.29,3.17-12.16,4.78-1.35,1.68-2.65,3.4-3.89,5.19-8.32,11.99-12.59,24.68-12.35,36.69.22,10.9,4.36,21.85,12.01,31.93,2.2-.39,4.31-1,6.33-1.82-5.74-7.04-11.99-17.56-12.24-30.23-.21-10.72,3.69-22.16,11.27-33.1Z"/>
  <path class="cls-2" d="M97.48,78.95c-2.89,2.72-5.61,5.68-8.15,8.85,3.88-1.62,8-3.28,12.16-4.78-1.29-1.37-2.62-2.73-4.01-4.06Z"/>
  <path class="cls-2" d="M101.75,83.3c.23-.21.46-.42.68-.63-.32.11-.63.23-.95.34.09.09.18.19.27.29Z"/>
  <path class="cls-2" d="M103.38,81.81l-.28-.31.15.43s.09-.08.13-.12Z"/>
  <path class="cls-2" d="M99.33,77.25s-.07.07-.11.1c.05-.02.1-.04.15-.05l-.04-.05Z"/>
  <path class="cls-2" d="M101.49,83.01c.32-.11.63-.23.95-.34.27-.25.54-.5.81-.74l-.15-.43-3.73-4.19s-.1.04-.15.05c-.59.52-1.17,1.05-1.74,1.6,1.39,1.34,2.73,2.69,4.01,4.06Z"/>
  <path class="cls-2" d="M70.03,161.06c2.66.63,5.31.98,7.91,1.05-2.94-4.28-5.35-8.75-7.17-13.31-6.91-17.35-4.13-38.19,7.41-55.92-3.79,1.99-7.48,4.29-10.85,7.15,0,0,0,0-.01,0-2.43,5.38-4.17,10.91-5.21,16.47.96.19,1.93.37,2.91.52l-.89,6.03c-.97-.14-1.93-.32-2.88-.5-.2,2.05-.3,4.1-.3,6.14,1.16.21,2.32.4,3.49.55l-.78,6.04c-.81-.1-1.61-.24-2.42-.37.21,2.13.52,4.24.95,6.33,1.42.19,2.84.35,4.27.46l-.47,6.07c-.71-.05-1.42-.12-2.14-.2.38,1.17.8,2.33,1.25,3.48,1.35,3.4,3,6.74,4.93,10Z"/>
  <path class="cls-2" d="M64.13,123.06l.89-6.03c-.98-.14-1.95-.32-2.91-.52-.38,2.01-.67,4.03-.86,6.05.95.19,1.91.36,2.88.5Z"/>
  <path class="cls-2" d="M63.66,135.29l.78-6.04c-1.17-.15-2.33-.34-3.49-.55,0,2.08.09,4.16.29,6.22.81.13,1.61.27,2.42.37Z"/>
  <path class="cls-2" d="M66.46,141.7c-1.43-.11-2.86-.27-4.27-.46.44,2.14.99,4.26,1.67,6.33.71.07,1.42.14,2.14.2l.47-6.07Z"/>
  <path class="cls-2" d="M73.59,88.77c-2.44,3.65-4.53,7.42-6.27,11.28,0,0,0,0,.01,0,3.37-2.86,7.06-5.16,10.85-7.15.16-.25.32-.5.48-.74l-5.08-3.38Z"/>
  <path class="cls-2" d="M111.02,121.09l-3.79-4.77c.56-.44,1.1-.89,1.65-1.34-1.76-1.23-3.34-2.58-4.68-4.01-.84.67-1.67,1.34-2.5,1.98l-3.75-4.81c.77-.6,1.54-1.21,2.31-1.84-.33-.41-.65-.82-.96-1.24-1.19,1.84-2.28,3.75-3.25,5.71.45.55.91,1.1,1.36,1.64l1.06,1.27c6.81,8.22,17.01,11.92,22.49,13.39,5.55,1.49,11.51,2.24,17.83,2.24,3.17,0,6.44-.2,9.79-.58-.91-2.21-2-4.18-3.04-5.82-6.06.52-11.8.36-17.15-.49-.79.7-1.58,1.4-2.38,2.09-.05.05-.16.17-.29.3-1.13,1.16-2.31,2.37-3.98,2.37v-6.09c-.81,0-1.31.35-1.31.35.15-.11.45-.41.7-.66-2.31-.7-4.52-1.56-6.59-2.55-1.15.95-2.32,1.9-3.5,2.84Z"/>
  <path class="cls-2" d="M101.7,112.96c.83-.64,1.66-1.31,2.5-1.98-.36-.38-.71-.77-1.03-1.16l-1.08-1.29c-.61-.72-1.22-1.46-1.82-2.21-.78.62-1.55,1.24-2.31,1.84l3.75,4.81Z"/>
  <path class="cls-2" d="M111.02,121.09c1.18-.94,2.35-1.89,3.5-2.84-2.03-.97-3.93-2.07-5.64-3.27-.55.45-1.1.89-1.65,1.34l3.79,4.77Z"/>
  <path class="cls-2" d="M120.42,121.45s.5-.35,1.31-.35v6.09c1.67,0,2.84-1.2,3.98-2.37.13-.13.24-.25.29-.3.8-.69,1.59-1.39,2.38-2.09-2-.32-3.95-.72-5.84-1.23-.48-.13-.95-.26-1.42-.41-.24.25-.55.55-.7.66Z"/>
  <path class="cls-2" d="M93.84,107.99c.71.96,1.46,1.89,2.21,2.8.97-1.96,2.06-3.87,3.25-5.71-.18-.23-.37-.47-.55-.7l-4.91,3.61Z"/>
  <path class="cls-2" d="M86.63,118.31s.06.08.09.12c.02-.07.04-.15.06-.22l-.14.1Z"/>
  <path class="cls-2" d="M101.14,124.33c-3.05-2.22-5.64-4.62-7.73-7.15-.78,2.36-1.34,4.76-1.66,7.18,1.74,1.71,3.67,3.34,5.79,4.89,11.05,8.06,25.42,12.24,41.47,12.24,3.82,0,7.74-.24,11.74-.72.15-2.1,0-4.14-.38-6.1-19.33,2.4-36.72-1.23-49.22-10.34Z"/>
  <path class="cls-2" d="M86.78,118.21c-.02.07-.04.15-.06.22,1.42,2.06,3.11,4.04,5.03,5.93.32-2.42.89-4.83,1.66-7.18-.63-.76-1.21-1.53-1.75-2.31l-4.89,3.34Z"/>
  <path class="cls-2" d="M138.9,153.68c2.16,0,4.34-.07,6.54-.2,1.2-1.44,2.27-3.07,3.19-4.92.25-.5.46-1.01.67-1.51-4.24.43-8.45.61-12.55.52-18.01-.4-33.96-5.78-45.1-15.14.32,2.77,1.02,5.54,2.18,8.27.18.42.38.85.58,1.27,3.3,2.08,6.87,3.9,10.66,5.44.42-.98.8-2.02,1.18-3.14l5.79,1.93c-.36,1.08-.76,2.19-1.22,3.3,1.92.61,3.89,1.16,5.9,1.64.52-1.26.99-2.55,1.37-3.9l5.87,1.67c-.34,1.18-.73,2.33-1.16,3.46,2.05.34,4.13.62,6.25.83.33-.99.62-1.99.87-3.01l5.93,1.45c-.16.66-.34,1.31-.53,1.96.44.02.87.04,1.3.05.76.02,1.52.03,2.29.03Z"/>
  <path class="cls-2" d="M86.77,136.28c2.35,2.07,4.91,3.96,7.65,5.68-.2-.42-.4-.85-.58-1.27-1.16-2.73-1.86-5.5-2.18-8.27-.28-.24-.58-.47-.86-.71l-4.03,4.57Z"/>
  <path class="cls-2" d="M175.77,131.88c1.54-1.46,2.98-3.01,4.35-4.62-.54-2.4-1.24-4.79-2.1-7.17-.35.47-.7.94-1.06,1.4l-4.8-3.76c1.09-1.39,2.09-2.83,3.01-4.33-1.04-2.11-2.2-4.21-3.48-6.27-.3.59-.62,1.17-.95,1.74l-5.25-3.1c.84-1.42,1.55-2.97,2.14-4.57-3.05-4.04-6.56-7.9-10.5-11.52-1.03,1.71-2.16,3.44-3.37,5.18,14.42,13.58,22.41,30.64,21.5,46.28-.58,10.1-4.4,19.91-10.74,27.62-6.07,7.38-14.82,12.81-24.64,15.3-9.37,2.37-19.37,2.42-29.27.16-2.61,1.54-5.35,2.89-8.2,4.03,7.51,2.47,15.16,3.71,22.7,3.71,5.52,0,10.98-.67,16.27-2.01,11.08-2.81,20.97-8.97,27.86-17.34,7.15-8.7,11.45-19.75,12.11-31.13.12-2.15.1-4.32-.07-6.5-.43.43-.86.87-1.3,1.29l-4.21-4.41Z"/>
  <path class="cls-2" d="M175.77,131.88l4.21,4.41c.44-.42.87-.85,1.3-1.29-.19-2.57-.58-5.16-1.17-7.74-1.36,1.61-2.81,3.16-4.35,4.62Z"/>
  <path class="cls-2" d="M172.16,117.72l4.8,3.76c.36-.46.71-.93,1.06-1.4-.81-2.25-1.76-4.48-2.85-6.69-.92,1.49-1.92,2.94-3.01,4.33Z"/>
  <path class="cls-2" d="M165.48,105.76l5.25,3.1c.34-.57.65-1.15.95-1.74-1.24-2.01-2.6-3.99-4.06-5.92-.59,1.6-1.3,3.14-2.14,4.57Z"/>
  <path class="cls-2" d="M150.8,92.2c1.01.87,2,1.76,2.96,2.66,1.21-1.74,2.34-3.47,3.37-5.18-.77-.71-1.55-1.41-2.35-2.1l-3.98,4.62Z"/>
  <path class="cls-2" d="M162.12,161.79c3.2-4.78,5.38-10.3,6.67-16.85,2.03-10.41-1.83-20.54-4.32-25.65-3.46-7.1-8.38-13.77-14.36-19.5-1.22,1.56-2.51,3.13-3.89,4.73,5.3,5.16,9.68,11.11,12.76,17.43,3.66,7.53,5.06,15.49,3.82,21.82-1.12,5.75-3,10.53-5.75,14.63-7.83,11.69-21.38,15.53-33.29,15.26-1.86,2.01-3.88,3.9-6.03,5.64,2.31.29,4.71.46,7.17.46,13.35,0,28.31-4.66,37.22-17.97Z"/>
  <path class="cls-2" d="M147.07,97.02l-3.97,4.63c1.08.92,2.11,1.88,3.12,2.87,1.38-1.59,2.67-3.17,3.89-4.73-.99-.95-1.99-1.87-3.04-2.76Z"/>
  <path class="cls-2" d="M154.11,151.24c4.94-10.03,3.33-21.84-4.53-33.26-2.4-3.49-4.88-6.49-7.41-8.97-1.37,1.47-2.78,2.93-4.23,4.39,2.23,2.2,4.44,4.88,6.61,8.03.32.46.64.96.98,1.49,1.5-.13,3.01-.28,4.55-.5l.84,6.04c-.79.11-1.57.2-2.35.29.76,1.83,1.4,3.83,1.8,5.92,1.02-.13,2.05-.26,3.08-.42l.94,6.02c-1.22.19-2.43.35-3.64.5-.15,2.06-.6,4.16-1.45,6.27.57-.06,1.14-.1,1.72-.17l.71,6.05c-2.1.24-4.2.43-6.28.55-1.47,1.76-3.15,3.21-5.04,4.32-2.29,1.35-4.95,2.34-7.84,2.96-1.11,2.32-2.4,4.56-3.86,6.7,5.52-.45,10.61-1.95,14.8-4.41,4.48-2.63,8.05-6.6,10.61-11.8Z"/>
  <path class="cls-2" d="M139.31,106.44l-3.86,4.72c.83.68,1.66,1.44,2.5,2.26,1.45-1.46,2.86-2.92,4.23-4.39-.95-.93-1.9-1.8-2.86-2.58Z"/>
  <path class="cls-2" d="M150.92,128.46l-.84-6.04c-1.54.21-3.05.37-4.55.5,1.04,1.65,2.12,3.62,3.04,5.82.78-.09,1.56-.18,2.35-.29Z"/>
  <path class="cls-2" d="M150.74,140.77c1.21-.15,2.42-.31,3.64-.5l-.94-6.02c-1.03.16-2.06.29-3.08.42.37,1.96.53,4,.38,6.1Z"/>
  <path class="cls-2" d="M145.45,153.48c2.08-.13,4.18-.31,6.28-.55l-.71-6.05c-.57.07-1.15.11-1.72.17-.2.5-.42,1.01-.67,1.51-.91,1.85-1.98,3.49-3.19,4.92Z"/>
  <path class="cls-2" d="M65.92,166.27c4.39,1.31,8.8,1.96,13.09,1.96,7.93,0,15.42-2.21,21.61-6.52,2.71-1.89,5.06-4.1,6.99-6.58,1.41-1.82,2.42-3.74,3.22-5.65-1.96-.63-3.88-1.32-5.75-2.08-.63,1.46-1.34,2.77-2.29,3.99-.39.51-.81,1-1.25,1.48.59.7,1.2,1.4,1.84,2.09l-4.48,4.14c-.69-.74-1.35-1.49-1.99-2.25-1.71,1.17-3.55,2.14-5.48,2.92.47.58.94,1.13,1.39,1.66l-4.61,3.99c-1.1-1.26-2.13-2.54-3.11-3.84-2.31.41-4.71.58-7.15.51.26.38.52.76.79,1.14l-4.97,3.54c-1.34-1.88-2.59-3.79-3.73-5.74-.79-.19-1.58-.39-2.37-.62-4.33-1.29-7.44-3.18-9.8-5.94-1.97-2.3-3.47-5.22-4.51-8.69-2.29-.54-4.54-1.18-6.76-1.9,1.21,5.89,3.43,10.79,6.63,14.54,3.11,3.64,7.26,6.2,12.7,7.82Z"/>
  <path class="cls-2" d="M52.25,141.03l-6.02.97c.11.65.23,1.29.36,1.92,2.22.73,4.48,1.37,6.76,1.9-.45-1.5-.83-3.09-1.1-4.79Z"/>
  <path class="cls-2" d="M97.13,156.72c-.07.05-.15.09-.22.14.64.75,1.3,1.5,1.99,2.25l4.48-4.14c-.64-.69-1.25-1.39-1.84-2.09-1.29,1.4-2.76,2.69-4.4,3.83Z"/>
  <path class="cls-2" d="M88.21,165.44l4.61-3.99c-.46-.53-.93-1.09-1.39-1.66-2.01.82-4.13,1.43-6.33,1.82.98,1.29,2.01,2.57,3.11,3.84Z"/>
  <path class="cls-2" d="M73.77,166.8l4.97-3.54c-.27-.38-.53-.76-.79-1.14-2.6-.07-5.25-.43-7.91-1.05,1.15,1.94,2.39,3.86,3.73,5.74Z"/>
  <path class="cls-2" d="M112.04,146.19l-5.79-1.93c-.38,1.13-.76,2.17-1.18,3.14,1.86.76,3.78,1.45,5.75,2.08.46-1.11.86-2.21,1.22-3.3Z"/>
  <path class="cls-2" d="M61.21,177.58c5.92,1.9,12.05,2.87,18.07,2.87,2.7,0,5.38-.2,8.01-.59,8.52-1.27,16.59-4.89,23.34-10.46,5.55-4.58,9.63-10.3,12.17-17.04-2.07-.34-4.09-.76-6.08-1.24-2.19,5.34-5.52,9.9-9.98,13.58-5.81,4.79-13.05,8.03-20.36,9.13-7.44,1.11-15.71.38-23.3-2.06-6.9-2.22-12.42-6.2-16.4-11.83-3.39-4.79-5.51-10.63-6.69-18.53-2.23-.95-4.42-2-6.55-3.14.79,7.7,2.57,17.14,8.26,25.18,4.7,6.64,11.45,11.52,19.52,14.11Z"/>
  <path class="cls-2" d="M39.34,136.04l-6.08.54c.05.56.1,1.13.16,1.71,2.13,1.14,4.32,2.19,6.55,3.14-.25-1.7-.47-3.49-.64-5.39Z"/>
  <path class="cls-2" d="M123.96,148.91l-5.87-1.67c-.39,1.35-.86,2.64-1.37,3.9,1.99.48,4.01.89,6.08,1.24.43-1.13.82-2.28,1.16-3.46Z"/>
  <path class="cls-2" d="M103.94,182.35c2.22.74,4.45,1.37,6.68,1.88,2.5-1.48,4.88-3.12,7.1-4.92-.44-.06-.88-.11-1.31-.17l.91-6.02c2.05.31,4.21.5,6.43.55,1.81-1.95,3.46-4.03,4.94-6.2-.5.04-1.01.09-1.52.11l-.27-6.09c1.96-.09,3.85-.33,5.65-.72,1.1-2.31,2.03-4.7,2.75-7.16-2.12-.07-4.21-.2-6.27-.4-5.74,17.41-23.01,30.78-43.12,32.98-10.07,1.1-20.72-.33-29.99-4.02-9.27-3.69-17.02-10.54-21.83-19.3-4.17-7.59-6.47-16.74-7.12-28.44-2.2-1.47-4.3-3.04-6.28-4.7.27,15.07,2.83,26.57,8.05,36.07,5.48,9.99,14.33,17.82,24.92,22.03,7.95,3.16,16.81,4.81,25.56,4.81,2.47,0,4.93-.13,7.36-.4,5.52-.6,10.84-1.97,15.83-3.98-.14-.05-.28-.09-.43-.13l1.94-5.78Z"/>
  <path class="cls-2" d="M26.78,128.26l-6.1.05c0,.48.02.94.03,1.41,1.98,1.66,4.07,3.23,6.28,4.7-.11-1.98-.18-4.03-.2-6.16Z"/>
  <path class="cls-2" d="M129.92,150.19c-.25,1.02-.55,2.02-.87,3.01,2.06.2,4.15.33,6.27.4.19-.65.37-1.3.53-1.96l-5.93-1.45Z"/>
  <path class="cls-2" d="M103.94,182.35l-1.94,5.78c.14.05.28.09.43.13,2.85-1.14,5.59-2.49,8.2-4.03-2.24-.51-4.47-1.13-6.68-1.88Z"/>
  <path class="cls-2" d="M123.76,173.66c-2.21-.05-4.37-.24-6.43-.55l-.91,6.02c.43.06.87.12,1.31.17,2.16-1.74,4.17-3.63,6.03-5.64Z"/>
  <path class="cls-2" d="M126.91,161.48l.27,6.09c.51-.02,1.01-.07,1.52-.11,1.46-2.14,2.75-4.37,3.86-6.7-1.8.39-3.69.63-5.65.72Z"/>
</svg>