<?xml version="1.0" encoding="UTF-8"?>
<svg id="_レイヤー_2" data-name="レイヤー 2" xmlns="http://www.w3.org/2000/svg" viewBox="0 0 131 88">
  <defs>
    <style>
      .cls-1 {
        fill: #fff;
      }

      .cls-2 {
        fill: #3f2828;
      }

      .cls-3 {
        fill: #957f6e;
      }

      .cls-4 {
        fill: #cfcfcf;
      }
    </style>
  </defs>
  <path class="cls-1" d="M109.51,45.81c10.92,4.02,26.72,13,17.13,24.63-8.63,10.46-27.17,13.84-39.87,15.08-3.8.37-16.38,1.09-21.27,1.14-4.89-.05-17.47-.77-21.27-1.14-12.71-1.24-31.25-4.62-39.88-15.08-11.31-13.71,12.69-23.74,22.36-26.3l82.79,1.67Z"/>
  <path class="cls-2" d="M118.68,51.07c5.45,3.21,12.6,9.01,9.05,16.09-1.52,3.04-4.23,5.51-6.99,7.43-2.79,1.9-5.8,3.46-8.96,4.65-6.47,2.5-13.34,3.92-20.2,4.83-5.67.75-11.38,1.06-17.09,1.35-2.86.15-5.73.29-8.6.33-2.69.04-5.4-.14-8.09-.27-5.69-.28-11.39-.55-17.05-1.24-6.86-.83-13.73-2.17-20.24-4.51-6.01-2.17-12.41-5.44-16.18-10.79-1.46-2.08-2.41-4.6-1.9-7.12.48-2.42,1.98-4.47,3.71-6.17,4.08-4.02,9.56-6.67,14.86-8.69,1.16-.44,2.34-.86,3.52-1.23,1.11-.35.63-2.1-.48-1.75-5.62,1.79-11.24,4.24-16.02,7.73-4.31,3.16-8.51,7.83-7.33,13.58.63,3.08,2.71,5.72,4.93,7.85,2.52,2.36,5.39,4.32,8.5,5.82,6.51,3.25,13.68,5.06,20.82,6.25,5.9.92,11.84,1.52,17.8,1.8,5.83.34,11.65.64,17.49.4,5.93-.24,11.88-.5,17.78-1.12,7.02-.74,14.05-1.93,20.79-4.09,6.59-2.12,13.31-5.26,17.97-10.53,2.5-2.83,4.27-6.35,3.56-10.2-.64-3.52-3.21-6.42-5.89-8.62-1.53-1.24-3.15-2.36-4.85-3.34-1.01-.59-1.92.97-.92,1.56h0Z"/>
  <path class="cls-4" d="M66.92,76.14c-5.31-.82-12.56-3-17.8-2.54-5.51.48-9.74,4.39-15.44,4.48-5.82.09-12.81-3.07-14.27-8.95-1.62-6.47,6.5-9.15,11.42-8.64,6.04.62,10.07,3.35,14.91,6.76,1.05.78,2.63.79,3.83.86,5.56.33,11.28.6,16.79.62,5.95.02,12.42.03,18.35.06,4.5.03,13.16-1.16,11.63,5.96-1.29,5.99-7.67,5.47-12.8,4.67-5.82-.92-16.53-3.27-16.62-3.29Z"/>
  <path class="cls-2" d="M67.16,75.27c-3.28-.51-6.51-1.32-9.78-1.91-3.2-.57-6.53-1.05-9.76-.46-3.16.57-5.97,2.17-8.96,3.25-1.5.58-3.07.92-4.67,1.02-1.35.05-2.7-.08-4.02-.37-2.61-.57-5.18-1.72-7.12-3.59-.91-.86-1.64-1.88-2.15-3.02-.27-.61-.46-1.26-.56-1.92-.03-.25-.05-.49-.05-.74,0-.24.02-.49.05-.73.16-.96.62-1.84,1.3-2.53.74-.74,1.62-1.34,2.59-1.76,1.99-.89,4.16-1.28,6.33-1.14,3.11.19,6.14,1.27,8.86,2.75,1.43.78,2.79,1.67,4.13,2.58.68.47,1.35.97,2.04,1.42.72.43,1.53.69,2.37.77,1.83.24,3.7.25,5.54.35,1.99.1,3.97.19,5.96.26,3.95.14,7.9.15,11.86.16,3.92.01,7.84.02,11.75.04,2.24.01,4.5-.1,6.74-.03.97,0,1.94.11,2.88.32.22.05.44.11.66.18.11.03.21.07.32.11.05.02.1.04.15.06.16.06-.05-.02.04.02.18.08.36.17.53.27.09.05.17.11.26.16.21.14,0-.03.18.13.14.13.27.26.39.4.14.15-.02-.06.08.11.06.1.12.19.18.29.02.04.14.31.07.14.04.1.08.2.11.3s.06.22.08.32c.01.06.02.11.03.17.03.16,0-.03,0,.07.1,1.15-.12,2.31-.64,3.35-1,1.98-3.03,2.74-5.17,2.9-2.46.18-4.87-.21-7.26-.62-4.8-.82-9.58-1.83-14.34-2.86-.34-.07-.68-.16-1.02-.22-.48-.12-.97.16-1.12.63-.13.48.15.98.63,1.11,1.34.24,2.67.57,4.01.86,2.72.57,5.44,1.13,8.16,1.65,2.6.54,5.23.95,7.87,1.22,2.46.2,5.21.14,7.39-1.17,2.25-1.36,3.49-4.12,3.31-6.71-.05-1.07-.46-2.1-1.17-2.91-.69-.71-1.56-1.23-2.51-1.5-2.03-.66-4.27-.63-6.38-.59-3.06.06-6.12.03-9.19.02-8.2-.03-16.39,0-24.58-.43-1.85-.1-3.76-.09-5.6-.34-.79-.11-1.54-.42-2.18-.9-.72-.5-1.44-1-2.16-1.49-2.76-1.85-5.68-3.5-8.91-4.4-2.7-.81-5.55-.96-8.32-.45-2.32.47-4.76,1.47-6.38,3.26-1.8,1.98-2.14,4.61-1.26,7.09.98,2.77,3.1,4.94,5.61,6.39,2.58,1.46,5.47,2.28,8.43,2.38,3.43.13,6.54-1.11,9.63-2.43,1.48-.67,3-1.22,4.56-1.66,1.54-.37,3.12-.51,4.69-.41,3.47.16,6.88.95,10.26,1.65,1.56.33,3.12.65,4.7.89.48.12.97-.16,1.12-.63.13-.48-.15-.98-.63-1.11Z"/>
  <path class="cls-2" d="M24.47,71.88c.82.99,1.82,1.82,2.94,2.45,1.18.62,2.49.97,3.82,1.04.5,0,.91-.41.91-.91s-.41-.91-.91-.91c-1.04-.07-2.06-.35-2.98-.84-.24-.13-.47-.27-.69-.43-.05-.03-.09-.07-.14-.1,0,0-.19-.14-.12-.09.08.06-.1-.08-.11-.09-.06-.05-.11-.09-.17-.14-.45-.39-.88-.82-1.27-1.28-.36-.35-.93-.35-1.28,0-.34.36-.34.92,0,1.28h0Z"/>
  <path class="cls-2" d="M34.2,75.31c.49.02.98-.04,1.45-.17.41-.1.81-.22,1.21-.38.22-.07.42-.22.54-.41.25-.43.11-.99-.33-1.24-.21-.13-.46-.16-.7-.09-.57.24-1.18.4-1.79.49l.24-.03c-.21.03-.41.04-.62.03-.5,0-.91.4-.91.9,0,.24.1.47.27.64.18.16.4.26.64.26h0Z"/>
  <path class="cls-2" d="M84.18,77.25c1.41.26,2.84.4,4.28.41,1.2-.01,2.5-.15,3.55-.79,1-.61.08-2.17-.92-1.56-.1.06-.19.11-.29.16-.1.04-.1.05-.02.01-.06.02-.11.04-.17.06-.24.08-.49.15-.74.19-.5.08-1.02.12-1.53.12-1.23-.01-2.46-.13-3.68-.34-.48-.12-.97.16-1.12.63-.13.48.15.98.63,1.11h0Z"/>
  <path class="cls-1" d="M34.06,58.13c-7.75-10.98-10.45-24.96-10.75-38.17-.03-1.51-.03-3.05.44-4.49.82-2.51,3.92-4.9,6.23-6.2,5.79-3.26,16.19-6.47,25.31-7.31,3.55-.33,6.94-.52,10.25-.57,3.31.05,6.7.24,10.25.57,6.56.55,13.01,2.05,19.13,4.47,4.18,1.67,9.63,3.95,11.82,8.16,1.23,2.38,1.29,5.18,1.01,7.84-1.61,15.23-4.39,31.64-16.65,42.25l-57.03-6.55Z"/>
  <path class="cls-3" d="M36.95,21.02c-.74-.31-1.45-.67-2.14-1.08,3.85-5.49,18.41-6.45,24.31-6.73,6.61-.31,14.38-.25,22.11.85,3.09.44,14.51,3.3,15.2,7.24-6.13,2.39-12.57,3.9-19.13,4.47-3.41.32-6.83.48-10.25.48-3.42,0-6.83-.17-10.25-.48-6.56-.57-13-2.08-19.13-4.47-.21-.08-.45-.18-.71-.29Z"/>
  <path class="cls-1" d="M123.91,36.17c-1.04,6.56-6.65,12.01-11.97,15.19-3.4,2.04-14.86,8.06-15.82,8.41,0,0-.21.08-.55.21,3.11-3.91,5.51-8.48,7.33-13.34l.33-.14c3.83-1.58,8.53-4.32,10.2-8.44,1.56-3.84-2.76-8.38-6.91-5.17.49-2.87.83-5.73,1.05-8.5l.3-.08c3.63-.95,7.84-.95,11.06.64,2.77,1.37,4.81,3.92,5.12,8.05.08,1.06.03,2.12-.13,3.17Z"/>
  <path class="cls-2" d="M32.42,14.84c-.73.55-1.15,1.42-1.13,2.34.13.87.57,1.67,1.25,2.24,1.33,1.24,3.06,2.04,4.73,2.72,5.42,2.13,11.1,3.57,16.89,4.27,6.06.74,12.18.96,18.28.63,5.96-.29,11.9-1.05,17.66-2.65,1.59-.44,3.16-.94,4.71-1.5,1.2-.38,2.36-.86,3.48-1.43.95-.47,1.7-1.26,2.13-2.22.47-1.19.07-2.46-.56-3.5-.6-1-2.17-.09-1.57.91.25.39.43.82.51,1.28.05.3-.01.61-.17.87-.38.55-.91.99-1.53,1.24-.9.43-1.83.8-2.78,1.11-1.28.46-2.56.87-3.87,1.25-5.27,1.5-10.69,2.41-16.16,2.72-11.13.73-22.59.05-33.22-3.51-2.19-.73-4.14-1.39-6.08-2.59-.37-.22-.71-.47-1.04-.74-.29-.23-.54-.52-.74-.84-.03-.06-.07-.12-.1-.18.08.18-.03-.12-.04-.16-.06-.25.02.19,0-.06,0-.05,0-.1,0-.15-.02.1-.02.12,0,.05.02-.06.03-.13.06-.19-.06.16.08-.14.11-.17.13-.16.28-.31.44-.44.35-.36.35-.92,0-1.28-.36-.34-.92-.34-1.28,0h0Z"/>
  <path class="cls-2" d="M34.84,57.67c-3.53-5.12-6.15-10.81-7.75-16.81-1.62-6.01-2.55-12.19-2.79-18.41-.12-1.61-.13-3.24-.05-4.85.08-1.38.6-2.71,1.48-3.78,1.71-2.06,4.03-3.5,6.41-4.67,5.39-2.64,11.33-4.33,17.21-5.44,3.3-.59,6.63-.98,9.98-1.17,3.47-.24,6.96-.28,10.44-.11,7,.35,13.94,1.21,20.63,3.34,2.81.89,5.56,1.97,8.22,3.24,2.36,1.14,4.74,2.53,6.4,4.6,1.93,2.41,2.12,5.54,1.84,8.49-.26,2.77-.61,5.54-1.02,8.29-.83,5.59-2,11.15-3.95,16.47-1.91,5.19-4.64,10.12-8.4,14.22-.96,1.04-1.98,2.03-3.05,2.97-.88.77.41,2.04,1.28,1.28,4.4-3.89,7.91-8.68,10.3-14.04,2.42-5.29,3.92-10.94,4.95-16.65.52-2.9.93-5.82,1.28-8.75.37-3.11.89-6.31.13-9.41-1.43-5.84-7.46-8.58-12.54-10.64-6.6-2.62-13.55-4.25-20.63-4.83-3.6-.37-7.21-.54-10.83-.5-3.59.09-7.21.29-10.78.73-6.46.77-12.8,2.39-18.84,4.79-2.5,1-5.02,2.13-7.21,3.71-1.25.87-2.38,1.9-3.34,3.08-.99,1.25-1.59,2.76-1.75,4.35-.13,1.65-.14,3.32,0,4.97.07,1.62.18,3.24.33,4.86.29,3.21.75,6.4,1.4,9.56,1.29,6.28,3.38,12.44,6.55,18.02.78,1.37,1.62,2.7,2.53,3.99.26.42.81.56,1.24.32.43-.26.57-.81.33-1.24h0Z"/>
  <path class="cls-2" d="M35.63,20.34s.05-.07.07-.1c.09-.11-.08.1.01-.01.05-.06.11-.13.16-.19.13-.15.27-.29.41-.43.25-.25.52-.48.81-.68.72-.51,1.49-.95,2.3-1.32,1.83-.8,3.73-1.41,5.68-1.82,3.92-.84,7.9-1.35,11.9-1.55,5.46-.36,10.93-.37,16.38-.05,2.79.13,5.56.42,8.31.87,1.59.3,3.16.69,4.71,1.15,1.86.53,3.67,1.21,5.41,2.04.79.38,1.54.83,2.26,1.34.05.03.09.06.13.1.07.05.13.11.19.16.14.12.28.25.41.39.11.12.22.24.33.37.06.08-.03-.03-.03-.04.03.04.06.08.08.12.04.07.09.14.13.21s.07.14.11.21c.08.15-.04-.14.01.02.05.14.09.28.12.43.14.48.63.76,1.12.63.48-.14.76-.63.63-1.11-.3-1.58-1.76-2.72-3.04-3.53-1.73-1.03-3.58-1.86-5.5-2.47-1.78-.61-3.59-1.12-5.43-1.52-2.29-.46-4.6-.77-6.92-.94-6.08-.52-12.2-.6-18.29-.24-4.08.18-8.15.64-12.16,1.39-2.12.39-4.21.98-6.22,1.75-1.74.7-3.47,1.57-4.81,2.9-.31.31-.59.65-.85,1.01-.25.43-.1.98.33,1.24.43.24.98.1,1.24-.32h0Z"/>
  <path class="cls-2" d="M108.11,25.19c3.49-.91,7.59-1,10.77.76,1.58.85,2.82,2.21,3.52,3.86.83,2.14,1.01,4.47.53,6.7-1,4.96-4.57,9.1-8.52,12.09-3,2.27-6.44,3.97-9.75,5.75-2.86,1.53-5.71,3.11-8.64,4.49-.06.03-.13.06-.19.09-.19.09.22-.09.06-.03-.47.14-.75.63-.63,1.11.14.48.63.76,1.12.63,1.01-.42,2-.91,2.95-1.44,1.74-.9,3.48-1.81,5.2-2.73,1.8-.96,3.59-1.92,5.37-2.91,1.64-.88,3.23-1.85,4.76-2.91,4.35-3.12,8.32-7.39,9.78-12.65,1.27-4.57.44-9.96-3.55-12.93-3.32-2.46-7.88-2.7-11.81-1.97-.49.09-.97.2-1.45.32-1.13.29-.65,2.04.48,1.75h0Z"/>
  <path class="cls-2" d="M106.98,33.67c1.14-.86,2.54-1.29,3.81-.65,1.09.57,1.84,1.62,2.03,2.83.22,1.47-.59,2.87-1.46,4.01-1.01,1.27-2.22,2.36-3.58,3.24-1.51,1-3.11,1.85-4.78,2.53-.47.15-.75.63-.63,1.11.14.48.63.76,1.12.63,3.54-1.47,7.06-3.45,9.41-6.55,1.1-1.46,1.97-3.22,1.74-5.09-.21-1.72-1.19-3.24-2.67-4.15-1.89-1.13-4.17-.78-5.88.51-.42.26-.56.8-.33,1.24.26.43.81.57,1.24.32h0Z"/>
</svg>