<?xml version="1.0" encoding="UTF-8"?>
<svg id="_レイヤー_2" data-name="レイヤー 2" xmlns="http://www.w3.org/2000/svg" viewBox="0 0 143 90">
  <defs>
    <style>
      .cls-1 {
        fill: #198634;
      }

      .cls-2 {
        fill: #ffb5b6;
      }

      .cls-3 {
        fill: #f2635f;
      }

      .cls-4 {
        fill: #ffda71;
      }

      .cls-5 {
        fill: #f4b467;
      }

      .cls-6 {
        fill: #3f2828;
      }

      .cls-7 {
        fill: #211715;
      }

      .cls-8 {
        fill: #72b512;
      }
    </style>
  </defs>
  <path class="cls-1" d="M69.74,70.22c.26-.73,1.25-1.59,2.12-2.16,1.83-1.19,3.34-1.78,5.9-1.94,3.28-.2,7.68.89,11.17,4.67.08.09.07.22-.01.3-.07.06-.17.07-.24.03-4.06-2.26-6.68-2.85-10.08-2.54-1.27.08-2.52.4-3.67.94-1.13.58-1.95,1.48-2.75,2.45-.4.48-1.37,1.39-2.5,1.18"/>
  <path class="cls-1" d="M65.13,30.81c-.05,1.56-.06,3.24.99,4.52.34.41.78.77,1.05,1.23.23.48.37,1,.4,1.53.03.54.21,1.06.5,1.51.33.44.95.63,1.56.63.72,0,1.23-.19,1.56-.63.29-.45.46-.97.5-1.51.03-.53.17-1.05.4-1.53.26-.45.71-.81,1.05-1.23,1.05-1.28,1.04-2.96.99-4.52"/>
  <path class="cls-6" d="M70.3,70.38c.22-.58.88-1.1,1.37-1.48.56-.42,1.16-.79,1.78-1.1,1.18-.59,2.46-.95,3.78-1.05,2.5-.23,5.02.25,7.26,1.39.73.37,1.43.81,2.09,1.3.32.24.63.5.93.77.17.15.33.31.49.46.08.07.15.15.22.22.05.05.1.1.15.15.11.15.12.09.02-.17l.15-.26.32-.07-.21-.12c-.1-.06-.21-.11-.31-.17-.17-.09-.33-.18-.5-.26-.35-.18-.7-.35-1.06-.52-.66-.31-1.33-.58-2.02-.81-1.19-.4-2.42-.65-3.67-.73-1.36-.08-2.72,0-4.06.26-1.55.27-2.99,1-4.13,2.08-.51.5-.93,1.09-1.44,1.59-.42.41-1.02.81-1.64.71-.31-.08-.63.1-.72.41-.08.31.1.63.41.72.8.12,1.61-.08,2.25-.57.56-.41.96-.94,1.41-1.45.51-.6,1.1-1.11,1.77-1.52.75-.41,1.56-.69,2.4-.84,2.79-.53,5.68-.21,8.29.92.79.34,1.57.73,2.32,1.14.41.22.81.49,1.26.2.37-.25.46-.75.21-1.12-.02-.03-.05-.07-.08-.1-.55-.62-1.16-1.18-1.82-1.68-.64-.51-1.32-.96-2.04-1.36-2.33-1.3-4.98-1.92-7.65-1.8-1.67.06-3.31.46-4.82,1.18-.75.37-1.47.82-2.13,1.33-.7.54-1.39,1.18-1.71,2.02-.08.31.1.63.41.72.31.08.63-.1.72-.41h0Z"/>
  <path class="cls-1" d="M69.49,59.49c-.26-.73-1.25-1.59-2.12-2.16-1.83-1.19-3.34-1.78-5.9-1.94-3.28-.2-7.68.89-11.17,4.67-.08.09-.07.22.02.3.07.06.16.07.24.03,4.06-2.26,6.68-2.85,10.08-2.54,1.27.08,2.52.4,3.67.94,1.13.58,1.95,1.48,2.75,2.45.4.48,1.37,1.39,2.5,1.18"/>
  <path class="cls-6" d="M70.05,59.33c-.32-.73-.83-1.36-1.47-1.83-.6-.48-1.24-.91-1.92-1.28-1.26-.69-2.64-1.14-4.07-1.31-2.72-.35-5.48.08-7.96,1.24-1.41.66-2.72,1.54-3.86,2.6-.32.28-.62.58-.9.89-.3.32-.29.83.04,1.14.03.03.06.05.1.08.45.29.85.02,1.26-.2.43-.23.86-.45,1.29-.67,1.31-.66,2.7-1.14,4.13-1.43,1.3-.23,2.62-.27,3.93-.13.96.07,1.91.28,2.82.61.83.33,1.57.84,2.19,1.48.54.55.98,1.21,1.58,1.69.68.61,1.59.89,2.5.76.31-.09.49-.41.41-.72-.09-.31-.41-.49-.72-.41-1.21.19-2.04-1.21-2.73-1.94-1.05-1.13-2.4-1.94-3.9-2.31-2.6-.64-5.32-.57-7.88.2-.74.23-1.46.51-2.17.83-.39.17-.77.35-1.14.54-.2.1-.4.2-.6.31-.1.05-.21.11-.31.16-.07.04-.14.08-.21.11-.2.08-.13.13.21.13l.15.26-.05.24c.05-.05.1-.1.15-.16.07-.08.15-.15.22-.23.15-.15.3-.29.45-.43.3-.27.61-.54.93-.79.57-.44,1.17-.83,1.8-1.17,1.15-.63,2.39-1.1,3.68-1.37,2.4-.52,5.14-.42,7.38.64.7.33,1.37.72,2,1.17.55.39,1.29.96,1.53,1.59.09.31.41.49.72.41.31-.09.49-.41.41-.72h0Z"/>
  <path class="cls-6" d="M69.05,40.51v48.67c0,.75,1.17.75,1.17,0v-48.67c0-.75-1.17-.75-1.17,0Z"/>
  <path class="cls-6" d="M64.55,30.81c-.05,1.55-.03,3.25.89,4.58.45.65,1.19,1.13,1.41,1.92.21.78.17,1.59.56,2.33.72,1.37,3.06,1.63,4.11.5.6-.64.68-1.48.81-2.3.04-.37.15-.73.34-1.06.23-.31.49-.6.77-.87,1.27-1.42,1.35-3.28,1.3-5.09-.02-.75-1.2-.75-1.17,0,.04,1.32.08,2.76-.68,3.91-.4.61-1.04,1.02-1.36,1.69-.34.71-.32,1.47-.51,2.22-.15.56-.45.94-1.05,1.01-.58.07-1.25-.03-1.54-.59-.32-.62-.26-1.38-.44-2.05-.21-.79-.74-1.3-1.27-1.89-1.06-1.17-1.03-2.82-.99-4.3.02-.75-1.15-.75-1.17,0h0Z"/>
  <path class="cls-6" d="M68.82,35.64c.07-.09.14-.17.22-.25.03-.04.07-.07.11-.11.02-.02.04-.04.07-.06.07-.07-.09.06-.04.03.05-.03.09-.06.14-.09.02-.01.05-.02.07-.03.06-.03-.13.05-.03.02.06-.02.12-.03.18-.05.07-.02-.14,0-.02,0,.04,0,.08,0,.12,0,.03,0,.07,0,.1,0,.1,0,.03.01-.02,0,.06.02.13.02.19.04.03.01.05.02.08.03-.13-.02-.08-.04-.02,0,.05.02.09.05.13.08.09.06-.1-.09-.02-.02.02.02.04.03.06.05.04.04.08.08.12.12.08.08.15.17.22.25.23.23.6.23.83,0,.22-.23.22-.6,0-.83-.18-.23-.38-.43-.62-.6-.63-.39-1.42-.4-2.05,0-.24.17-.45.37-.63.6-.23.23-.23.6,0,.83s.6.23.83,0c0,0,0,0,0,0h0Z"/>
  <path class="cls-3" d="M57.53,8.34c-1.67,1.04-3.71,1.32-4.26,3.02,0,0-.49,1.97-.91,3.63-5.04,2.7-6.37,7.59-5.13,9.1.79.97,4.02.69,4.48,2.32.67,3.98,8.06,2.87,10.24,1.84l.63-.3c1.82,1.98,4.72,4.2,7.79,4.34,1.75.08,3.45-.98,4.47-2.75,1.2.53,2.53.71,3.83.53,1.2-.23,2.28-.87,3.07-1.79.29.04.46.06.46.06,3.4.44,6.01-.11,7.77-1.2,2.74-1.71,3.4-4.76,1.73-7.43,2.05-2.35-2.38-3.94-5.13-4.88l-.75-.26c.93-1.1,1.5-2.46,1.62-3.89.05-.94-.45-1.83-1.28-2.28-1.65-.9-3.52-1.47-5.3-2.03l-.1-.03-2.3-.72c-.29-.92-.79-1.7-1.72-1.98-3.16-.93-6.54-.67-9.52.74-1-.89-2.55-1.2-4.99-.26-2.29.88-2.39,2.28-3.86,3.63-.25.23-.53.44-.82.62Z"/>
  <path class="cls-6" d="M52.08,14.48c-2.31,1.25-4.31,3.17-5.33,5.62-.57,1.36-1.07,3.71.4,4.71.81.55,1.9.62,2.82.92.39.1.74.29,1.03.58.11.12-.05-.09.04.05.03.05.06.09.08.14-.05-.11.02.06.02.07.01.06.02.11.03.17.06.24.14.48.25.71.84,1.79,3.05,2.28,4.84,2.35,1.14.04,2.28-.05,3.4-.27.89-.15,1.76-.4,2.58-.77.28-.16.37-.52.21-.8-.17-.27-.52-.37-.8-.21-.04.02-.26.11-.1.05-.06.03-.13.05-.19.07-.17.06-.35.12-.52.18-.38.11-.76.21-1.14.29-.88.19-1.77.29-2.66.3-.48.01-.96,0-1.44-.06-.41-.05-.81-.13-1.21-.24-.36-.09-.71-.24-1.03-.45-.28-.17-.53-.4-.72-.67-.05-.07-.09-.15-.13-.22-.02-.03-.11-.25-.07-.15-.08-.21-.11-.43-.18-.65-.16-.48-.49-.88-.92-1.14-.84-.54-1.88-.66-2.82-.94-.1-.03-.19-.06-.28-.09-.05-.02-.11-.04-.16-.06.02,0,.09.04,0,0-.09-.04-.18-.09-.26-.14-.03-.02-.05-.03-.08-.05.12.09-.02-.04-.04-.06-.11-.09.07.1,0,0-.01-.02-.03-.04-.04-.06-.04-.06-.07-.13-.1-.19-.02-.03-.04-.1.01.04-.01-.04-.03-.07-.04-.11-.02-.08-.05-.15-.07-.23,0-.04-.05-.25-.03-.17.01.1,0-.05,0-.05,0-.05,0-.09-.01-.14-.01-.19,0-.37,0-.56,0-.15.03-.3.06-.45.04-.23.1-.45.17-.68.75-2.43,2.79-4.42,5.05-5.63.66-.36.07-1.37-.59-1.01h0Z"/>
  <path class="cls-6" d="M86.4,15.38c1.28.44,2.56.88,3.74,1.55.14.08.27.16.4.25.1.07.28.2.32.22.11.09.21.18.31.27.05.05.09.09.14.14.02.02.14.18.08.09.07.09.13.2.18.3.05.1-.02-.07.01.04.02.06.03.12.05.18.02.09.01-.08,0,.05,0,.05,0,.11,0,.16,0-.12,0,.01-.02.06-.01.04-.06.18-.05.15-.14.28-.33.52-.56.72-.39.35-.82.65-1.27.9-.65.38-.06,1.39.59,1.01,1.29-.75,3.07-2.09,2.29-3.8-.31-.58-.77-1.07-1.33-1.42-.63-.42-1.31-.77-2.01-1.05-.83-.35-1.69-.66-2.54-.95-.72-.24-1.02.89-.31,1.13h0Z"/>
  <path class="cls-6" d="M91.39,20.35c.18.33.33.67.43,1.03.1.33.17.68.19,1.02.05.67-.07,1.34-.33,1.96-.65,1.46-1.96,2.43-3.5,2.96-1.2.39-2.45.59-3.72.57-.75,0-.76,1.17,0,1.17,2.29,0,4.67-.49,6.5-1.94,1.4-1.07,2.22-2.73,2.22-4.49-.02-1.01-.29-2-.78-2.88-.36-.66-1.37-.07-1.01.59h0Z"/>
  <path class="cls-6" d="M58.15,18.84c-1.4-.21-2.55-1.15-3.47-2.17-.92-1-1.64-2.16-2.11-3.43-.09-.31-.41-.49-.72-.41-.31.09-.49.41-.41.72.53,1.46,1.35,2.81,2.41,3.95,1.04,1.15,2.41,2.23,3.99,2.47.31.08.63-.1.72-.41.08-.31-.1-.63-.41-.72h0Z"/>
  <path class="cls-6" d="M62.37,19.72c1.55-.37,3.14-.51,4.72-.42,1.73.06,3.44.34,5.1.83.85.25,1.68.59,2.46,1.01.66.36,1.25-.65.59-1.01-1.56-.82-3.24-1.38-4.98-1.66-1.79-.32-3.62-.43-5.43-.31-.94.06-1.87.2-2.78.43-.73.19-.42,1.32.31,1.13Z"/>
  <path class="cls-6" d="M64.83,10.75c.72-.91,2.63-1.94,3.5-.69.19.28.67.44.92.12.7-.86,3.13-1.63,3.56-.15.21.72,1.35.41,1.13-.31-.34-1.15-1.4-1.74-2.57-1.66-1.04.07-2.28.45-2.96,1.29l.92.12c-.26-.42-.65-.75-1.1-.95-.5-.19-1.04-.23-1.56-.14-1.05.17-2.01.71-2.68,1.54-.22.23-.22.6,0,.83.23.23.6.23.83,0h0Z"/>
  <path class="cls-6" d="M53.84,11.52c.32-.95,1.36-1.39,2.25-1.79,1.13-.51,2.22-1.05,3.08-1.98.73-.8,1.21-1.8,2.08-2.46.59-.42,1.26-.72,1.96-.9.6-.19,1.23-.28,1.86-.26.48.02.95.15,1.36.4.38.24.7.56.94.93.42.62,1.43.04,1.01-.59-.57-.92-1.49-1.57-2.55-1.81-1.47-.3-3.07.12-4.4.76-.6.29-1.14.69-1.59,1.18-.41.46-.75.98-1.12,1.46-.35.48-.78.9-1.27,1.24-.55.36-1.14.67-1.74.92-1.26.57-2.53,1.19-3.01,2.59-.24.71.89,1.02,1.13.31Z"/>
  <path class="cls-6" d="M69.79,4.06c1.61-.42,3.29-.52,4.94-.28.46.07.91.16,1.36.28.36.06.7.2,1,.41.51.42.74,1.09.89,1.71.18.73,1.31.42,1.13-.31-.19-.79-.52-1.61-1.13-2.17-.73-.67-1.78-.85-2.72-1.01-1.93-.32-3.9-.24-5.79.25-.73.19-.42,1.32.31,1.13Z"/>
  <path class="cls-6" d="M80.59,6.89c.92.29,1.85.58,2.76.91.9.29,1.76.68,2.58,1.15,1.45.91.86,2.87.2,4.09-.45.84-1.07,1.58-1.82,2.18-.23.23-.23.6,0,.83.23.22.6.22.83,0,1.56-1.25,2.58-3.05,2.84-5.03.12-.95-.19-1.91-.86-2.6-.71-.73-1.81-1.1-2.74-1.47-1.14-.45-2.31-.81-3.49-1.18-.72-.23-1.03.9-.31,1.13h0Z"/>
  <path class="cls-6" d="M78.34,9.58c-1.79,2.24-4.12,4.48-7.18,4.47-.75,0-.76,1.17,0,1.17,3.39.01,6.02-2.32,8.01-4.81.22-.23.22-.6,0-.83-.23-.23-.6-.23-.83,0h0Z"/>
  <path class="cls-6" d="M81.34,23.9c.59.63.96,1.44.79,2.32-.21.9-.72,1.7-1.45,2.27-1.64,1.38-3.8,1.25-5.68.48-.31-.08-.63.1-.72.41-.08.31.1.63.41.72,1.82.74,3.93.92,5.71-.02,1.56-.82,2.91-2.43,2.94-4.26-.01-1.03-.43-2.02-1.17-2.75-.52-.55-1.34.28-.83.83Z"/>
  <path class="cls-6" d="M61.1,27.09c1.37,1.84,3.1,3.37,5.08,4.51,2.06,1.14,4.65,1.84,6.82.61,1.18-.7,2.11-1.76,2.66-3.02.15-.28.06-.63-.21-.8-.28-.16-.64-.07-.8.21-.41.98-1.09,1.81-1.96,2.42-.8.53-1.75.76-2.7.65-2.14-.21-4.13-1.47-5.7-2.86-.8-.7-1.53-1.48-2.18-2.32-.17-.27-.52-.36-.8-.21-.28.16-.37.52-.21.8h0Z"/>
  <path class="cls-6" d="M22.85,38.52v50.37c0,.87,1.45.87,1.45,0v-50.37c0-.87-1.45-.87-1.45,0Z"/>
  <path class="cls-8" d="M17.96,34.55c.9,2.39,1.87,4.36,2.67,5.19.83.85,4.71,1.02,6-.19.66-.62,1.93-3.14,2.94-5.37-.35.09-.7.19-1.08.28-2.11.41-7.42.56-10.54.1Z"/>
  <path class="cls-6" d="M17.13,34.39c.61,1.65,1.26,3.34,2.21,4.83.28.51.66.95,1.12,1.3.44.26.93.42,1.44.49,1.28.24,2.6.18,3.85-.18.55-.15,1.06-.44,1.47-.83.37-.42.69-.88.95-1.37.89-1.58,1.69-3.21,2.39-4.87.19-.35.07-.78-.26-.99-.35-.2-.79-.08-.99.26-.61,1.39-1.25,2.77-1.97,4.11-.28.54-.58,1.05-.92,1.56-.03.04-.17.23-.08.12-.06.07-.11.14-.18.2-.03.03-.05.05-.08.08-.16.14.06-.04-.04.03-.11.07-.22.14-.34.2-.19.08-.38.14-.58.19-.25.06-.5.11-.75.14-.57.06-1.14.07-1.7.01-.43-.04-.86-.13-1.27-.28-.05-.03-.11-.06-.17-.09-.17-.09.02.06-.07-.05-.15-.16-.28-.32-.4-.5-.99-1.44-1.63-3.12-2.23-4.75-.12-.38-.51-.6-.89-.5-.38.11-.61.5-.5.89h0Z"/>
  <path class="cls-8" d="M23.1,51.43c-.88-.92-2.49-1.89-3.9-2.6-2.88-1.44-7.5-3.49-8.57-3.22-.13.05-.23.16-.26.3-.19.87.33,2.95,1.12,4.29.79,1.36,1.75,2.62,2.86,3.74,1.13,1.13,2.24,2.31,4.59,2.89,1.4.35,4.3-.69,4.84-3.01,1.17,1.39,3.33,1.17,4.51.67,2.24-.95,3.14-2.29,4.08-3.58.92-1.28,1.67-2.67,2.23-4.14.56-1.45.75-3.59.43-4.41-.05-.13-.16-.23-.3-.25-1.1-.1-5.05,2.9-7.67,4.77-1.27.91-3.25,2.61-3.92,4.59-.01-.01-.02-.03-.04-.04Z"/>
  <path class="cls-6" d="M23.61,50.92c-1.06-1.08-2.43-1.88-3.77-2.57-1.16-.6-2.34-1.14-3.53-1.67-1.17-.53-2.36-1.01-3.58-1.42-.72-.23-1.84-.67-2.57-.24-.58.35-.6,1.11-.54,1.71.07.65.2,1.3.41,1.93.49,1.42,1.23,2.74,2.17,3.91,1.66,2.17,3.74,4.26,6.47,4.94,2.37.58,5.22-1.15,5.79-3.5l-1.21.32c1.79,2.04,4.95,1.31,6.91-.04.98-.72,1.84-1.6,2.53-2.61.91-1.22,1.67-2.53,2.27-3.93.57-1.28.89-2.66.93-4.06.03-.52-.03-1.04-.18-1.53-.25-.67-.86-.88-1.51-.72-.9.22-1.75.8-2.51,1.29-1.09.7-2.15,1.46-3.2,2.22-2.37,1.71-5.04,3.43-6.06,6.32l1.21-.32-.04-.04c-.64-.68-1.66.35-1.02,1.02l.04.04c.29.28.75.27,1.03-.02.08-.08.14-.19.17-.3.74-2.1,2.69-3.5,4.42-4.75,1.78-1.29,3.55-2.67,5.49-3.71.16-.08.32-.17.49-.24.11-.05-.06.02.11-.04.07-.02.14-.04.2-.07.03,0,.06-.01.09-.02.11-.05-.04.02-.06,0,.01,0,.07,0,.08,0,.19.05-.23-.65-.31-.22,0,.06.05.17.06.23.02.08.03.16.03.25.07,1.1-.08,2.21-.45,3.25-.46,1.3-1.09,2.53-1.86,3.66-.55.88-1.2,1.69-1.93,2.43-1.41,1.34-4.32,2.7-5.91.88-.29-.28-.75-.27-1.03.01-.08.09-.15.19-.18.31-.23.86-.82,1.58-1.61,1.99-.66.4-1.43.59-2.2.54-.11,0,.11.02,0,0-.04,0-.08-.01-.12-.02-.16-.04-.32-.08-.48-.13-.31-.09-.61-.2-.9-.33-.51-.23-.99-.52-1.43-.86-.85-.68-1.62-1.45-2.32-2.28-.93-1.02-1.69-2.18-2.28-3.43-.23-.53-.41-1.08-.53-1.64-.06-.23-.1-.46-.13-.69.01-.23,0-.46-.02-.68.02.07-.04.03,0,.03v-.03c-.04.12-.14.2-.27.2,0,.03-.11,0,0,0,.03,0,.06,0,.09,0,.06,0,.13,0,.19.01.08,0-.05,0-.06,0,.06,0,.12.02.18.03.39.08.78.19,1.16.32,1.01.33,2,.73,2.98,1.16,1.2.52,2.39,1.08,3.56,1.67,1.31.66,2.67,1.4,3.7,2.45.65.66,1.67-.36,1.02-1.02Z"/>
  <path class="cls-6" d="M22.43,66.82h.96c.19,0,.37-.08.51-.21.13-.14.2-.32.21-.51,0-.19-.08-.37-.21-.51-.14-.13-.32-.21-.51-.21h-.96c-.19,0-.37.08-.51.21-.13.14-.2.32-.21.51,0,.19.08.37.21.51.14.13.32.21.51.21Z"/>
  <path class="cls-6" d="M23.68,75.22h.96c.19,0,.37-.08.51-.21.13-.14.2-.32.21-.51,0-.19-.08-.37-.21-.51-.14-.13-.32-.21-.51-.21h-.96c-.19,0-.37.08-.51.21-.13.14-.2.32-.21.51,0,.19.08.37.21.51.14.13.32.21.51.21Z"/>
  <path class="cls-2" d="M14.78,34.32c-1.29-.26-2.44-.99-3.21-2.05-1.44-1.86-2.33-3.48-3.5-5.52-.71-1.24-1.92-2.84-2.7-4.05-1.28-1.97-2.26-3.68-3.55-5.29-.43-.53-.71-1.27-.55-1.76.13-.4.69-.81,1.1-.99,1.5-.67,3.62-.62,5.01-.24l.75.27c-.15-.49-.27-.98-.36-1.48-.27-1.64-.11-2.47.34-3.05.47-.6,1.54-.8,2.29-.93l5.57-.96,3.73-1c1.46-1.47,3.59-2.06,5.6-1.57,1.34.35,2.5,1.15,3.72,1.8,3.13,1.66,6.17,2.19,9.39,2.48.62.03.94.07,1.18.47.07.17.11.35.11.53l3.27,1.44c.21.68.53,1.31.95,1.88.95,1.25,1.08,2.27.07,3.19l-.67.67c-.48.4-.91.87-1.28,1.38-.49.81-.9,1.66-1.22,2.54-1.28,3.28-2.61,6.27-5.12,8.65-2.48,2.35-4.4,3.05-7.19,3.72-2.26.44-8.22.59-11.18-.02"/>
  <path class="cls-6" d="M7.56,13.73c-.94-.24-1.92-.34-2.89-.29-1.01.01-2,.26-2.9.72-.49.25-.88.65-1.13,1.14-.18.46-.18.96-.01,1.42.18.5.46.96.8,1.37.34.43.66.88.96,1.33,1.25,1.83,2.39,3.74,3.65,5.56,1.22,1.76,2.2,3.65,3.35,5.45,1.27,2.01,2.71,4.1,5.2,4.59.38.1.77-.13.89-.5.1-.38-.12-.78-.5-.89-.81-.15-1.56-.52-2.17-1.07-.68-.68-1.28-1.45-1.78-2.27-1.08-1.62-1.94-3.37-3.01-4.99-1.1-1.67-2.25-3.31-3.32-5-.54-.85-1.09-1.7-1.69-2.52-.31-.42-1.28-1.38-1.03-1.93.15-.33.68-.54,1-.65.46-.15.93-.25,1.41-.29.94-.09,1.89-.02,2.8.22.9.24,1.28-1.15.38-1.39h0Z"/>
  <path class="cls-6" d="M10.92,19.69c-.54-1.01-1.01-2.06-1.41-3.13-.43-1.07-.77-2.18-1.02-3.31-.12-.59-.17-1.19-.13-1.78.02-.19.06-.38.13-.56.04-.11-.04.08,0-.02.02-.04.04-.08.06-.12s.14-.21.11-.17c.35-.39.99-.5,1.48-.6.66-.13,1.32-.23,1.98-.34l4.02-.69c.38-.11.61-.5.5-.89-.11-.38-.51-.6-.89-.5l-3.87.66c-.71.12-1.43.23-2.13.37-.69.1-1.34.37-1.91.78-.94.76-1.03,2.09-.91,3.21.16,1.27.48,2.51.93,3.71.49,1.42,1.09,2.79,1.79,4.12.45.81,1.7.09,1.25-.73h0Z"/>
  <path class="cls-6" d="M17.12,35.14c2.5.5,5.14.49,7.68.39,1.15-.03,2.29-.13,3.43-.29,1.29-.21,2.54-.58,3.74-1.11,2.79-1.18,5.11-3.4,6.73-5.93.82-1.33,1.53-2.72,2.11-4.17.6-1.43,1.04-3.08,2-4.32.75-.98,2.08-1.66,2.49-2.88.27-.79.02-1.63-.38-2.32-.22-.38-.51-.71-.73-1.08-.22-.38-.39-.77-.53-1.18-.3-.87-1.69-.5-1.39.38.23.72.56,1.4.99,2.01.33.45.79,1.05.69,1.63-.07.42-.45.7-.74.99-.35.34-.71.67-1.06,1.02-1.14,1.17-1.68,2.74-2.28,4.22-.53,1.37-1.15,2.71-1.85,4-1.4,2.49-3.42,4.71-6,6.02-1.15.55-2.36.96-3.61,1.22-.38.09-.77.15-1.17.18-.55.06-1.1.1-1.66.13-1.43.08-2.87.1-4.3.05-1.27-.01-2.54-.13-3.79-.35-.38-.1-.77.13-.89.5-.1.38.12.78.5.89h0Z"/>
  <path class="cls-6" d="M31,12.61c.11.7.02,1.42-.26,2.07-.31.62-.75,1.17-1.29,1.61-.55.5-1.02,1.13-.88,1.91.14.76.85,1.35,1.48,1.74,1.39.83,3.06,1.04,4.61.59.82-.27,1.58-.69,2.24-1.24.58-.5,1.09-1.08,1.5-1.72.84-1.22,1.45-2.58,1.8-4.01.22-.87.29-1.76.19-2.65-.09-.78-.46-1.41-1.28-1.56-.82-.15-1.67-.16-2.49-.26s-1.64-.25-2.45-.43c-1.74-.39-3.41-1.01-4.98-1.85-1.66-.9-3.26-1.95-5.22-1.98-1.8-.02-3.53.68-4.81,1.95-.66.66.37,1.68,1.02,1.02.92-.92,2.14-1.46,3.44-1.52,1.48-.06,2.73.59,3.98,1.3,1.39.81,2.86,1.48,4.39,1.99,1.53.47,3.1.8,4.68.98.69.09,1.4.13,2.09.21.14.02.16.05.17.07.08.38.09.77.05,1.16-.11,1.37-.53,2.7-1.22,3.89-.63,1.14-1.41,2.18-2.55,2.84-1.15.67-2.54.79-3.78.32-.34-.12-.66-.3-.94-.52-.17-.13-.49-.37-.52-.59,0,.04.03-.09.05-.13.07-.11.15-.21.25-.3.24-.24.51-.45.75-.69,1.16-1.22,1.66-2.91,1.36-4.56-.11-.38-.5-.61-.89-.5-.38.11-.6.5-.5.89h0Z"/>
  <path class="cls-6" d="M13.86,13.11c1.12.59,2.09,1.43,2.83,2.46l1.13-.87-.19-.23v1.02c2.21-2.46,6.18-2.85,8.84-.91.35.2.79.08.99-.26.19-.35.08-.78-.26-.99-3.16-2.3-7.99-1.77-10.59,1.13-.27.29-.27.73,0,1.02l.19.23c.51.63,1.61-.21,1.13-.87-.87-1.24-2.01-2.26-3.35-2.98-.82-.44-1.55.81-.73,1.25h0Z"/>
  <path class="cls-6" d="M13.51,21.72c2.79-.78,5.88-.16,8.58.68,1.29.39,2.55.89,3.76,1.49.91.45,2.03,1,2.53,1.83.14.22.23.46.27.72.05.28.05.57.02.86-.12.84-.36,1.65-.71,2.42-.1.38.12.78.51.89.38.1.77-.13.89-.5.57-1.36,1.09-2.99.57-4.45-.46-1.28-1.56-2.04-2.71-2.67-2.73-1.48-5.71-2.45-8.8-2.87-1.76-.28-3.56-.21-5.3.23-.89.25-.51,1.64.38,1.39h0Z"/>
  <path class="cls-7" d="M33.81,24.18s-.1.14-.04.05-.04.05-.05.05c-.05.06-.11.13-.17.19-.12.13-.25.25-.39.36-.04.03-.08.07-.12.1.08-.06.02-.01-.03.02-.08.06-.16.11-.24.17-.17.12-.35.22-.53.33-.18.1-.35.19-.54.27-.05.02-.1.05-.15.07s-.08.03-.01,0c-.1.04-.21.08-.31.12-.38.14-.78.24-1.18.31-.38.11-.61.5-.5.89.12.38.51.6.89.5.91-.16,1.79-.48,2.59-.95.79-.43,1.48-1.02,2.02-1.75.2-.34.08-.78-.26-.99-.35-.19-.78-.08-.99.26h0Z"/>
  <path class="cls-6" d="M118.04,48.75c.03,4.96,0,9.93-.07,14.89-.07,5.16-.18,10.33-.32,15.49-.07,2.6-.15,5.21-.25,7.81-.03.83,1.26.82,1.29,0,.17-4.82.31-9.65.41-14.47.11-5.2.19-10.4.23-15.6.02-2.71.02-5.41,0-8.12,0-.83-1.29-.83-1.29,0h0Z"/>
  <path class="cls-6" d="M112.79,70.37c1.77.75,3.42,1.74,4.92,2.94.26.24.65.24.91,0,.25-.25.25-.66,0-.91-1.57-1.28-3.31-2.34-5.18-3.14-.31-.17-.69-.07-.88.23-.18.31-.07.7.23.88h0Z"/>
  <path class="cls-6" d="M119.24,66.29c1.56-2.48,3.61-4.61,6.03-6.27.3-.18.4-.57.23-.88-.18-.3-.57-.41-.88-.23-2.6,1.77-4.81,4.06-6.49,6.73-.44.7.67,1.35,1.11.65Z"/>
  <path class="cls-4" d="M121.35,34.95c.03,2.54.77,5.03,2.14,7.18,1.07,1.67,2.7,3.03,4.82,3.48.93.23,1.91.15,2.78-.23.88-.45,1.56-1.2,1.93-2.11.31-.82.41-1.7.29-2.57-.34-2.84-2.29-5.5-4.56-7.1-.84-.58-1.75-1.04-2.72-1.37l-4.69,2.73Z"/>
  <path class="cls-4" d="M115.44,14.92c-.03-2.54-.77-5.03-2.14-7.18-1.07-1.67-2.7-3.03-4.82-3.48-.93-.23-1.91-.15-2.78.23-.88.45-1.56,1.2-1.93,2.11-.31.82-.41,1.7-.29,2.57.34,2.84,2.29,5.51,4.56,7.1.84.58,1.75,1.04,2.72,1.37l4.69-2.73Z"/>
  <path class="cls-8" d="M106.91,73.07c.75.02,1.51-.08,2.23-.3.79-.23,1.51-.63,2.13-1.17.28-.29.54-.59.78-.91.78-.86,1.27-2.37,1.18-3.35-.12-.74-.37-1.46-.73-2.12-.24-.4-.53-.77-.87-1.09-.65-.67-1.41-1.24-2.24-1.67-1.67-.87-3.57-1.21-5.44-.97-3.67.51-6.85,3.16-8.49,6.48,1.95.8,3.69,2.02,5.52,3.07s3.82,1.95,5.92,2.02Z"/>
  <path class="cls-8" d="M130.94,62.2c-1.19.16-2.39-.01-3.49-.48-.73-.32-1.37-.8-1.87-1.41-.54-.58-.95-1.27-1.23-2.01-.17-.77-.19-1.56-.04-2.33.19-.85.58-1.64,1.15-2.31.59-.72,1.29-1.34,2.08-1.84,1.57-1,3.4-1.49,5.25-1.42,3.7.16,7.11,2.51,9.06,5.66-1.86.98-3.49,2.36-5.21,3.57s-3.62,2.3-5.71,2.56Z"/>
  <path class="cls-4" d="M114.93,34.78c-1.46,2.08-2.31,4.53-2.46,7.07-.1,1.98.42,4.03,1.88,5.64.62.73,1.46,1.23,2.4,1.43.97.15,1.97-.07,2.8-.59.73-.48,1.33-1.14,1.74-1.92,1.38-2.51,1.36-5.8.45-8.42-.34-.96-.81-1.87-1.4-2.7l-5.4-.52Z"/>
  <path class="cls-4" d="M121.85,15.08c1.46-2.08,2.31-4.53,2.46-7.07.1-1.98-.42-4.03-1.88-5.64-.62-.73-1.46-1.23-2.4-1.43-.97-.15-1.97.06-2.8.59-.73.48-1.33,1.14-1.74,1.92-1.38,2.51-1.36,5.8-.45,8.42.34.96.81,1.87,1.4,2.7l5.4.52Z"/>
  <path class="cls-4" d="M109.76,30.82c-2.41.81-4.55,2.28-6.18,4.24-1.26,1.53-2.05,3.5-1.83,5.65.06.95.44,1.86,1.08,2.57.7.69,1.62,1.11,2.61,1.18.88.05,1.75-.13,2.54-.52,2.6-1.2,4.54-3.87,5.36-6.52.3-.97.46-1.99.47-3l-4.05-3.61Z"/>
  <path class="cls-4" d="M127.03,19.04c2.41-.81,4.55-2.28,6.18-4.24,1.26-1.53,2.05-3.5,1.83-5.65-.06-.95-.44-1.86-1.08-2.57-.7-.69-1.62-1.11-2.61-1.18-.88-.05-1.75.13-2.54.52-2.6,1.2-4.54,3.87-5.36,6.52-.3.97-.46,1.99-.47,3l4.05,3.61Z"/>
  <path class="cls-4" d="M107.94,24.55c-2.43-.78-5.02-.86-7.5-.25-1.92.49-3.73,1.6-4.83,3.47-.52.81-.75,1.76-.66,2.71.15.97.65,1.86,1.4,2.49.68.56,1.49.93,2.35,1.09,2.81.57,5.95-.42,8.19-2.07.82-.61,1.55-1.33,2.17-2.14l-1.11-5.3Z"/>
  <path class="cls-4" d="M128.84,25.31c2.43.78,5.02.86,7.5.25,1.92-.49,3.73-1.6,4.83-3.47.52-.8.75-1.76.66-2.71-.15-.97-.65-1.86-1.4-2.49-.68-.56-1.49-.93-2.35-1.09-2.81-.57-5.95.42-8.19,2.07-.82.61-1.55,1.33-2.17,2.14l1.11,5.3Z"/>
  <path class="cls-4" d="M110.17,18.48c-1.5-2.05-3.55-3.65-5.91-4.61-1.84-.74-3.96-.9-5.95-.04-.89.35-1.64.98-2.13,1.8-.45.87-.57,1.88-.34,2.84.22.85.65,1.63,1.26,2.26,1.93,2.12,5.06,3.16,7.84,3.14,1.02-.01,2.03-.16,3.01-.45l2.23-4.94Z"/>
  <path class="cls-4" d="M126.62,31.38c1.5,2.05,3.55,3.65,5.91,4.61,1.84.74,3.96.9,5.95.04.89-.35,1.64-.98,2.13-1.8.45-.87.57-1.88.34-2.84-.22-.85-.65-1.63-1.26-2.26-1.93-2.12-5.06-3.16-7.84-3.14-1.02.01-2.03.16-3.01.45l-2.23,4.94Z"/>
  <path class="cls-5" d="M119.05,13.14c-6.93-.39-12.01,4.7-12.36,10.97-.39,7.01,4.23,12.11,11.05,12.49,7.09.4,11.99-4.22,12.38-11.18.35-6.31-4.16-11.89-11.06-12.28Z"/>
  <path class="cls-6" d="M106.91,73.71c1.32.04,2.63-.27,3.78-.91.52-.28.98-.65,1.37-1.1.37-.42.71-.86,1.02-1.33.55-.89.83-1.91.81-2.96-.05-.57-.19-1.12-.42-1.64-.2-.54-.48-1.04-.82-1.5-1.62-1.95-3.95-3.18-6.47-3.45-2.26-.22-4.53.32-6.45,1.53-2.06,1.28-3.73,3.11-4.81,5.29-.17.32-.06.72.26.89.04.02.08.04.12.05,1.97.82,3.72,2.08,5.57,3.13,1.86,1.05,3.88,1.9,6.04,1.99.83.03.83-1.25,0-1.28-2.06-.08-3.95-.98-5.7-1.99-1.84-1.06-3.6-2.25-5.57-3.08l.38.94c1.64-3.29,4.89-6.05,8.69-6.24,2.2-.11,4.35.63,6.01,2.07.41.34.77.73,1.08,1.15.24.38.43.79.57,1.22.29.8.27,1.68-.05,2.47-.16.44-.39.86-.69,1.22-.33.46-.73.87-1.17,1.22-1.05.7-2.29,1.05-3.56,1-.83-.02-.83,1.26,0,1.28Z"/>
  <path class="cls-6" d="M128.14,58.28c.55-.32,1.14-.57,1.75-.76.66-.21,1.34-.37,2.02-.48.34-.1.54-.45.45-.79-.1-.33-.45-.53-.79-.45-1.43.2-2.81.66-4.07,1.36-.31.18-.41.57-.23.88.18.31.57.41.88.23h0Z"/>
  <path class="cls-6" d="M130.94,61.56c-1.07.15-2.16.01-3.17-.4-.88-.4-1.63-1.04-2.17-1.85-.3-.38-.52-.81-.66-1.28-.09-.41-.12-.84-.08-1.26.06-1.02.45-1.99,1.12-2.76,1.38-1.62,3.32-2.67,5.43-2.93,1.87-.2,3.77.18,5.42,1.09,1.83.99,3.37,2.44,4.46,4.21l.23-.88c-1.88,1-3.52,2.38-5.25,3.61-1.59,1.12-3.37,2.18-5.34,2.44-.35.01-.63.29-.64.64,0,.31.3.69.64.64,2.14-.29,4.04-1.27,5.8-2.49,1.81-1.25,3.49-2.7,5.44-3.74.3-.18.41-.57.23-.88-2.24-3.6-6.39-6.35-10.76-5.96-2.44.21-4.71,1.32-6.38,3.11-.86.89-1.43,2.02-1.63,3.24-.15,1.12-.08,2.21.47,3.21.62,1.17,1.56,2.14,2.72,2.78,1.27.64,2.7.89,4.11.71.35-.01.63-.29.64-.64,0-.35-.29-.64-.64-.64Z"/>
  <path class="cls-6" d="M120.79,36.32c.04.31.08.62.13.93.03.15.05.29.08.44.03.17.07.28.09.35.12.53.27,1.06.46,1.58.38,1.09.9,2.12,1.55,3.08,1.1,1.67,2.76,2.89,4.69,3.44,1.08.29,2.27.36,3.32-.07.99-.42,1.81-1.16,2.3-2.12,1.07-2.03.54-4.52-.44-6.48-1.16-2.26-3-4.09-5.26-5.24-.74-.37-1.39.73-.65,1.11,1.75.88,3.23,2.22,4.28,3.87.95,1.51,1.71,3.5,1.26,5.29-.2.84-.7,1.58-1.41,2.08-.79.49-1.74.64-2.65.42-1.64-.36-3.1-1.29-4.1-2.64-.64-.86-1.16-1.8-1.54-2.81-.21-.54-.36-1.09-.52-1.64-.03-.12.02-.14-.02-.05.01.11.01.1,0,0,0-.05-.01-.1-.03-.15-.03-.17-.07-.33-.11-.5-.06-.3-.11-.6-.14-.9-.01-.35-.29-.63-.64-.64-.35,0-.64.29-.64.64h0Z"/>
  <path class="cls-6" d="M115.99,13.47c-.12-1.1-.37-2.18-.75-3.22-.38-1.09-.9-2.12-1.55-3.08-1.11-1.68-2.79-2.91-4.74-3.46-1.09-.33-2.26-.29-3.32.11-1,.43-1.82,1.21-2.3,2.18-1.01,2.04-.48,4.49.51,6.43,1.17,2.25,3.01,4.07,5.28,5.22.74.37,1.39-.74.65-1.11-1.73-.87-3.21-2.18-4.26-3.8-.98-1.51-1.76-3.51-1.33-5.33.19-.85.68-1.6,1.38-2.11.78-.5,1.73-.67,2.64-.46,1.66.35,3.13,1.28,4.15,2.63.65.86,1.17,1.81,1.55,2.82.21.54.36,1.09.52,1.64.03.12-.02.14.02.05-.01-.11-.01-.1,0,0,0,.05.01.1.03.14.03.16.07.32.1.47.06.28.1.57.14.85.01.35.29.63.64.64.35,0,.64-.29.64-.64h0Z"/>
  <path class="cls-6" d="M113.66,35.6c-2.1,3.75-2.89,9.08.34,12.45.75.82,1.76,1.36,2.86,1.53,1.13.12,2.26-.17,3.19-.82,1.8-1.26,2.63-3.48,2.88-5.59.14-1.24.09-2.49-.15-3.71-.05-.27-.11-.54-.18-.81-.04-.16-.09-.32-.14-.48-.02-.08-.05-.16-.08-.23-.05-.11-.08-.12-.04,0-.12-.35-.22-.7-.37-1.04-.12-.28-.26-.56-.41-.83-.4-.73-1.51-.08-1.11.65.23.42.39.85.59,1.28,0,0-.04-.18.03.03,0,.03.02.1.03.13.04.14.09.27.13.41.08.26.15.52.21.78.2.89.3,1.8.28,2.71-.04,1.76-.5,3.74-1.73,5.06-.61.67-1.44,1.1-2.34,1.2-.89.07-1.77-.25-2.42-.86-1.35-1.2-2.06-2.99-2.13-4.77-.04-2.26.53-4.48,1.66-6.44.4-.72-.71-1.37-1.11-.65h0Z"/>
  <path class="cls-6" d="M123.17,14.18c2.06-3.76,2.83-9.06-.42-12.41-.74-.81-1.74-1.33-2.83-1.49-1.13-.12-2.26.17-3.19.82-1.78,1.25-2.61,3.45-2.88,5.53-.15,1.22-.1,2.45.12,3.66.05.27.11.53.17.8.04.16.08.32.13.48.02.08.05.16.07.24l.04.12c.03.14.05.16.04.06v-.06s.02.17.02.17c.03.1.07.19.11.29.06.16.13.32.2.48.13.29.26.57.41.85.39.73,1.5.08,1.11-.65-.44-.81-.76-1.68-.95-2.58-.2-.9-.29-1.82-.27-2.74.04-1.76.52-3.73,1.77-5.04.6-.65,1.42-1.06,2.3-1.16.89-.07,1.77.24,2.42.86,1.31,1.23,2.08,2.93,2.13,4.72.1,2.22-.55,4.49-1.61,6.42-.4.72.71,1.37,1.11.65h0Z"/>
  <path class="cls-6" d="M108.07,30.8c-3.93,1.84-7.63,5.74-6.9,10.38.14,1.1.68,2.11,1.52,2.84.86.7,1.94,1.09,3.05,1.09,2.18,0,4.23-1.38,5.64-2.95.78-.87,1.43-1.85,1.93-2.9.26-.54.47-1.09.65-1.66.22-.6.35-1.23.4-1.87,0-.83-1.29-.83-1.29,0,0-.15-.02.1-.02.15-.02.13-.04.26-.07.39-.06.27-.12.54-.2.81-.12.41-.26.81-.43,1.2-.36.84-.83,1.64-1.38,2.37-1.07,1.41-2.6,2.69-4.36,3.08-.88.2-1.81.07-2.61-.37-.77-.45-1.31-1.21-1.49-2.08-.44-1.84.13-3.79,1.19-5.31,1.23-1.78,3.09-3.16,5.04-4.07.3-.18.41-.57.23-.88-.18-.3-.57-.4-.88-.23h0Z"/>
  <path class="cls-6" d="M128.7,19.07c3.93-1.83,7.6-5.7,6.92-10.34-.13-1.08-.64-2.08-1.44-2.83-.86-.73-1.94-1.14-3.07-1.16-2.17-.04-4.22,1.33-5.63,2.88-.8.88-1.46,1.87-1.98,2.94-.25.52-.47,1.06-.64,1.61-.23.6-.37,1.24-.41,1.88,0,.83,1.29.83,1.29,0,0,.14.02-.11.03-.16.02-.13.05-.26.08-.4.06-.28.13-.56.21-.83.12-.4.26-.8.43-1.18.37-.84.84-1.63,1.4-2.36,1.08-1.39,2.6-2.64,4.35-3.01.89-.19,1.81-.05,2.6.4.76.46,1.29,1.23,1.46,2.11.42,1.83-.15,3.75-1.2,5.26-1.24,1.79-3.1,3.17-5.05,4.08-.3.18-.41.57-.23.88.18.3.57.4.88.23h0Z"/>
  <path class="cls-6" d="M106.85,23.59c-4.15-.89-9.35-.14-11.74,3.76-.65.99-.92,2.18-.77,3.35.18,1.04.72,1.99,1.52,2.69,1.7,1.49,4.16,1.67,6.3,1.31,2.44-.42,4.68-1.59,6.43-3.34.58-.59-.33-1.5-.91-.91-1.34,1.34-3.01,2.3-4.84,2.78-1.69.46-3.74.58-5.34-.26-.79-.4-1.41-1.08-1.74-1.9-.31-.87-.23-1.84.22-2.65.8-1.51,2.13-2.66,3.75-3.23,2.18-.75,4.53-.87,6.77-.37.81.17,1.15-1.06.34-1.24h0Z"/>
  <path class="cls-6" d="M129.1,19.42c1.34-1.34,3.02-2.31,4.85-2.79,1.69-.46,3.74-.58,5.34.26.79.4,1.41,1.08,1.74,1.9.31.87.23,1.84-.22,2.65-.8,1.51-2.13,2.66-3.75,3.23-2.19.75-4.54.87-6.79.36-.81-.17-1.15,1.07-.34,1.24,4.16.89,9.36.15,11.76-3.76.65-.99.92-2.17.77-3.35-.18-1.04-.72-1.99-1.52-2.69-1.7-1.49-4.16-1.67-6.3-1.31-2.44.43-4.69,1.6-6.44,3.35-.58.59.33,1.5.91.91h0Z"/>
  <path class="cls-6" d="M109.7,16.9c-1.61-1.78-3.65-3.11-5.92-3.87-2.14-.67-4.65-.56-6.58.66-.93.57-1.62,1.45-1.94,2.49-.31,1.08-.23,2.24.22,3.27.8,1.86,2.59,3.23,4.4,4.02,2.2.97,4.63,1.27,6.99.87.34-.1.54-.45.45-.79-.1-.34-.45-.53-.79-.45-1.77.29-3.59.13-5.29-.47-1.59-.54-3.21-1.51-4.17-2.92-1.01-1.48-1.02-3.55.48-4.71,1.49-1.15,3.61-1.31,5.37-.87,2.25.57,4.3,1.99,5.85,3.68.56.61,1.47-.3.91-.91h0Z"/>
  <path class="cls-6" d="M127.11,33c1.6,1.76,3.63,3.08,5.89,3.84,2.14.67,4.65.56,6.58-.66.94-.57,1.64-1.48,1.95-2.54.29-1.08.2-2.22-.25-3.24-.81-1.88-2.65-3.25-4.49-4.03-2.18-.94-4.59-1.23-6.93-.82-.34.1-.54.45-.45.79.1.34.45.53.79.45,1.76-.29,3.58-.14,5.27.44,1.58.53,3.18,1.47,4.15,2.85,1.04,1.48,1.12,3.57-.38,4.77-1.48,1.18-3.64,1.35-5.41.9-2.24-.56-4.27-1.98-5.82-3.65-.56-.61-1.47.3-.91.91h0Z"/>
  <path class="cls-6" d="M119.05,12.5c-2.7-.17-5.38.54-7.64,2.02-2.11,1.43-3.72,3.48-4.61,5.87-1.76,4.7-.62,10.56,3.24,13.89,3.85,3.32,9.88,3.94,14.4,1.64,4.51-2.29,6.77-7.55,6.26-12.46-.25-2.54-1.28-4.93-2.95-6.86-1.74-1.96-4.06-3.31-6.63-3.83-.68-.14-1.38-.23-2.08-.27-.83-.05-.82,1.23,0,1.28,2.41.12,4.72,1.01,6.59,2.54,1.74,1.48,2.98,3.47,3.52,5.69,1.06,4.28-.4,9.44-4.06,12.02-3.7,2.61-9.15,2.6-12.96.2-3.9-2.46-5.52-7.37-4.58-11.8.47-2.25,1.62-4.29,3.31-5.85,1.73-1.58,3.93-2.55,6.27-2.77.64-.06,1.28-.07,1.93-.03.83.04.83-1.24,0-1.28Z"/>
  <path class="cls-6" d="M123.11,19.47c-1.04-1.17-2.57-1.63-4.09-1.76-1.38-.12-2.77.17-3.99.82-2.44,1.3-3.84,3.94-3.78,6.67.03,2.6,1.54,4.96,3.9,6.07,2.35,1.08,5.36,1.08,7.51-.47,1.16-.86,2.03-2.05,2.49-3.42.59-1.69.67-3.62-.13-5.25-.18-.3-.57-.4-.88-.23-.3.18-.4.57-.23.88.59,1.21.48,2.66.1,3.92-.29,1.02-.84,1.94-1.62,2.66-1.6,1.47-3.99,1.69-6.02,1.02-2.02-.64-3.5-2.38-3.8-4.48-.31-2.17.53-4.46,2.31-5.78,1.03-.76,2.27-1.16,3.55-1.16,1.37,0,2.83.36,3.76,1.41.55.62,1.45-.29.91-.91Z"/>
</svg>