<?xml version="1.0" encoding="UTF-8"?>
<svg id="_レイヤー_1" data-name="レイヤー_1" xmlns="http://www.w3.org/2000/svg" version="1.1" viewBox="0 0 375 375">
  <!-- Generator: Adobe Illustrator 29.0.0, SVG Export Plug-In . SVG Version: 2.1.0 Build 186)  -->
  <defs>
    <style>
      .st0 {
        fill: #fffaf0;
      }

      .st1 {
        fill: #3f2828;
      }

      .st2 {
        fill: #9b968e;
      }
    </style>
  </defs>
  <g>
    <polygon class="st0" points="204.94 223.31 204.94 220.62 176.2 220.62 176.2 236.53 204.94 236.53 204.94 223.31"/>
    <path class="st2" d="M251.81,209.31v9.17c0,1.18-.96,2.14-2.14,2.14h-118.21c-1.18,0-2.14-.96-2.14-2.14v-9.17h122.48Z"/>
    <path class="st0" d="M251.81,140.59v68.72h-122.49v-68.72c0-1.18.96-2.14,2.14-2.14h118.21c1.18,0,2.14.96,2.14,2.14h0Z"/>
    <path class="st1" d="M167.24,237.78h40.89c1.89,0,3.8.08,5.69,0h.08c1.61,0,1.61-2.5,0-2.5h-40.89c-1.89,0-3.8-.08-5.69,0h-.08c-1.61,0-1.61,2.5,0,2.5h0Z"/>
    <path class="st1" d="M177.45,236.21v-15.56c0-1.61-2.5-1.61-2.5,0v15.56c0,1.61,2.5,1.61,2.5,0Z"/>
    <path class="st1" d="M203.69,220.65v15.56c0,1.61,2.5,1.61,2.5,0v-15.56c0-1.61-2.5-1.61-2.5,0Z"/>
    <path class="st1" d="M249.67,137.19h-115.58c-.87,0-1.74-.03-2.61,0-1.92.04-3.44,1.62-3.4,3.53,0,0,0,0,0,0,0,.52,0,1.04,0,1.57v71c0,1.65,0,3.3,0,4.95-.08,1.92,1.42,3.55,3.34,3.62.02,0,.03,0,.05,0,.21,0,.42,0,.64,0h116.85c.24,0,.47,0,.71,0,1.92-.04,3.44-1.63,3.4-3.55,0,0,0-.01,0-.02.01-1.58,0-3.16,0-4.73v-72.75c.08-1.92-1.42-3.55-3.35-3.62-.01,0-.03,0-.04,0-1.61-.06-1.61,2.44,0,2.5.85.03.89.75.89,1.39v72.98c0,1.44.02,2.88,0,4.32-.02,1.18-1.23.98-2.05.98h-116.49c-.24.02-.49.01-.73-.02-.74-.16-.71-.83-.71-1.42v-75.93c0-.89-.25-2.28,1.02-2.3,1.08-.01,2.17,0,3.25,0h114.82c1.61,0,1.61-2.51,0-2.51Z"/>
    <path class="st1" d="M129.32,210.56h122.49c1.61,0,1.61-2.5,0-2.5h-122.49c-1.61,0-1.61,2.5,0,2.5Z"/>
  </g>
  <g>
    <path class="st1" d="M174.09,163.18l-11.72,11.34c-.65.67-.65,1.74,0,2.42l11.72,11.34c1.58,1.53,4-.88,2.41-2.42l-11.72-11.34v2.42l11.72-11.34c1.58-1.53-.83-3.94-2.41-2.42h0Z"/>
    <path class="st1" d="M204.64,165.6l11.72,11.34v-2.42l-11.72,11.34c-1.58,1.53.83,3.94,2.41,2.42l11.72-11.34c.65-.67.65-1.74,0-2.42l-11.72-11.34c-1.58-1.53-3.99.88-2.41,2.42Z"/>
    <path class="st2" d="M194.56,163.53l-10.93,22.68c-.45.82-.18,1.85.61,2.34.81.47,1.85.19,2.33-.61l10.93-22.68c.45-.82.18-1.84-.61-2.34-.81-.47-1.85-.2-2.33.61Z"/>
  </g>
</svg>