<svg xmlns="http://www.w3.org/2000/svg" width="181.858" height="358.742" viewBox="0 0 181.858 358.742"><defs><style>.a{fill:#fff;}.b{fill:#211715;}.c{fill:#4d4544;}</style></defs><rect class="a" x="2.4" y="2.408" width="177.04" height="353.934" rx="29.455"/><path class="b" d="M146.1,2.408c0,.065-3.117,1.043-3.117,4.078V11.1a12,12,0,0,1-11.977,12c-11.415.016-28.527.039-40.084.062-11.557-.023-28.669-.046-40.084-.062a12,12,0,0,1-11.977-12V6.486c0-2.963-2.835-4.017-2.835-4.078"/><path class="b" d="M144.4.711c.914-.813-.258-.012-.562.183a7.678,7.678,0,0,0-2.122,1.989c-1.368,1.9-1.136,4.227-1.136,6.443a12.634,12.634,0,0,1-.993,6.048,9.785,9.785,0,0,1-3.748,4.014,10.5,10.5,0,0,1-5.508,1.318l-6.925.009-15.512.023q-14.51.023-29.018.008-7.842-.014-15.685-.024l-7.414-.011a43.5,43.5,0,0,1-6.348-.1A9.7,9.7,0,0,1,41.3,12.139c-.244-2.531.472-5.416-.425-7.847a6.725,6.725,0,0,0-1.993-2.846A9.511,9.511,0,0,0,37.778.64c-.3-.185-.81-.624-.057.071-2.268-2.091-5.671,1.3-3.394,3.394a10.586,10.586,0,0,0,1.323.87,2.1,2.1,0,0,1,.782,1.163,15.625,15.625,0,0,1,.027,2.789,30.455,30.455,0,0,0,.163,4.207,14.382,14.382,0,0,0,7.817,10.859c4.34,2.093,9.313,1.516,13.994,1.522q7.964.012,15.927.024,14.912.022,29.824,0l16.274-.025,7.431-.01a25.192,25.192,0,0,0,7.1-.568,14.507,14.507,0,0,0,10.074-10.823,20.871,20.871,0,0,0,.32-4.153,23.171,23.171,0,0,1,.017-3.793,1.93,1.93,0,0,1,.863-1.133,9.861,9.861,0,0,0,1.534-.934C150.109,2.049,146.7-1.336,144.4.711Z"/><path class="b" d="M149.982,353.942H32.924c-10.894,0-20.753-5.561-25.554-15.535-3.642-7.566-2.57-17.116-2.57-25.321V33.133c0-7.835,2.546-15.173,8.264-20.715a27.24,27.24,0,0,1,18.8-7.61c1.054-.008,2.109,0,3.163,0H143.012c5.695,0,11.234-.261,16.7,1.8,10.544,3.97,17.3,14.431,17.33,25.555.006,2.361,0,4.722,0,7.083V308.9c0,6.157.1,12.325,0,18.482a27.347,27.347,0,0,1-27.054,26.559c-3.087.026-3.095,4.826,0,4.8a32.213,32.213,0,0,0,31.6-27.944,64.356,64.356,0,0,0,.259-8.086V53.228c0-7.079.041-14.16,0-21.239A32.294,32.294,0,0,0,160.986,1.976C155.248-.188,149.351.008,143.364.008H34.663c-1.264,0-2.532-.026-3.795.016A32.135,32.135,0,0,0,10,8.705,32.609,32.609,0,0,0,0,32.793V324.851c0,6.252,1.041,12.315,4.2,17.834,5.9,10.3,16.863,16.057,28.579,16.057h117.2C153.07,358.742,153.076,353.942,149.982,353.942Z"/><path class="b" d="M59.391,344.307l21.815,0,32.262-.006,8.981,0c3.089,0,3.094-4.8,0-4.8q-11.031,0-22.063,0l-32.193.006-8.8,0c-3.089,0-3.094,4.8,0,4.8Z"/><path class="c" d="M72.589,15.583q11.6,0,23.2-.012c3.088,0,3.093-4.8,0-4.8q-11.6,0-23.2.012c-3.089,0-3.094,4.8,0,4.8Z"/><path class="c" d="M109.251,15.983c3.6,0,3.61-5.6,0-5.6s-3.609,5.6,0,5.6Z"/></svg>