<?xml version="1.0" encoding="UTF-8"?>
<svg id="_レイヤー_1" data-name="レイヤー_1" xmlns="http://www.w3.org/2000/svg" version="1.1" viewBox="0 0 375 375">
  <!-- Generator: Adobe Illustrator 29.0.0, SVG Export Plug-In . SVG Version: 2.1.0 Build 186)  -->
  <defs>
    <style>
      .st0 {
        fill: #fffaf0;
      }

      .st1 {
        fill: #f2635f;
      }

      .st2 {
        fill: #ffda71;
      }

      .st3 {
        fill: #3f2828;
      }

      .st4 {
        fill: #3d8dcc;
      }

      .st5 {
        fill: #c1beb9;
      }

      .st6 {
        fill: #9b968e;
      }
    </style>
  </defs>
  <g>
    <polygon class="st0" points="202.4 217.21 202.4 214.52 173.65 214.52 173.65 230.43 202.4 230.43 202.4 217.21"/>
    <path class="st6" d="M249.27,203.21v9.17c0,1.18-.96,2.14-2.14,2.14h-118.21c-1.18,0-2.14-.96-2.14-2.14v-9.17h122.48Z"/>
    <path class="st0" d="M249.27,134.49v68.72h-122.49v-68.72c0-1.18.96-2.14,2.14-2.14h118.21c1.18,0,2.14.96,2.14,2.14h0Z"/>
    <path class="st3" d="M164.69,231.68h40.89c1.89,0,3.8.08,5.69,0h.08c1.61,0,1.61-2.5,0-2.5h-40.89c-1.89,0-3.8-.08-5.69,0h-.08c-1.61,0-1.61,2.5,0,2.5h0Z"/>
    <path class="st3" d="M174.9,230.11v-15.56c0-1.61-2.5-1.61-2.5,0v15.56c0,1.61,2.5,1.61,2.5,0Z"/>
    <path class="st3" d="M201.15,214.55v15.56c0,1.61,2.5,1.61,2.5,0v-15.56c0-1.61-2.5-1.61-2.5,0Z"/>
    <path class="st3" d="M247.13,131.09h-115.58c-.87,0-1.74-.03-2.61,0-1.92.04-3.44,1.62-3.4,3.53,0,0,0,0,0,0,0,.52,0,1.04,0,1.57v71c0,1.65,0,3.3,0,4.95-.08,1.92,1.42,3.55,3.34,3.62.02,0,.03,0,.05,0,.21,0,.42,0,.64,0h116.85c.24,0,.47,0,.71,0,1.92-.04,3.44-1.63,3.4-3.55,0,0,0-.01,0-.02.01-1.58,0-3.16,0-4.73v-72.75c.08-1.92-1.42-3.55-3.35-3.62-.01,0-.03,0-.04,0-1.61-.06-1.61,2.44,0,2.5.85.03.89.75.89,1.39v72.98c0,1.44.02,2.88,0,4.32-.02,1.18-1.23.98-2.05.98h-116.49c-.24.02-.49.01-.73-.02-.74-.16-.71-.83-.71-1.42v-75.93c0-.89-.25-2.28,1.02-2.3,1.08-.01,2.17,0,3.25,0h114.82c1.61,0,1.61-2.51,0-2.51Z"/>
    <path class="st3" d="M126.78,204.46h122.49c1.61,0,1.61-2.5,0-2.5h-122.49c-1.61,0-1.61,2.5,0,2.5Z"/>
  </g>
  <g>
    <path class="st0" d="M231.94,154.42c-1.65-.08-2.84.73-4.14,1.61-1.45.99-2.9,1.99-4.34,3-8.18,5.74-16.39,11.51-24.36,17.54l-.21.16c-.91.69-1.11,1.98-.45,2.91l3.07,4.4c.65.94,1.93,1.19,2.89.57,8.05-5.16,15.93-10.75,23.65-16.39,2.31-1.69,4.7-3.37,6.87-5.24,2.04-1.76,2.26-4.84.5-6.88-.88-1.02-2.14-1.63-3.49-1.68h0Z"/>
    <path class="st5" d="M196.56,192.02c2.35-1.64,5.28-4.52,3.91-7.61-.45-1.14-1.11-2.19-1.94-3.1-2.2-2.22-5.94-1.54-8.3.1-2.2,1.54-2.66,3.32-3.16,5.18-.61,2.26-1.38,2.98-3.04,4.76,1.96.93,4.58,2.28,6.8,2.32,2.04.05,4.04-.53,5.74-1.65Z"/>
    <path class="st0" d="M178.6,144.42c-9.64-4.58-22.43-3.36-29.23,6.35-5.14,7.33-5,17.04-1.75,23.95,3.51,7.46,14.48,14.93,22.64,10.26,1.81-1,2.92-2.9,2.92-4.96.06-1.38-.12-2.79.13-4.15.6-3.34,3.59-5.54,6.9-5.68,3.61-.15,6.65-.06,8.54-3.8.99-2.15,1.27-4.56.82-6.88-1.06-6.49-4.86-12.41-11-15.13"/>
    <path class="st4" d="M162.51,157.75c-.05.31-.13.61-.24.9-.11.25-.24.48-.4.7-.15.18-.32.35-.5.5-.21.15-.44.29-.68.39-.28.11-.57.18-.87.23-.37.04-.74.04-1.1,0-.29-.05-.58-.12-.86-.23-.25-.11-.48-.25-.7-.41-.19-.16-.37-.33-.52-.52-.16-.22-.3-.46-.41-.71-.11-.29-.19-.58-.23-.88-.04-.33-.04-.66,0-.98.05-.3.12-.59.23-.87.11-.25.25-.49.42-.71.33-.43.76-.76,1.26-.97.29-.11.59-.19.89-.24.31-.03.62-.03.94,0,.3.05.6.13.88.24.5.21.93.54,1.26.97.16.22.3.46.42.71.11.28.19.58.24.88.03.34.03.68,0,1.01Z"/>
    <path class="st2" d="M159.52,169.57c-.05.31-.13.61-.24.9-.11.25-.25.48-.4.7-.15.18-.32.35-.5.5-.21.15-.44.29-.68.39-.28.11-.57.18-.87.23-.37.04-.74.04-1.1,0-.29-.05-.58-.12-.86-.23-.25-.11-.48-.25-.7-.41-.19-.16-.37-.33-.52-.52-.16-.22-.3-.46-.41-.71-.11-.29-.19-.58-.23-.88-.04-.33-.04-.66,0-.98.05-.3.12-.59.23-.87.11-.25.25-.49.42-.71.33-.43.76-.76,1.26-.97.29-.11.59-.19.89-.24.31-.03.62-.03.93,0,.3.05.6.13.88.24.5.21.93.54,1.26.97.16.22.3.46.42.71.11.28.19.58.24.88.03.34.03.68,0,1.02Z"/>
    <path class="st1" d="M173.77,153.78c-.05.31-.13.61-.24.9-.11.25-.25.48-.4.7-.15.18-.32.35-.5.5-.21.15-.44.29-.68.39-.28.11-.57.18-.87.23-.37.04-.74.04-1.1,0-.29-.05-.58-.12-.86-.23-.25-.11-.48-.25-.7-.41-.19-.16-.37-.33-.52-.52-.16-.22-.3-.46-.41-.71-.11-.29-.19-.58-.23-.88-.04-.33-.04-.66,0-.98.05-.3.12-.59.23-.87.11-.25.25-.49.42-.71.17-.21.36-.4.57-.57.22-.16.45-.3.7-.41.29-.11.59-.19.89-.24.31-.03.62-.03.93,0,.3.05.6.13.88.24.25.11.48.25.7.41.2.17.39.35.56.56.16.22.3.46.42.71.11.28.19.58.24.88.03.34.03.68,0,1.01Z"/>
    <path class="st3" d="M231.94,153.17c-1.91-.04-3.45.88-4.98,1.93-1.66,1.14-3.32,2.29-4.97,3.44-3.4,2.39-6.8,4.78-10.18,7.19-3.31,2.37-6.61,4.76-9.88,7.18-.82.61-1.63,1.21-2.44,1.83-.74.56-1.64,1.08-2.15,1.88-.72,1.15-.69,2.63.08,3.75.94,1.38,1.91,2.75,2.88,4.11.63,1.04,1.75,1.69,2.97,1.73.88-.06,1.72-.38,2.41-.91.85-.55,1.69-1.1,2.53-1.65,6.89-4.53,13.61-9.32,20.27-14.19,1.82-1.33,3.65-2.64,5.42-4.02,1.56-1.22,3.07-2.37,3.68-4.34,1.21-3.88-1.7-7.67-5.64-7.93-.69,0-1.25.56-1.25,1.25s.56,1.25,1.25,1.25h0c2.02.14,3.54,1.9,3.39,3.91-.03.42-.13.82-.3,1.21-.6,1.35-2.11,2.26-3.23,3.13-1.44,1.1-2.91,2.16-4.38,3.22-5.98,4.37-12.01,8.68-18.17,12.81-1.54,1.03-3.08,2.04-4.64,3.05-.65.42-1.44,1.12-2.08.34-.97-1.19-1.79-2.56-2.67-3.82-.31-.44-.76-.93-.48-1.49.25-.48.92-.81,1.36-1.13.74-.56,1.49-1.12,2.24-1.68,2.99-2.23,6.01-4.42,9.05-6.59,3.38-2.42,6.77-4.82,10.18-7.2,1.72-1.21,3.44-2.42,5.18-3.61,1.37-.94,2.79-2.19,4.54-2.15,1.61.04,1.61-2.46,0-2.5Z"/>
    <path class="st3" d="M197.19,193.11c2.02-1.42,4.19-3.35,4.74-5.87.26-1.38.03-2.81-.65-4.04-.56-1.29-1.43-2.43-2.52-3.32-1.94-1.46-4.62-1.49-6.84-.7-2.47.82-4.46,2.67-5.44,5.08-.44,1.11-.59,2.34-1.12,3.41-.6,1.04-1.35,1.98-2.23,2.8-.51.54-.51,1.61.25,1.97,2.21,1.05,4.46,2.22,6.94,2.46,2.42.19,4.84-.44,6.86-1.79,1.33-.9.07-3.07-1.26-2.16-1.64,1.12-3.62,1.64-5.6,1.45-2-.23-3.88-1.27-5.67-2.12l.25,1.97c1.43-1.53,2.68-2.97,3.28-5.02.2-.87.48-1.72.82-2.55.45-.92,1.14-1.7,1.99-2.27,1.44-.97,3.37-1.57,5.09-1.1.86.25,1.61.8,2.11,1.55.67.84,1.13,1.82,1.35,2.86.26,2.2-2.04,4.1-3.63,5.22-.58.36-.78,1.11-.45,1.71.35.59,1.11.79,1.71.45Z"/>
    <path class="st3" d="M179.23,143.34c-8.21-3.87-18.6-3.88-26.05,1.73-8.42,6.34-11.07,18.02-7.67,27.78,1.62,4.51,4.62,8.4,8.58,11.11,3.85,2.73,8.79,4.47,13.52,3.39,2.31-.53,4.71-1.75,5.9-3.89.6-1.14.92-2.4.92-3.69.04-1.43-.16-2.89.25-4.28.66-1.98,2.32-3.46,4.36-3.88,1.08-.18,2.17-.26,3.27-.26,1.07-.04,2.13-.21,3.15-.5,2.43-.78,4.04-2.7,4.9-5.06.99-2.72.72-5.73.03-8.49-1.17-4.88-4.01-9.19-8.03-12.19-.99-.71-2.04-1.32-3.15-1.82-.6-.33-1.35-.13-1.71.44-.34.6-.14,1.36.45,1.71,4.09,1.88,7.32,5.25,9.02,9.41.96,2.18,1.49,4.52,1.55,6.9,0,2.15-.64,4.78-2.51,6.06-1.5,1.03-3.44,1.01-5.25,1.08-2.28,0-4.49.81-6.22,2.3-1.9,1.71-2.62,4.09-2.61,6.59,0,1.23.13,2.47-.25,3.66-.29.89-.87,1.66-1.64,2.18-3.54,2.38-8.17,1.69-11.78-.12-3.87-1.9-7.07-4.94-9.17-8.71-4.3-8.04-3.1-19.1,3.27-25.7,5.88-6.09,15.05-7.31,22.87-4.73.94.31,1.86.68,2.76,1.1.6.33,1.35.13,1.71-.45.34-.6.14-1.36-.45-1.71h0Z"/>
    <path class="st3" d="M161.31,157.41c-.03.15-.06.3-.1.45-.01.06-.03.11-.05.17,0,.03-.09.26-.04.12.05-.12-.03.05-.03.06-.04.07-.07.14-.11.2s-.08.13-.12.19c.1-.14-.01,0-.07.06-.05.05-.32.28-.14.15-.12.08-.25.16-.38.23-.01,0-.18.08-.05.03.14-.06-.08.02-.11.03-.14.04-.29.07-.44.11-.18.05.18,0-.02,0-.08,0-.16.01-.25.01-.14,0-.29,0-.43,0-.05,0-.24-.04-.02,0-.05-.01-.11-.02-.16-.03-.16-.04-.32-.08-.48-.14.22.08-.1-.06-.17-.1s-.13-.09-.2-.12c-.12-.06,0,0,.03.03-.1-.09-.2-.2-.3-.29-.04-.04-.12-.17,0,0-.04-.07-.09-.13-.13-.2s-.07-.14-.11-.2c-.03-.04-.08-.21-.02-.02-.04-.13-.08-.25-.11-.38-.02-.07-.03-.15-.05-.22-.04-.13,0,.01,0,.04-.02-.18-.02-.37-.02-.55,0-.03.02-.29,0-.14-.02.14.01-.05.01-.06.03-.15.07-.29.12-.44,0-.01.07-.18.02-.06-.06.14.05-.09.06-.11.03-.05.06-.1.09-.16.01-.02.23-.31.07-.13.09-.1.18-.2.28-.29.04-.04.08-.08.13-.12-.16.13-.02.01.02,0,.13-.08.26-.16.4-.23-.03.01-.17.05-.03.02.09-.02.18-.06.28-.09.07-.02.15-.04.22-.05.02,0,.2-.03.06-.01-.16.02.09,0,.12,0,.08,0,.16,0,.23,0s.43.04.19,0c.15.03.3.06.45.1.07.02.15.05.22.07-.21-.07.03.02.07.04.07.04.14.08.2.12.04.03.24.18.07.04.11.1.22.21.32.31.16.16.05.06.02.01.06.08.11.16.16.25.03.05.06.1.09.16.16.28,0-.1.04.07s.09.33.14.49c.01.05.02.22,0,.02,0,.08,0,.17.01.25,0,.21,0,.42-.03.63,0,.69.56,1.25,1.25,1.25.68-.02,1.23-.57,1.25-1.25.23-1.89-.73-3.72-2.42-4.6-2.24-1.16-5-.28-6.16,1.96-.62,1.19-.68,2.59-.17,3.83.7,1.76,2.42,2.88,4.31,2.81,1.06,0,2.09-.36,2.92-1.02.79-.68,1.31-1.62,1.47-2.65.17-.66-.22-1.34-.87-1.54-.67-.17-1.35.21-1.54.87Z"/>
    <path class="st3" d="M158.31,169.23c-.03.15-.06.3-.09.45-.01.06-.03.11-.05.17,0,.03-.09.26-.04.12.05-.12-.03.05-.03.06-.04.07-.07.14-.11.2s-.08.13-.12.19c.1-.14-.01,0-.07.06-.05.05-.32.28-.14.15-.12.08-.25.16-.38.23-.01,0-.18.08-.05.03.14-.06-.08.02-.11.03-.14.04-.29.07-.44.11-.18.05.18,0-.02,0-.08,0-.16.01-.25.01-.14,0-.29,0-.43,0-.05,0-.24-.04-.02,0-.05-.01-.11-.02-.16-.03-.16-.04-.32-.08-.48-.14.22.08-.1-.06-.17-.1s-.13-.09-.2-.12c-.12-.06,0,0,.03.03-.1-.09-.2-.2-.3-.29-.04-.04-.12-.17,0,0-.04-.07-.09-.13-.13-.2s-.07-.14-.11-.2c-.03-.04-.08-.21-.02-.02-.04-.13-.08-.25-.11-.38-.02-.07-.03-.15-.05-.22-.04-.13,0,.01,0,.04-.02-.18-.02-.37-.02-.55,0-.03.02-.29,0-.14-.02.14.01-.05.01-.06.03-.15.07-.29.12-.44,0-.01.07-.19.02-.06-.06.14.05-.09.06-.11.03-.05.06-.1.09-.15.01-.02.23-.31.07-.13.09-.1.18-.2.28-.29.04-.04.08-.08.13-.12-.15.13-.02.01.02,0,.13-.08.26-.16.4-.23-.03.01-.17.05-.03.02.09-.02.18-.06.28-.09.07-.02.15-.04.22-.05.02,0,.2-.03.06-.01-.16.02.09,0,.12,0,.08,0,.16,0,.23,0s.43.04.19,0c.15.03.3.06.45.1.07.02.15.05.22.07-.21-.08.03.02.07.04.07.04.14.08.2.12.04.03.24.18.08.04.11.1.22.21.32.31.16.16.05.06.02.01.06.08.11.16.16.25.03.05.06.1.09.16.16.29,0-.1.04.07s.09.33.14.49c.01.05.02.22,0,.02,0,.08,0,.17.01.25,0,.21,0,.42-.03.63,0,.69.56,1.25,1.25,1.25.68-.02,1.23-.57,1.25-1.25.23-1.89-.73-3.72-2.42-4.6-2.24-1.16-5-.28-6.16,1.96-.62,1.19-.68,2.59-.17,3.83.7,1.76,2.42,2.88,4.31,2.81,1.06,0,2.09-.36,2.92-1.02.79-.68,1.31-1.62,1.47-2.65.17-.66-.22-1.34-.87-1.54-.66-.17-1.34.21-1.53.87Z"/>
    <path class="st3" d="M172.56,153.45c-.03.15-.06.3-.09.45-.02.06-.03.11-.05.17,0,.03-.09.26-.04.12.05-.12-.03.05-.03.06-.04.07-.07.14-.11.2s-.08.13-.12.19c.1-.14-.01,0-.07.06-.05.05-.32.28-.14.15-.12.08-.25.16-.38.23-.01,0-.18.08-.05.03.14-.06-.08.02-.11.03-.14.04-.29.07-.44.11-.18.05.18,0-.02,0-.08,0-.16.01-.25.01-.14,0-.29,0-.43,0-.05,0-.24-.04-.02,0-.05-.01-.11-.02-.16-.03-.16-.04-.32-.08-.48-.14.22.08-.1-.06-.17-.1s-.13-.09-.2-.12c-.12-.06,0,0,.03.03-.1-.09-.2-.2-.3-.29-.04-.04-.12-.17,0,0-.04-.07-.09-.13-.13-.2s-.07-.14-.11-.2c-.03-.04-.08-.22-.02-.02-.04-.13-.08-.25-.11-.38-.02-.07-.03-.15-.05-.22-.04-.13,0,.01,0,.04-.02-.18-.02-.37-.02-.55,0-.03.02-.29,0-.14-.02.14.01-.05.01-.06.03-.15.07-.29.12-.44,0-.01.07-.19.02-.06-.06.14.05-.09.06-.11.03-.05.06-.1.09-.15.01-.02.23-.31.07-.13.09-.1.18-.2.28-.29.04-.04.08-.08.13-.12-.16.13-.02.01.02,0,.13-.08.26-.16.4-.23-.03.01-.16.05-.03.02.09-.02.18-.06.28-.08.07-.02.15-.04.22-.05.02,0,.2-.03.06-.01-.16.02.09,0,.12,0,.08,0,.16,0,.23,0s.43.04.19,0c.15.03.3.06.44.1.07.02.15.05.22.07-.21-.08.03.02.07.04.07.04.14.08.2.12.04.03.24.18.08.04.11.1.22.21.32.31.16.16.05.06.02.01.06.08.11.16.16.25.03.05.06.1.09.15.16.29,0-.1.04.07s.09.33.14.49c.01.05.02.22,0,.02,0,.08,0,.17.01.25,0,.21,0,.42-.03.63,0,.69.56,1.25,1.25,1.25.68-.02,1.23-.57,1.25-1.25.23-1.89-.73-3.72-2.41-4.6-1.72-.84-3.77-.56-5.2.7-1.36,1.32-1.81,3.32-1.12,5.09.7,1.76,2.42,2.88,4.31,2.81,1.06,0,2.09-.36,2.92-1.02.79-.68,1.31-1.62,1.47-2.65.17-.66-.22-1.34-.87-1.54-.67-.17-1.35.21-1.54.87Z"/>
  </g>
</svg>