<svg xmlns="http://www.w3.org/2000/svg" width="395.92" height="222.331" viewBox="0 0 395.92 222.331"><defs><style>.a{fill:#211715;}.b{fill:#fff;}.c{fill:#d3d1d0;}.d{fill:#bcb9b8;}</style></defs><path class="a" d="M343.332,203.035V6.411a3.994,3.994,0,0,0-4-3.994H56.575a4,4,0,0,0-4,4V203.049C91.256,203.049,302.572,203.049,343.332,203.035Z"/><path class="a" d="M345.732,203.035q0-8.142,0-16.283V11.381c0-1.652.067-3.32,0-4.97A6.534,6.534,0,0,0,339.2.017c-1.248-.038-2.5,0-3.75,0H71.058c-4.672,0-9.344-.033-14.016,0a6.622,6.622,0,0,0-6.867,6.752c-.02,1.95,0,3.9,0,5.853V203.049a2.435,2.435,0,0,0,2.4,2.4H192.688l36.564,0h34.942l31.4,0,25.951,0,18.583,0h3.2c3.088,0,3.093-4.8,0-4.8l-16.493,0-24.329,0-30.25,0-34.255,0H52.575l2.4,2.4V25.041c0-6.049.07-12.1,0-18.152-.012-1.046.386-1.97,1.6-2.072.227-.019.463,0,.689,0H326.846c4.085,0,8.23-.207,12.312,0,1.542.078,1.774,1.2,1.774,2.516V199.091q0,1.972,0,3.944C340.932,206.123,345.732,206.128,345.732,203.035Z"/><path class="b" d="M332,191.7V13.755H63.921V191.711C102.6,191.711,291.24,191.711,332,191.7Z"/><path class="b" d="M334,191.7V35.6c0-7.166.223-14.373,0-21.537,0-.1,0-.2,0-.3a2.029,2.029,0,0,0-2-2H74.8c-3.474,0-6.954-.065-10.427,0-.151,0-.3,0-.455,0a2.029,2.029,0,0,0-2,2V169.867c0,7.167-.224,14.374,0,21.539,0,.1,0,.2,0,.305a2.029,2.029,0,0,0,2,2H226.372l31.847,0,28.792,0,24.077,0,17.772,0H332c2.574,0,2.578-4,0-4l-15.871,0-22.654,0-27.779,0-31.4,0-33.058,0H63.921l2,2V21c0-2.279.2-4.663,0-6.936-.009-.1,0-.2,0-.3l-2,2h257.2c3.459,0,6.971.178,10.426,0,.151-.008.305,0,.456,0l-2-2v156.1c0,7.166-.223,14.373,0,21.537,0,.1,0,.2,0,.305C330,194.27,334,194.274,334,191.7Z"/><path class="c" d="M197.957,205.317H2.4v7.111s5.666,7.5,21.111,7.5H372.4c15.444,0,21.111-7.5,21.111-7.5v-7.111Z"/><path class="d" d="M197.96,205.333H167.292v1.722s-.111,3.834,3.556,3.834h54.225c3.666,0,3.555-3.834,3.555-3.834v-1.722H197.96Z"/><path class="a" d="M197.957,202.917H26.5c-7.9,0-15.868-.3-23.764,0-.11,0-.222,0-.332,0a2.435,2.435,0,0,0-2.4,2.4V210.7c0,1.4-.082,2.543.9,3.664a22.591,22.591,0,0,0,9.011,5.707c5.27,2.014,10.859,2.261,16.425,2.261H364.342c2.631,0,5.262.007,7.894,0,7.762-.022,17.488-1.774,22.852-8.054.969-1.135.825-2.354.825-3.748v-5.209a2.435,2.435,0,0,0-2.4-2.4H222c-7.881,0-15.829-.3-23.706,0-.11,0-.221,0-.332,0-3.088,0-3.093,4.8,0,4.8H385.6a63.157,63.157,0,0,0,7.586,0,2.829,2.829,0,0,1,.332,0l-2.4-2.4V210.7c0,.375-.027.759,0,1.133.1,1.359-.513-.457.687-1.078-.172.089-.333.4-.476.536a22.441,22.441,0,0,1-9.993,5.218c-4.226,1.065-8.5,1.023-12.812,1.023H33.04q-4.512,0-9.024,0a38.179,38.179,0,0,1-9.924-1.151A23.688,23.688,0,0,1,4.5,211.2c-1.032-.888.855-.291.3,1.206a7.265,7.265,0,0,0,0-2.046v-5.038l-2.4,2.4H173.861c7.9,0,15.868.3,23.764,0,.11,0,.222,0,.332,0C201.046,207.717,201.051,202.917,197.957,202.917Z"/></svg>