<?xml version="1.0" encoding="UTF-8"?>
<svg id="_レイヤー_1" data-name="レイヤー_1" xmlns="http://www.w3.org/2000/svg" version="1.1" viewBox="0 0 375 375">
  <!-- Generator: Adobe Illustrator 29.0.0, SVG Export Plug-In . SVG Version: 2.1.0 Build 186)  -->
  <defs>
    <style>
      .st0 {
        fill: #8fc123;
      }

      .st1 {
        fill: #fff;
      }

      .st2 {
        fill: #348210;
      }

      .st3 {
        fill: #211715;
      }
    </style>
  </defs>
  <path class="st2" d="M244.84,191.1c2.11-1.63,2.7-4.46.11-6.12,1.3-2.34.76-5.16-2.06-5.73,1.55-2.14,1.35-4.98-1.48-5.88,1.39-2.05,1.19-4.67-1.32-5.64,1.61-2.24,1.32-5.22-1.77-5.99,1.28-2.44.56-5.35-2.65-5.67.85-2.46-.15-5.06-3.11-5.14-.02-2.72-1.96-4.95-4.81-3.9-1.11-2.46-3.75-3.69-5.97-1.55-1.78-2.28-4.91-2.84-6.42-.13-2.28-1.59-5.28-1.26-6.01,1.82-2.72-1.29-5.9-.3-5.85,3-2.85-.16-5.29,1.79-4.13,4.87-.37,0-.84.09-1.23.1,1.49,1.18,1.66,3.66.74,5.65,2.87.48,3.55,5.6,2.05,7.52,2.32.56,2.69,6.8.11,7.98,1.99,1.13,2.15,6.71-.62,7.82,1.75,1.42.57,6.42-2.94,7.6,1.45,2.63-2.15,7.2-4.52,7.04.19,2.54-2.29,5.24-5.42,5.41h-.32c.2,1.14,1.09,1.85,2.56,2.26-.53,2.41.6,4.77,3.24,4.79-.11,2.6,1.59,4.83,4.4,4.1-.14,2.79,1.8,5.17,4.96,3.96.97,2.33,3.37,3.58,5.68,1.72,1.49,1.95,4,2.61,5.73.63l4.97-.45c2.18,1.12,4.73.63,5.43-1.95,2.47,1.17,5.33.4,5.63-2.58,2.64.15,4.93-1.53,4.31-4.23h0s.47-.03.47-.03c2.47-.08,4.47-1.77,3.77-4.39,2.79.04,5.09-1.96,3.81-5.04,2.59-.79,4.15-3.27,2.26-5.74,2.2-1.46,2.97-4.21.41-6.11Z"/>
  <path class="st2" d="M245.04,191.3c1.07-.78,1.77-1.98,1.91-3.31.09-1.39-.73-2.53-1.85-3.27l.1.4c.62-1.14.94-2.53.53-3.8-.42-1.23-1.48-2.13-2.76-2.36l.17.43c.8-1.05,1.14-2.38.92-3.68-.28-1.33-1.33-2.21-2.58-2.63l.17.43c.72-1.01,1.02-2.27.82-3.5-.28-1.19-1.15-2.16-2.32-2.57l.17.43c.77-1.09,1.22-2.49.89-3.81-.34-1.39-1.51-2.25-2.84-2.6l.17.43c.61-1.2.89-2.66.35-3.94-.56-1.35-1.86-2.01-3.26-2.16l.28.37c.46-1.21.39-2.56-.18-3.73-.65-1.18-1.9-1.73-3.21-1.78l.29.29c-.02-1.32-.45-2.71-1.47-3.6-1.05-.92-2.43-1.03-3.71-.57l.33.13c-.55-1.19-1.51-2.26-2.8-2.65-1.34-.41-2.65.12-3.63,1.04h.41c-.87-1.09-2.14-1.94-3.57-2.02s-2.61.75-3.31,1.96l.4-.1c-1.11-.76-2.52-1.2-3.86-.86-1.39.35-2.25,1.51-2.58,2.85l.43-.17c-1.32-.61-2.89-.83-4.25-.22-1.39.62-2.04,2.01-2.04,3.48l.29-.29c-1.37-.06-2.85.31-3.81,1.34-1.01,1.08-1.08,2.56-.6,3.9l.28-.37c-.41,0-.82.08-1.23.1-.23,0-.41.33-.21.5,1.54,1.27,1.45,3.62.7,5.29-.08.14-.03.32.11.4.02.01.04.02.06.03,1.46.27,2.19,1.74,2.47,3.07.27,1.3.24,2.92-.6,4.03-.08.14-.03.32.11.4.02.01.04.02.07.03,1.35.36,1.65,2.38,1.68,3.53.04,1.37-.25,3.26-1.64,3.92-.14.08-.18.26-.1.4.02.04.06.08.1.1,1.14.68,1.37,2.43,1.34,3.62-.04,1.36-.5,3.09-1.88,3.67-.18.08-.31.33-.13.48,1,.85.79,2.51.43,3.61-.48,1.6-1.67,2.9-3.23,3.51-.16.05-.25.21-.2.37,0,.02.01.04.03.06.74,1.39,0,3.1-.83,4.27-.74,1.06-2.03,2.39-3.44,2.33-.16,0-.29.13-.29.29.17,2.94-2.74,5.04-5.44,5.13-.16,0-.29.14-.29.3,0,.02,0,.05,0,.07.28,1.38,1.49,2.09,2.76,2.45l-.2-.36c-.3,1.21-.13,2.48.49,3.56.67,1.01,1.81,1.61,3.03,1.59l-.29-.29c-.09,1.3.35,2.58,1.23,3.54.95.95,2.28,1.15,3.55.84l-.37-.28c-.05,1.34.33,2.8,1.36,3.72,1.11.99,2.62,1.02,3.96.52l-.33-.13c.46,1.18,1.39,2.12,2.57,2.58,1.28.44,2.55,0,3.57-.81h-.41c1,1.28,2.62,2.23,4.28,1.81.36-.09.71-.25,1.02-.45.15-.1.29-.21.43-.33.11-.09.21-.19.3-.3.02-.02-.15,0-.09-.03.3-.07.61-.1.91-.08l3.37-.31c.16-.01.32-.03.48-.04.2-.01.12-.02.25.05.66.32,1.38.5,2.12.5,1.67.02,3.13-1.11,3.52-2.73l-.43.17c1.22.56,2.66.79,3.93.26,1.3-.54,1.98-1.74,2.13-3.1l-.29.29c1.33.11,2.65-.33,3.66-1.2.9-.89,1.25-2.19.92-3.41l-.28.37c1.33-.04,2.64-.28,3.64-1.23.92-.93,1.26-2.29.89-3.54l-.28.37c1.35,0,2.78-.42,3.67-1.47.95-1.13.95-2.62.42-3.94l-.2.36c1.25-.4,2.45-1.19,3.01-2.42.58-1.28.24-2.65-.57-3.74l-.1.4c1.08-.73,1.97-1.81,2.14-3.14.18-1.43-.62-2.63-1.72-3.47-.3-.23-.59.28-.29.5.94.71,1.62,1.76,1.43,2.98-.23,1.09-.89,2.04-1.84,2.62-.14.08-.18.26-.1.4.71.96,1.06,2.13.52,3.26-.55,1.01-1.5,1.75-2.61,2.06-.15.04-.24.2-.2.36.46,1.15.54,2.47-.34,3.45-.8.89-2.03,1.23-3.19,1.23-.16,0-.29.14-.29.3,0,.02,0,.05,0,.07.33,1.09.02,2.27-.81,3.04-.88.79-2.02.95-3.15.99-.16,0-.29.14-.29.3,0,.02,0,.05,0,.07.28,1.05-.05,2.18-.85,2.92-.89.72-2.03,1.06-3.17.96-.16,0-.29.13-.29.29-.07,1.16-.8,2.17-1.88,2.61-1.1.35-2.29.25-3.31-.27-.14-.08-.32-.03-.4.11-.01.02-.02.04-.02.06-.33,1.41-1.62,2.38-3.07,2.3-.34-.01-.69-.07-1.02-.17-.33-.15-.67-.28-1.02-.4-.21,0-.43,0-.64.05l-3.01.27-1.16.1c-.42.04-.58.33-.91.6-1.64,1.3-3.67.34-4.81-1.12-.11-.11-.3-.11-.41,0-.9.7-2.03,1.06-3.13.61-.97-.45-1.72-1.27-2.09-2.27-.07-.11-.2-.17-.33-.13-1.18.43-2.51.47-3.47-.44-.88-.83-1.16-2.07-1.12-3.24,0-.16-.14-.29-.3-.29-.02,0-.05,0-.07,0-1.11.27-2.25.1-3.05-.76-.72-.85-1.07-1.95-.99-3.06,0-.16-.13-.29-.29-.29-1.05.03-2.03-.51-2.58-1.4-.5-.93-.63-2-.38-3.02.04-.15-.05-.31-.2-.36-1.08-.31-2.11-.86-2.36-2.05l-.28.37c1.62-.03,3.17-.66,4.34-1.78,1.1-1.01,1.72-2.44,1.68-3.93l-.29.29c1.63.08,3.09-1.39,3.95-2.61.96-1.36,1.67-3.27.83-4.86l-.17.43c1.76-.67,3.1-2.12,3.64-3.91.42-1.3.59-3.19-.58-4.17l-.13.49c1.62-.68,2.24-2.49,2.31-4.13.06-1.44-.26-3.41-1.62-4.22v.5c1.6-.77,1.99-2.92,1.93-4.52-.06-1.41-.5-3.56-2.1-3.99l.17.43c.95-1.25.96-3.11.64-4.57-.33-1.49-1.23-3.07-2.86-3.38l.17.43c.85-1.9.96-4.55-.79-6l-.21.49c.41-.01.82-.09,1.23-.1.16,0,.29-.13.29-.3,0-.02,0-.05,0-.07-.43-1.18-.41-2.47.52-3.4.86-.87,2.14-1.15,3.32-1.1.16,0,.29-.13.29-.29,0-1.27.53-2.45,1.74-2.98,1.17-.5,2.54-.3,3.67.22.14.08.32.03.4-.11.01-.02.02-.04.03-.06.29-1.18,1.02-2.19,2.27-2.47,1.16-.26,2.36.17,3.31.82.14.08.32.03.4-.1.62-1.07,1.64-1.78,2.91-1.66,1.24.11,2.3.91,3.05,1.85.11.11.3.11.41,0,.87-.82,2-1.26,3.17-.86,1.1.38,1.87,1.33,2.34,2.35.07.11.2.17.33.13,1.12-.39,2.32-.35,3.22.49.81.84,1.25,1.96,1.22,3.12,0,.16.13.29.29.29,1.15.05,2.22.52,2.76,1.58.45,1.01.48,2.16.08,3.19-.04.16.05.32.21.36.02,0,.04,0,.07,0,1.2.13,2.33.73,2.77,1.91.34,1.11.21,2.31-.36,3.32-.08.14-.03.32.11.4.02.01.04.02.06.03,1.18.31,2.19,1.05,2.46,2.29.25,1.15-.2,2.34-.86,3.27-.08.14-.03.32.11.4.02.01.04.02.06.03,1,.36,1.74,1.22,1.93,2.26.12,1.05-.16,2.1-.78,2.95-.08.14-.03.32.11.4.02.01.04.02.06.03,1.1.37,1.99,1.15,2.19,2.32.19,1.11-.24,2.23-.88,3.13-.08.14-.03.32.1.4.02.01.05.02.07.03,1.12.24,2.06.91,2.39,2.05.26,1.11.08,2.28-.5,3.25-.08.14-.03.31.1.4.99.65,1.68,1.65,1.56,2.87-.11,1.14-.86,2.1-1.73,2.79-.29.23.12.64.42.41Z"/>
  <path class="st3" d="M212.43,222.01c-1.43.69-2.89-.27-3.75-1.38-.26-.33-.75-.22-1.03,0-.72.64-1.74.84-2.65.52-.91-.37-1.51-1.22-1.89-2.09-.17-.28-.5-.42-.82-.33-1.03.38-2.2.47-3.05-.33-.8-.75-1.03-1.88-.99-2.93,0-.4-.34-.73-.74-.72-.06,0-.12,0-.18.02-.93.29-1.94.04-2.63-.65-.68-.73-.89-1.78-.86-2.75,0-.4-.33-.72-.73-.73-.89.03-1.73-.42-2.2-1.18-.44-.82-.56-1.78-.33-2.69.1-.4-.14-.8-.54-.9-.05-.01-.11-.02-.16-.02-.73-.05-1.59-.82-1.6-1.56-.02-.93-1.47-.94-1.45,0,.03,1.59,1.54,2.9,3.06,3.01l-.7-.92c-.27,1.31-.2,2.74.53,3.9.75,1.14,2.03,1.83,3.4,1.81l-.73-.73c-.09,1.41.4,2.8,1.36,3.85,1.06,1.06,2.55,1.3,3.97.95l-.92-.7c-.06,1.45.37,3.03,1.49,4.03,1.23,1.09,2.89,1.19,4.39.64l-.82-.33c.51,1.28,1.54,2.29,2.83,2.78,1.43.49,2.85-.03,3.99-.92h-1.03c1.32,1.68,3.5,2.59,5.52,1.61.84-.41.11-1.66-.73-1.25Z"/>
  <path class="st1" d="M211.1,254.88c0-4.34.27-7.09.44-11.42.31-7.99.89-15.52,1.29-23.5.2-4.07.95-15.68,1.01-17.34.06-1.88-.14-4.19-.15-6.47-1.53-.65-3.41-2.33-4.7-3.82-1.8-2.36-3.52-6.63-3.07-8.72.41-.18.86-.24,1.3-.18.42.96,1.54,4.3,2.67,5.7,1.63,2.03,2.48,2.81,3.89,2.98.14-3.33.48-7.96.65-10.83.09-1.52.56-7.53,1.18-9,.44-.08.9-.06,1.33.07.25.73.37,6.7.34,8.97-.03,2.48.04,4.69.08,7.19.03,1.62.46,12.37.47,13.63,2.44-1.62,5.84-5.93,7.1-8.68.52-1.14,1.46-3.03,1.83-4.07.4-.06.81.02,1.15.23-.08,1.14-.24,2.28-.5,3.39-.54,2.21-1.47,4.3-2.75,6.18-1.74,2.77-3.99,5.18-6.64,7.1-.04,1.04-.16,10.57-.16,14.24,0,7.26.01,14.52.33,21.76.18,4.2.44,8.97,1.61,13"/>
  <path class="st3" d="M211.82,254.88c0-4.62.33-9.23.55-13.84.23-5.01.56-10.02.85-15.03.39-6.59.75-13.17,1.14-19.76.07-1.11.14-2.22.19-3.33.1-2.25-.12-4.51-.14-6.77,0-.26-.14-.5-.36-.63-1.24-.6-2.37-1.42-3.33-2.41-.9-.86-1.67-1.85-2.28-2.95-.61-1.09-1.1-2.24-1.46-3.43-.28-.91-.55-2.03-.37-2.93l-.33.44c.3-.11.62-.14.93-.08l-.63-.36c.03.07.03.07,0,0,.02.04.04.09.05.13.03.07.06.15.09.22.08.2.16.41.24.61.18.46.36.93.55,1.39.39,1.02.86,1.99,1.43,2.92.64.98,1.41,1.87,2.29,2.64.71.63,1.59,1.02,2.53,1.13.4.05.71-.38.73-.73.14-3.3.38-6.59.59-9.88.14-2.2.3-4.4.58-6.58.13-1.05.23-2.19.63-3.18l-.51.51c.31-.06.64-.03.94.07l-.51-.51c.02.08.04.17.05.25.03.18-.01-.11,0,.04,0,.09.02.19.03.28.04.43.06.86.09,1.29.06,1.13.09,2.27.11,3.41.05,2.65,0,5.29.05,7.94.07,3.88.23,7.76.37,11.64.06,1.59.14,3.17.16,4.76,0,.4.34.73.74.72.12,0,.24-.03.35-.1,1.73-1.17,3.16-2.78,4.44-4.41,1.3-1.65,2.41-3.45,3.3-5.35.53-1.13,1.09-2.25,1.52-3.42l-.7.53c.13-.02.27-.02.4,0,.01,0,.31.09.23.03l-.21-.51c-.01.79-.11,1.58-.3,2.35-.16.85-.37,1.69-.65,2.5-.89,2.39-2.17,4.61-3.79,6.58-.76.96-1.58,1.86-2.47,2.69-.39.37-.8.73-1.22,1.07-.39.32-.88.6-1.24.96-.31.31-.23.99-.23,1.4-.01.65-.02,1.31-.03,1.96-.05,3.54-.1,7.08-.11,10.62-.02,5.68,0,11.36.14,17.04.07,2.88.17,5.76.35,8.63.13,2.74.46,5.46,1,8.15.14.64.3,1.26.48,1.89.26.9,1.66.51,1.4-.39-1.04-3.63-1.33-7.42-1.51-11.17-.21-4.11-.31-8.22-.36-12.33-.08-6.39-.06-12.78.02-19.17.02-2.04.02-4.09.1-6.13l-.36.63c2.64-1.94,4.9-4.33,6.7-7.06,1.67-2.44,2.8-5.21,3.31-8.13.14-.65.22-1.31.25-1.98,0-.94-1.11-1.16-1.88-1.09-.32.01-.6.23-.7.53-.45,1.23-1.06,2.4-1.61,3.59-.51,1.08-1.1,2.12-1.78,3.11-.77,1.13-1.62,2.2-2.54,3.21-.79.9-1.67,1.71-2.65,2.41l1.09.63c-.02-2.65-.18-5.31-.27-7.96-.12-3.32-.23-6.63-.27-9.95-.05-3.74.14-7.53-.24-11.26-.02-.25-.05-.5-.11-.74-.16-.6-.75-.67-1.28-.72-.58-.06-1.24-.03-1.48.59-.09.25-.17.5-.22.76-.36,1.76-.6,3.54-.72,5.34-.38,4.05-.59,8.13-.81,12.19-.03.57-.06,1.14-.08,1.71l.73-.73c-.71-.13-1.35-.49-1.84-1.02-.76-.71-1.42-1.53-1.96-2.42-.9-1.55-1.41-3.26-2.13-4.89-.13-.22-.37-.36-.63-.36-.57-.04-1.49-.03-1.87.47-.28.36-.24,1.02-.22,1.46.08,1.11.32,2.2.71,3.24.41,1.17.94,2.3,1.56,3.37.63,1.07,1.41,2.04,2.31,2.89,1.06,1.03,2.25,2.04,3.62,2.64l-.36-.63c.02,2.19.24,4.39.15,6.59-.03.86-.09,1.71-.14,2.57-.18,3.03-.36,6.06-.55,9.08-.49,8.26-1,16.52-1.42,24.78-.14,2.74-.24,5.48-.38,8.21-.14,2.5-.25,5-.25,7.5,0,.93,1.45.93,1.45,0h0Z"/>
  <path class="st0" d="M160.84,212.27c-2.05,2.35-5.03,1.57-6.79-.74-2.74,2.21-5.58.73-6.74-2.03-3.75,1.43-6.05-1.39-5.88-4.7-3.34.87-5.35-1.77-5.22-4.86-3.12-.02-4.47-2.82-3.84-5.68-3.12-.86-3.61-4.13-2.04-6.79-2.8-1.67-2.39-4.98-.12-7.13-2.67-1.92-1.99-5.13.41-7.05-2.96-1.89-2.33-5.21.1-7.2-2.13-2.09-1.25-4.97,1.08-6.63-2.3-2.65-.58-5.82,2.54-6.99-2.41-2.48-1.14-5.5,1.58-6.9-2.07-3.01-.03-5.89,3.13-6.67-1.13-3.41,1.51-5.59,4.68-5.54-1.38-3.66,1.52-5.97,4.89-5.77-.05-3.92,3.72-5.1,6.94-3.56.86-3.65,4.43-4.04,7.12-2.15,1.79-3.22,5.5-2.55,7.61.15,2.63-2.54,5.76-1.08,7.08,1.83,3.38-1.25,5.68,1.39,5.7,4.62,3.51.1,4.7,3.18,3.69,6.1,3.81.37,4.66,3.82,3.15,6.72,3.67.91,4.01,4.45,2.1,7.1,2.98,1.15,3.21,4.25,1.57,6.68,3.36,1.07,3.6,4.43,1.76,6.97,3.34.68,3.98,4.03,2.44,6.8,3.06,1.97,2.37,5.32-.14,7.25,3.04,2.24,2.12,5.51-.49,7.24,2.24,2.93.39,5.87-2.68,6.81,1.51,3.66-1.21,6.03-4.52,5.98.83,3.11-1.54,5.11-4.47,5.2l-.56.02v.02c.74,3.21-1.97,5.19-5.1,5.02-.36,3.54-3.74,4.45-6.67,3.06-.82,3.06-3.85,3.64-6.43,2.31"/>
  <path class="st3" d="M160.18,211.78c-.76.84-1.75,1.37-2.91,1.17-1.18-.2-2.14-.99-2.85-1.91-.26-.33-.75-.22-1.03,0-.94.74-2.16,1.11-3.31.64-1.1-.45-1.83-1.47-2.29-2.53-.17-.28-.5-.42-.82-.33-1.26.46-2.7.56-3.74-.42-.97-.92-1.27-2.29-1.22-3.58,0-.4-.34-.73-.74-.72-.06,0-.12,0-.18.02-1.18.29-2.38.11-3.24-.8-.84-.89-1.1-2.17-1.06-3.36,0-.4-.33-.72-.73-.73-1.1.03-2.14-.52-2.73-1.46-.54-1.01-.69-2.19-.41-3.3.1-.39-.13-.78-.51-.89-1.12-.27-2-1.14-2.28-2.26-.28-1.18.08-2.43.68-3.46.2-.35.08-.79-.26-.99-1.02-.56-1.64-1.65-1.6-2.81.05-1.23.76-2.34,1.63-3.18.28-.29.27-.76-.02-1.04-.04-.04-.08-.07-.13-.1-.94-.64-1.45-1.74-1.34-2.87.15-1.23.96-2.27,1.9-3.04.28-.29.28-.75-.01-1.04-.04-.04-.09-.07-.13-.1-1.04-.68-1.72-1.72-1.61-2.99.12-1.24.93-2.3,1.86-3.07.28-.29.28-.74,0-1.03-.78-.72-1.13-1.79-.93-2.83.28-1.08.94-2.03,1.86-2.67.35-.22.45-.67.24-1.02-.03-.04-.06-.08-.09-.12-.82-.88-1.05-2.16-.6-3.28.5-1.19,1.64-2.05,2.82-2.51.39-.12.61-.53.49-.92-.03-.11-.09-.21-.17-.3-.83-.88-1.29-2-.93-3.2.35-1.16,1.32-2.01,2.36-2.56.34-.2.46-.64.26-.99-.71-1.06-1.02-2.32-.37-3.49.64-1.14,1.84-1.8,3.07-2.11.38-.11.61-.51.51-.89-.38-1.19-.33-2.47.58-3.4.88-.91,2.18-1.23,3.41-1.23.4,0,.73-.34.72-.74,0-.06,0-.12-.02-.18-.46-1.26-.49-2.65.51-3.66.95-.96,2.37-1.26,3.68-1.19.4,0,.72-.33.73-.73,0-1.37.56-2.65,1.88-3.2,1.26-.52,2.76-.3,3.96.26.36.2.8.07,1-.28.03-.05.05-.1.06-.15.32-1.28,1.07-2.35,2.41-2.66,1.28-.29,2.6.22,3.65.94.35.2.79.08.99-.26.66-1.16,1.74-1.91,3.11-1.78,1.37.13,2.53,1.04,3.36,2.08.29.28.74.28,1.03,0,.93-.88,2.12-1.36,3.38-.93,1.21.42,2.04,1.49,2.56,2.61.17.28.5.42.82.33,1.18-.42,2.48-.42,3.44.48.95.88,1.32,2.18,1.34,3.44,0,.4.33.72.73.73,1.23.05,2.36.55,2.93,1.68.56,1.08.43,2.38.06,3.5-.1.39.14.79.53.89.06.01.11.02.17.02,1.24.13,2.44.76,2.9,1.97.45,1.2.18,2.55-.38,3.66-.2.35-.07.8.28,1,.05.03.1.05.15.06,1.28.33,2.35,1.1,2.65,2.44.28,1.27-.25,2.57-.98,3.6-.3.42.04.91.43,1.07,1.06.38,1.83,1.3,2.02,2.41.17,1.14-.27,2.28-.89,3.21-.2.35-.08.8.28,1,.05.03.1.05.16.07,1.17.39,2.12,1.22,2.33,2.48.2,1.22-.31,2.45-1,3.43-.2.35-.08.79.27,1,.05.03.11.05.17.07,1.2.26,2.21.94,2.56,2.16.29,1.22.09,2.5-.55,3.57-.19.35-.08.78.26.99,1.05.7,1.8,1.76,1.66,3.07-.14,1.25-.98,2.29-1.94,3.05-.41.32-.18.89.15,1.14.97.73,1.7,1.84,1.52,3.1-.17,1.21-1.03,2.22-2.01,2.89-.34.2-.46.65-.26.99.75,1.02,1.19,2.26.62,3.47-.54,1.16-1.69,1.9-2.87,2.27-.39.11-.61.51-.51.89.49,1.23.64,2.65-.3,3.71-.88.99-2.24,1.36-3.52,1.35-.41,0-.73.34-.72.74,0,.06,0,.12.02.17.36,1.16.02,2.42-.87,3.25-.95.86-2.23,1.02-3.46,1.06-.41,0-.73.34-.72.75,0,.06,0,.11.02.17.3,1.12-.05,2.31-.91,3.09-.93.84-2.27,1.09-3.49,1.03-.4,0-.72.33-.73.73-.08,1.2-.82,2.25-1.93,2.72-1.2.39-2.52.3-3.65-.28-.36-.2-.81-.07-1.01.29-.03.05-.05.1-.06.15-.3,1.08-.98,1.99-2.1,2.31-1.11.27-2.27.11-3.27-.44-.83-.42-1.57.83-.73,1.25,1.37.69,2.99,1.03,4.49.55,1.5-.51,2.64-1.75,3.01-3.29l-1.07.43c1.55.72,3.37,1.01,5,.33,1.7-.7,2.57-2.26,2.77-4.02l-.73.73c1.65.07,3.37-.38,4.59-1.53,1.17-1.15,1.63-2.84,1.21-4.43l-.7.92c1.67-.05,3.31-.36,4.57-1.55,1.27-1.2,1.58-2.94,1.17-4.59l-.7.92c1.68,0,3.5-.53,4.62-1.85,1.22-1.44,1.29-3.34.61-5.05l-.51.89c1.57-.5,3.09-1.5,3.79-3.04.74-1.64.38-3.41-.67-4.83l-.26.99c1.4-.95,2.52-2.34,2.72-4.05.22-1.84-.83-3.37-2.23-4.44l.15,1.14c1.35-1,2.21-2.52,2.37-4.18.11-1.78-.95-3.27-2.38-4.21l.26.99c.78-1.44,1.18-3.19.67-4.79-.53-1.59-1.89-2.77-3.55-3.07l.44,1.07c1-1.33,1.41-3,1.13-4.64-.36-1.71-1.72-2.86-3.33-3.39l.44,1.07c.91-1.29,1.27-2.88,1.02-4.43-.32-1.61-1.54-2.73-3.02-3.32l.44,1.07c.97-1.37,1.51-3.14,1.1-4.81-.43-1.77-1.93-2.91-3.64-3.36l.44,1.07c.77-1.51,1.12-3.34.46-4.95-.72-1.78-2.39-2.66-4.24-2.86l.7.92c.51-1.52.54-3.27-.25-4.71-.84-1.53-2.46-2.24-4.14-2.31l.73.73c-.03-1.65-.57-3.41-1.84-4.54-1.34-1.18-3.13-1.37-4.78-.78l.82.33c-.69-1.5-1.92-2.82-3.54-3.31-1.72-.53-3.42.14-4.68,1.33h1.03c-1.1-1.37-2.71-2.41-4.49-2.51-1.83-.11-3.38.96-4.26,2.51l.99-.26c-1.4-.96-3.18-1.48-4.86-1.06-1.77.45-2.91,1.93-3.33,3.65l1.07-.44c-1.7-.79-3.68-1.05-5.43-.26-1.76.79-2.61,2.59-2.6,4.45l.73-.73c-1.71-.08-3.57.41-4.78,1.69-1.29,1.37-1.44,3.28-.82,5l.7-.92c-1.63,0-3.37.5-4.5,1.73-1.21,1.3-1.4,3.09-.88,4.74l.51-.89c-1.61.41-3.2,1.37-3.99,2.88-.84,1.6-.56,3.39.42,4.86l.26-.99c-1.4.74-2.64,1.97-3.06,3.53-.45,1.67.18,3.29,1.34,4.51l.32-1.21c-1.65.64-3.13,1.77-3.81,3.45s-.19,3.42.95,4.76l.15-1.14c-1.22.89-2.26,2.13-2.55,3.65-.28,1.51.22,3.06,1.33,4.12v-1.03c-1.31,1.03-2.14,2.55-2.29,4.21-.1,1.75.92,3.21,2.33,4.13l-.15-1.14c-1.29,1-2.13,2.48-2.32,4.09-.15,1.68.75,3.12,2.06,4.1l-.15-1.14c-1.17,1.13-2.03,2.66-2.06,4.31,0,1.64.89,3.15,2.32,3.96l-.26-.99c-.81,1.39-1.22,3.09-.8,4.67.45,1.56,1.69,2.77,3.27,3.18l-.51-.89c-.32,1.51-.23,3.17.61,4.51.86,1.32,2.34,2.11,3.93,2.09l-.73-.73c-.05,1.61.4,3.29,1.56,4.46,1.22,1.23,2.95,1.5,4.58,1.1l-.92-.7c-.07,1.68.43,3.52,1.72,4.67,1.42,1.27,3.35,1.36,5.08.73l-.82-.33c.59,1.48,1.77,2.66,3.26,3.23,1.65.58,3.3-.02,4.61-1.05h-1.03c.91,1.23,2.26,2.07,3.76,2.33,1.53.19,3.06-.41,4.05-1.59.62-.69-.4-1.72-1.03-1.03h0Z"/>
  <path class="st1" d="M158.6,254.61c0-5.1.32-8.34.52-13.44.37-9.4,1.05-18.25,1.52-27.64.24-4.79,1.12-18.44,1.18-20.39.08-2.21-.11-5.62-.13-8.3-2.29-.96-4.34-2.43-6-4.28-1.84-2.16-3.58-6.93-3.19-9.77.42-.22.89-.31,1.37-.25.5,1.13,1.73,5.39,3.31,7.08,2.1,2.24,3.27,2.7,4.62,2.98.17-3.86.57-9.05.76-12.75.07-1.32.89-8.8,1.33-10.38.52-.1,1.06-.07,1.56.08.15,1.2.19,7.6.23,10.22.05,2.91.21,5.86.26,8.79.03,1.91.54,14.55.55,16.03,2.87-1.91,6.87-6.98,8.35-10.21.61-1.34,1.72-3.57,2.15-4.79.44-.06,1.16.06,1.35.27.04.59-.36,2.99-.59,3.99-.64,2.6-1.73,5.06-3.24,7.27-2.87,3.71-5.18,6.18-7.8,8.35-.05,1.22-.19,12.43-.19,16.74,0,8.54.02,17.08.39,25.59.22,4.94.4,10.66,1.78,15.4"/>
  <path class="st3" d="M159.33,254.61c0-5.51.4-11.03.65-16.53.28-6.01.68-12.01,1.03-18.02.46-7.81.9-15.63,1.35-23.44.07-1.15.15-2.3.19-3.44.1-2.78-.11-5.56-.13-8.33,0-.26-.14-.5-.36-.63-2.72-1.22-5.33-2.98-6.83-5.62-.69-1.23-1.22-2.54-1.59-3.9-.39-1.26-.53-2.59-.41-3.91l-.36.63c.31-.15.66-.2,1-.15l-.63-.36c-.08-.18.03.08.05.11.04.1.07.19.11.29.08.21.15.41.22.62.2.55.4,1.1.61,1.65.44,1.25,1.01,2.45,1.7,3.59.79,1.16,1.8,2.16,2.96,2.96.81.57,1.74.97,2.72,1.16.4.1.8-.14.9-.53.01-.05.02-.11.02-.17.18-4.06.51-8.12.73-12.18.13-2.43.44-4.85.75-7.26.11-1.18.31-2.34.58-3.49l-.51.51c.39-.08.8-.05,1.18.08l-.53-.7c.1.86.1,1.74.12,2.6.03,1.38.05,2.76.07,4.13.04,3.33.14,6.65.25,9.97.14,4.31.29,8.61.44,12.92.07,1.81.16,3.61.18,5.42,0,.4.34.73.74.72.12,0,.24-.03.35-.1,2.05-1.38,3.75-3.31,5.26-5.25.82-1.04,1.58-2.12,2.28-3.25.57-.98,1.09-1.98,1.56-3.02.61-1.29,1.25-2.57,1.74-3.91l-.7.53c.28-.05.57-.03.84.06l-.21-.51c-.01.96-.14,1.91-.37,2.83-.18.98-.44,1.95-.76,2.9-.45,1.27-1.01,2.5-1.69,3.67-.85,1.41-1.83,2.74-2.92,3.97-.93,1.11-1.9,2.18-2.93,3.21-.48.48-.97.94-1.47,1.4-.23.21-.46.41-.69.61-.25.22-.62.43-.75.74-.17.41-.08,1.03-.09,1.46-.01.78-.03,1.57-.04,2.35-.06,4.16-.11,8.32-.13,12.48-.02,6.74,0,13.48.18,20.22.09,3.35.21,6.7.39,10.05.12,3.18.48,6.35,1.09,9.47.15.73.33,1.45.54,2.17.26.9,1.66.51,1.4-.39-1.22-4.23-1.46-8.67-1.66-13.05-.22-4.85-.36-9.7-.42-14.55-.09-7.55-.07-15.11.02-22.66.03-2.42.02-4.85.11-7.27l-.21.51c1.36-1.13,2.65-2.35,3.86-3.65,1.46-1.52,2.81-3.14,4.06-4.84,1.9-2.76,3.14-5.91,3.65-9.21.15-.74.25-1.49.28-2.24,0-1.03-1.25-1.26-2.08-1.17-.32.01-.6.23-.7.53-.4,1.11-.93,2.18-1.44,3.24-.46.98-.9,1.96-1.44,2.89-1.27,2.16-2.79,4.16-4.52,5.97-.83.92-1.76,1.74-2.77,2.46l1.09.63c-.03-3.89-.27-7.78-.41-11.66-.19-5.2-.38-10.4-.44-15.61-.02-1.55-.04-3.11-.07-4.66-.02-1.03,0-2.09-.13-3.11-.01-.32-.22-.6-.53-.7-.74-.21-2.2-.46-2.48.51-.12.48-.21.96-.28,1.45-.25,1.54-.44,3.08-.61,4.63-.37,3.15-.54,6.3-.75,9.46-.17,2.56-.34,5.13-.45,7.69l.92-.7c-.87-.17-1.7-.53-2.42-1.05-1.03-.72-1.9-1.65-2.57-2.71-1.11-1.87-1.64-3.98-2.5-5.96-.13-.22-.37-.36-.63-.36-.64-.04-1.84.04-2.07.79-.12.57-.14,1.15-.06,1.73.12,1.34.41,2.66.86,3.93.92,2.65,2.32,4.94,4.54,6.7,1.28,1.01,2.69,1.85,4.18,2.51l-.36-.63c.02,2.55.18,5.1.15,7.65-.01,1.02-.08,2.04-.14,3.06-.2,3.55-.42,7.09-.64,10.64-.23,3.86-.43,7.72-.65,11.58-.34,6-.74,12-1.05,18.01-.17,3.26-.28,6.53-.46,9.79-.16,3.01-.31,6.02-.31,9.04,0,.93,1.45.93,1.45,0h0Z"/>
  <path class="st3" d="M152.94,160.14c-1.14-2.37-4.71-2.65-6.45-.82-.24.25-.45.53-.61.84-.2.4-.01.84.18,1.21.26.48.66.88,1.15,1.13,1,.49,2.15.61,3.24.33,1.1-.25,2.3-.95,2.57-2.13.1-.39-.13-.78-.51-.89-.39-.1-.78.12-.89.51-.01.04-.02.08-.03.13-.03.1-.04.07.01-.01-.05.09-.1.18-.15.27-.06.11.09-.09,0,0-.03.03-.06.07-.09.1s-.07.07-.1.1c-.02.02-.16.13-.08.06s-.04.03-.07.04c-.04.03-.08.05-.13.08-.1.06-.2.1-.3.16-.11.06.11-.04-.05.02-.05.02-.1.04-.15.06-.11.04-.23.07-.34.1-.11.03-.22.05-.33.07-.07.01-.16.02-.03,0-.07,0-.13.01-.2.02-.24.02-.49.02-.73,0-.03,0-.2-.02-.1,0s-.07-.01-.09-.02c-.12-.02-.23-.05-.34-.08-.06-.02-.12-.04-.18-.06-.03,0-.18-.07-.08-.03s-.05-.03-.08-.04c-.05-.03-.11-.06-.16-.09s-.1-.07-.15-.1c-.07-.04.04.04.05.04-.03-.02-.05-.04-.08-.06-.09-.08-.17-.16-.24-.25.1.12,0,0-.03-.06-.03-.05-.06-.11-.09-.16-.04-.07.02.05.02.05-.01-.03-.03-.07-.04-.1-.02-.07-.04-.14-.06-.21l-.07.56c.23-.46.61-.83,1.08-1.06.06-.03.11-.06.17-.08-.15.06.06-.02.09-.03.13-.04.26-.08.4-.11.06-.01.12-.02.19-.03-.17.03.05,0,.09,0,.14,0,.27-.01.41,0,.06,0,.12,0,.19.01.17,0-.1-.02.05,0,.14.03.28.05.42.1.12.03.23.07.35.12-.16-.06.04.02.08.04.06.03.12.07.19.1.1.06.2.13.3.2-.13-.1,0,.01.04.04.06.05.12.11.17.16.04.04.08.09.12.13.12.14-.07-.12.03.04.07.12.15.23.21.36.21.34.65.46.99.26.34-.21.45-.64.26-.99Z"/>
  <path class="st0" d="M176.62,164.45c.98-2.1,4.67-2.54,6.06.02-.62,2.69-5.61,2.09-6.06-.02Z"/>
  <path class="st3" d="M177.25,164.81c.07-.13.14-.25.21-.37.08-.13-.07.07.03-.05.04-.05.08-.09.12-.14.05-.05.1-.1.15-.15.02-.02.19-.16.07-.06.1-.08.2-.15.31-.21.05-.03.11-.06.17-.09.02-.01.22-.1.14-.07.05-.02.1-.03.15-.06.06-.02.12-.04.18-.06.13-.04.27-.07.41-.09.18-.04-.05,0,.1-.01.07,0,.13-.01.2-.01.49-.03.98.06,1.42.28.49.24.89.63,1.14,1.12l-.07-.56c-.03.11-.06.22-.1.33.05-.12.01-.04-.02.02s-.08.12-.11.18c-.06.11.08-.07-.01.02-.04.04-.07.08-.11.12s-.08.07-.11.11c-.02.02-.04.03-.06.05-.07.06.11-.07.02-.02-.09.06-.18.12-.27.17-.05.03-.1.05-.15.07-.07.04.04-.02.05-.02-.03.01-.07.03-.1.04-.23.08-.47.14-.71.18.13-.02.03,0-.04,0-.06,0-.12,0-.17.01-.13,0-.25,0-.38,0s-.25-.02-.38-.03c-.15-.01.1.02-.04,0-.07-.01-.13-.02-.2-.04-.23-.05-.46-.12-.69-.2-.03,0-.05-.02-.08-.03-.1-.04.11.05.02,0-.05-.02-.1-.05-.15-.07-.1-.05-.2-.11-.3-.17-.03-.02-.18-.12-.09-.06s-.06-.05-.08-.07c-.08-.08-.16-.16-.24-.24.1.11.02.02-.02-.04-.03-.05-.05-.09-.08-.14-.08-.13.01.09,0-.02-.01-.06-.04-.12-.05-.18-.11-.39-.51-.61-.89-.51-.39.11-.61.51-.51.89.25,1.09,1.28,1.77,2.28,2.09,1.07.36,2.23.35,3.3-.03.55-.2,1.03-.55,1.39-1,.19-.25.34-.52.44-.82.09-.22.1-.47.03-.69-.08-.18-.18-.35-.3-.5-.82-1.11-2.13-1.75-3.52-1.7-1.42.05-2.9.78-3.54,2.1-.19.35-.08.78.26.99.35.2.79.08.99-.26Z"/>
  <path class="st0" d="M147.49,146.86c-.21-2.21-3.39-3.78-5.47-1.92-.3,2.62,4.38,3.68,5.47,1.92Z"/>
  <path class="st3" d="M148.22,146.86c-.3-2.81-3.77-4.4-6.14-2.87-.17.11-.33.23-.48.36-.21.18-.32.45-.31.72-.01.27.02.55.09.81.15.51.43.97.81,1.33.81.73,1.85,1.16,2.94,1.23,1.12.1,2.36-.22,3-1.21.2-.35.09-.79-.26-.99-.35-.2-.79-.09-.99.26h0c-.06.09-.05.06.02-.01-.03.04-.06.07-.1.11s-.06.06-.09.09c-.11.11.11-.07-.02.02-.08.05-.17.09-.25.14-.11.07.13-.04,0,0-.06.02-.12.04-.17.06-.1.03-.2.05-.3.07-.03,0-.19.03-.07.01s-.1,0-.13.01c-.23.01-.47.01-.7-.01-.08,0-.14-.02-.02,0-.05-.01-.11-.02-.16-.03-.12-.02-.24-.05-.37-.08-.11-.03-.22-.06-.33-.1-.06-.02-.12-.04-.17-.07.14.05.02,0-.05-.02-.21-.1-.41-.22-.6-.35-.11-.07.09.08-.01-.01-.04-.04-.09-.08-.13-.12-.08-.08-.15-.17-.23-.25-.05-.05.04.05.04.05-.02-.03-.04-.05-.06-.08-.03-.05-.07-.11-.1-.16-.01-.03-.1-.18-.05-.08s-.03-.08-.04-.11c-.02-.05-.03-.11-.04-.16-.05-.19,0,.06-.01-.05,0-.14,0-.27,0-.41l-.21.51c.21-.18.44-.32.69-.43.05-.02.04-.02-.01,0,.03-.01.06-.02.1-.04.07-.02.13-.04.2-.06s.13-.03.2-.05c.02,0,.22-.04.14-.03s.11,0,.14,0c.08,0,.16,0,.23,0,.07,0,.13,0,.2,0,.03,0,.23.03.07,0,.26.04.51.11.76.21-.14-.05.05.02.07.03.06.03.12.06.17.09.11.06.22.13.33.2.01,0,.18.14.06.04.05.04.1.08.15.12.09.09.18.18.27.27.03.03.12.15.04.05.04.05.07.1.11.15.07.1.12.21.18.32.07.12-.02-.09.04.08.02.06.04.12.06.18s.03.12.04.18c.05.18,0-.06.02.08.01.4.33.71.73.73.4,0,.72-.33.72-.72Z"/>
  <path class="st3" d="M149.15,147.59c.56,2.35,1.37,4.63,2.42,6.81,1.14,2.53,2.53,4.94,4.16,7.19.84,1.17,1.78,2.26,2.81,3.25.68.64,1.71-.38,1.03-1.03-1.81-1.79-3.36-3.82-4.6-6.05-1.33-2.24-2.45-4.6-3.36-7.04-.43-1.15-.79-2.33-1.06-3.52-.2-.91-1.6-.53-1.4.39h0Z"/>
  <path class="st3" d="M218.49,221.94c1.18.59,2.59.89,3.88.47,1.3-.45,2.29-1.52,2.61-2.86l-1.07.43c1.35.62,2.91.87,4.32.28,1.47-.61,2.23-1.96,2.4-3.49l-.73.73c1.45.11,2.88-.37,3.97-1.33,1.01-1,1.4-2.46,1.04-3.83l-.7.92c1.44-.05,2.87-.32,3.95-1.36,1.09-1.04,1.35-2.54,1-3.96l-.7.92c1.45,0,3.02-.46,3.98-1.6,1.05-1.25,1.13-2.88.54-4.36l-.51.89c1.36-.43,2.66-1.3,3.27-2.62.6-1.39.38-3-.57-4.18l-.26.99c1.21-.82,2.18-2.02,2.35-3.52.18-1.6-.72-2.91-1.94-3.84l.15,1.14c1.16-.86,1.9-2.18,2.04-3.61.09-1.54-.83-2.82-2.07-3.64l.26.99c.67-1.24,1.01-2.76.57-4.13-.46-1.38-1.63-2.4-3.07-2.66l.44,1.07c.86-1.15,1.21-2.6.96-4.01-.31-1.48-1.5-2.47-2.88-2.93l.44,1.07c.78-1.11,1.09-2.49.87-3.83-.28-1.4-1.34-2.35-2.62-2.87l.43,1.07c.89-1.19,1.23-2.7.94-4.15-.38-1.53-1.67-2.52-3.15-2.9l.44,1.07c.67-1.31.96-2.88.39-4.28-.63-1.55-2.07-2.3-3.68-2.48l.7.92c.49-1.33.41-2.8-.23-4.06-.73-1.32-2.13-1.94-3.59-2l.73.73c-.03-1.43-.49-2.94-1.59-3.91-1.14-.98-2.74-1.24-4.14-.69l.82.33c-.57-1.34-1.68-2.37-3.06-2.85-1.49-.45-2.96.13-4.05,1.16h1.03c-.93-1.23-2.34-2.01-3.88-2.15-1.58-.09-2.92.84-3.68,2.17l.99-.26c-1.21-.88-2.73-1.21-4.19-.9-1.53.39-2.52,1.67-2.88,3.15l1.07-.43c-1.48-.68-3.17-.91-4.7-.22-1.52.68-2.25,2.24-2.25,3.85l.73-.73c-1.47-.07-3.07.36-4.11,1.46-1.11,1.18-1.26,2.82-.73,4.3l.7-.92c-.5-.08-1.01-.08-1.52,0-.39.11-.61.51-.51.89.11.38.51.6.89.51.38-.03.76-.02,1.13.06.4,0,.73-.33.73-.73,0-.06,0-.12-.03-.19-.37-1.03-.39-2.14.43-2.96.78-.78,1.94-1.01,3.01-.96.4,0,.72-.33.73-.73,0-1.11.44-2.16,1.53-2.6,1.06-.36,2.23-.28,3.23.22.36.2.81.07,1-.28.03-.05.05-.1.06-.15.26-1.05.87-1.92,1.96-2.16,1.04-.23,2.13.2,2.98.78.35.2.79.08.99-.26.54-.94,1.41-1.56,2.53-1.45,1.12.12,2.07.87,2.75,1.72.29.28.74.28,1.03,0,.76-.71,1.73-1.11,2.75-.75.99.35,1.66,1.23,2.08,2.15.17.28.5.42.82.33.96-.34,2.01-.35,2.8.38.73.75,1.12,1.77,1.09,2.82,0,.4.33.72.73.73,1,.04,1.92.44,2.38,1.37.39.91.4,1.94.03,2.86-.1.39.14.79.53.9.06.01.11.02.17.02,1,.11,1.97.61,2.35,1.59.31.99.2,2.07-.32,2.98-.2.35-.07.8.28,1,.05.03.1.05.15.06,1.04.27,1.92.89,2.15,1.98.22,1.04-.23,2.1-.81,2.94-.3.42.04.91.43,1.07.86.31,1.48,1.06,1.62,1.96.08.93-.18,1.86-.74,2.61-.2.35-.08.8.28,1,.05.03.1.05.16.07.95.32,1.73.99,1.89,2.02.16,1-.27,1.99-.84,2.8-.2.35-.08.8.27,1,.05.03.11.05.17.07.97.21,1.79.75,2.08,1.75.23,1,.07,2.04-.46,2.92-.19.35-.08.78.26.99.85.57,1.47,1.43,1.34,2.5-.12,1.02-.82,1.86-1.6,2.48-.41.32-.18.89.15,1.14.79.6,1.38,1.52,1.22,2.54-.21.96-.8,1.79-1.64,2.31-.34.2-.46.65-.26.99.61.83.98,1.83.52,2.82-.44.95-1.39,1.55-2.35,1.86-.39.11-.61.51-.51.89.4,1,.54,2.15-.23,3.02-.72.82-1.83,1.1-2.88,1.1-.41,0-.73.34-.72.74,0,.06,0,.12.02.18.29.94.02,1.96-.7,2.62-.79.71-1.83.83-2.84.86-.41,0-.73.34-.72.75,0,.06,0,.11.02.17.24.9-.04,1.87-.74,2.49-.77.69-1.86.88-2.86.84-.4,0-.72.33-.73.73-.06.96-.67,1.81-1.56,2.19-.98.32-2.05.24-2.97-.23-.36-.2-.81-.07-1.01.29-.03.05-.05.1-.06.15-.19.88-.84,1.59-1.7,1.87-.9.22-1.85.09-2.66-.36-.83-.42-1.57.83-.73,1.25h0Z"/>
</svg>