<?xml version="1.0" encoding="UTF-8"?>
<svg id="_レイヤー_1" data-name="レイヤー_1" xmlns="http://www.w3.org/2000/svg" version="1.1" viewBox="0 0 375 375">
  <!-- Generator: Adobe Illustrator 29.0.0, SVG Export Plug-In . SVG Version: 2.1.0 Build 186)  -->
  <defs>
    <style>
      .st0, .st1 {
        fill: #fffaf0;
      }

      .st1 {
        font-family: OmnesSemiCondMedium, 'Omnes SemiCond';
        font-size: 16px;
      }
    </style>
  </defs>
  <g>
    <g>
      <path class="st0" d="M197.71,193.65c-.2.54-.28,1.1-.37,1.67-.09.56-.27,1.09-.41,1.63-.14.53-.17,1.05-.26,1.59-.09.54-.28,1.05-.43,1.57-.07.25-.14.54-.34.72-.22.2-.68.2-.88-.05-.26-.34.13-1.27.22-1.57.3-1,.39-2.06.68-3.07.29-1.01.65-1.99.94-3,.3-1.01.53-2.05.58-3.1.01-.31-.12-1.02.36-1.02.36,0,.86.33.88.7.02.37-.2.74-.28,1.09-.23.92-.36,1.94-.69,2.83Z"/>
      <path class="st0" d="M200.3,194.59c-.18.48-.25.98-.33,1.49-.08.5-.25.97-.39,1.46-.13.44-.2.87-.25,1.33-.06.52-.23,1.01-.37,1.5-.15.49-.45,1.43-1.16.9-.33-.24-.1-.87-.02-1.18.26-1.01.41-2.03.72-3.03.31-1.01.69-2,.98-3.02.29-1.03.5-2.08.46-3.16-.01-.31-.01-.64.4-.59.36.04.82.31.83.7,0,.33-.18.67-.25.99-.2.85-.31,1.79-.61,2.61Z"/>
      <path class="st0" d="M201.11,197.42c.19-.5.24-1.02.33-1.55.1-.55.3-1.06.43-1.6.22-.91.23-1.85.6-2.73.12-.28.28-.47.59-.47.27,0,.56.11.6.4.02.14-.05.25-.07.38-.1.47-.26.94-.34,1.42-.34,2.2-1.44,4.21-1.7,6.41-.05.45-.03.88-.03,1.33,0,.13.02.28-.08.38-.18.18-.51.02-.69-.07-.4-.2-.52-.4-.42-.83.12-.52.27-1.04.4-1.56.12-.49.18-1.04.37-1.51Z"/>
    </g>
    <g>
      <path class="st0" d="M170.05,199.88c-.52,1.03-.62,2.32-.73,3.46-.11,1.17.21,2.37.47,3.5.11.48.72,1.89-.27,1.91-.38,0-.49-.44-.6-.72-.21-.54-.33-1.07-.45-1.64-.24-1.12-.43-2.15-.31-3.31.12-1.17.46-2.3.92-3.38.45-1.06,1.02-2.08,1.61-3.07.28-.47.55-.94.85-1.4.16-.24.4-.53.69-.34.44.29.47.92.17,1.29-.27.34-.61.61-.86.96-.62.86-1.05,1.77-1.5,2.72Z"/>
      <path class="st0" d="M168.02,197.89c-.8,1.42-1.09,3.08-1.31,4.67-.23,1.65.06,3.16.45,4.76.18.75.45,1.45.7,2.17.1.29.27.71.16,1.02-.12.33-.45.44-.72.24-.41-.3-.66-1.07-.84-1.53-.29-.73-.45-1.5-.65-2.26-.83-3.23-.2-6.53,1.34-9.46.74-1.41,1.68-2.72,2.7-3.94.52-.61,1.05-1.22,1.62-1.79.23-.23.75-.76,1.08-.4.16.17.21.59.16.81-.09.38-.54.67-.83.9-.45.35-.87.7-1.26,1.12-.54.56-1.03,1.16-1.47,1.8-.42.61-.74,1.27-1.13,1.91Z"/>
      <path class="st0" d="M162.78,203.21c.21-2.27.55-4.53,1.53-6.61.47-1.01,1.06-1.97,1.67-2.9.59-.89,1.2-1.76,1.96-2.52.72-.71,1.51-1.33,2.35-1.9.35-.23.69-.47,1.06-.66.37-.19.98-.54,1.41-.39,1.04.37-.74,1.32-1.02,1.5-.82.52-1.63,1.12-2.35,1.76-1.5,1.32-2.7,3.11-3.63,4.86-.96,1.81-1.63,3.79-1.91,5.82-.3,2.21-.14,4.49.6,6.6.35.99.83,1.95,1.42,2.82.25.36,1.17,1.25.89,1.73-.18.3-.79.22-1.03.07-.4-.24-.67-.76-.89-1.16-.43-.78-.77-1.64-1.07-2.47-.75-2.07-1.13-4.35-.98-6.55Z"/>
    </g>
    <g>
      <path class="st0" d="M139.5,239.35c-3.2.3-6.52.11-9.69-.29-2.33-.29-4.62-.77-6.89-1.41-2.55-.72-5.11-1.55-7.49-2.74-1.11-.55-2.02-1.3-2.53-2.46-.52-1.19-.49-2.54-.18-3.79.64-2.57,2.15-4.93,3.59-7.12,2.93-4.47,6.31-8.69,10.09-12.46,7.17-7.16,16.29-12.71,26.48-13.91,2.37-.28,4.93-.46,7.31-.07.25.04.86.11.99.33.16.27-.39.29-.58.32-1.16.16-2.34.16-3.5.22-4.94.29-9.77,1.16-14.32,3.15-9.56,4.18-17.36,11.74-23.42,20.09-1.57,2.16-3.08,4.4-4.31,6.77-1.03,1.99-2.22,4.85-.55,6.83.75.9,2,1.35,3.05,1.81,1.25.55,2.55.99,3.84,1.43,2.59.87,5.26,1.58,7.97,1.95,10.62,1.45,21.58-.52,30.74-6.21,4.18-2.6,7.97-5.89,10.98-9.79,2.95-3.82,4.92-8.12,6.16-12.76.16-.6.31-1.21.47-1.81.11-.43.18-1.02.44-1.4.36-.52.44.72.46.92.18,2.16-.55,4.4-1.31,6.4-1.56,4.14-4.08,7.93-7.03,11.22-6.81,7.58-16.31,12.55-26.32,14.25-1.48.25-2.97.33-4.46.53Z"/>
      <path class="st0" d="M144.62,232.89c-4.37.37-8.8.11-13.11-.7-2.12-.4-4.21-.93-6.26-1.6-1.68-.55-4.04-1.46-3.99-3.6.02-.97.55-1.93.96-2.79.46-.95.98-1.88,1.55-2.77,1.18-1.88,2.53-3.65,3.9-5.4,2.64-3.36,5.53-6.56,8.84-9.28,6.14-5.06,13.76-8.87,21.86-8.83.71,0,1.52-.02,2.21.19.16.05.62.18.48.4-.13.21-.82.22-1.04.25-1.96.25-3.94.34-5.89.66-3.78.62-7.45,2.12-10.76,4.02-7.31,4.2-13.34,10.7-17.99,17.67-.58.87-1.14,1.77-1.63,2.7-.47.87-1.03,1.84-1.26,2.8-.5,2.14,2.98,2.86,4.42,3.3,4.28,1.32,8.69,2.09,13.17,2.18,7.9.15,15.68-2.08,22.16-6.61,3.37-2.35,6.37-5.29,8.64-8.72,1.17-1.77,2.14-3.67,2.86-5.67.65-1.79,1.02-3.64,1.57-5.45.09-.28.35-1.15.6-.51.22.57.24,1.27.19,1.87-.16,1.76-.75,3.53-1.43,5.16-1.35,3.19-3.33,6.1-5.65,8.66-5.43,5.99-12.92,10.05-20.84,11.55-1.18.22-2.37.32-3.56.51Z"/>
      <path class="st0" d="M133.56,219.97c-.44.66-.85,1.35-1.2,2.07-.2.41-.56.99-.33,1.46.31.61,1.22.84,1.81,1.02.74.22,1.51.4,2.27.57,3.29.72,6.71.99,10.07.8,3.2-.18,6.37-.81,9.37-1.96,2.93-1.13,5.65-2.8,8.12-4.74,2.49-1.97,4.75-4.31,6.41-7.03.66-1.09,1.21-2.24,1.69-3.43.31-.77.58-1.55.83-2.34.18-.56.32-1.16.58-1.7.07-.14.24-.49.42-.48.2,0,.2.34.21.49.05.7-.1,1.44-.25,2.12-.3,1.33-.79,2.62-1.35,3.86-1.27,2.83-3.23,5.29-5.46,7.43-4.68,4.48-10.51,7.5-16.92,8.56-3.36.56-6.83.58-10.21.12-1.71-.23-3.39-.59-5.06-1.04-1.25-.34-3.34-.78-3.55-2.35-.1-.71.29-1.39.6-2,.38-.75.82-1.47,1.29-2.16.9-1.35,1.92-2.63,2.96-3.88,2.06-2.48,4.3-4.8,6.78-6.87,2.41-2.01,5.03-3.81,7.83-5.23,2.61-1.32,5.55-2.45,8.49-2.64.23-.01,1.36-.15,1.43.21.06.31-.87.68-1.06.77-1.11.49-2.43.61-3.6.92-2.58.67-5.04,1.7-7.33,3.05-5.23,3.11-9.59,7.39-13.28,12.2-.55.71-1.06,1.45-1.56,2.2Z"/>
    </g>
    <g>
      <path class="st0" d="M179.35,190.04c.11-.67.13-1.35.12-2.03-.01-.76.07-1.5.11-2.26.04-.76-.02-1.49-.08-2.24-.05-.7-.02-1.4-.04-2.1-.01-.37-.06-.77.05-1.12.1-.32.49-.59.82-.39.23.15.25.48.27.73.04.47.08.94.08,1.41,0,1.44.16,2.85.04,4.3-.12,1.47-.35,2.92-.5,4.39-.15,1.47-.27,2.94-.12,4.41.04.43.13,1.12-.52.96-1.11-.28-.61-1.48-.55-2.3.05-.68.12-1.37.18-2.05.05-.56.02-1.17.14-1.72Z"/>
      <path class="st0" d="M176.74,189.07c.12-.89.11-1.79.11-2.68,0-.92.11-1.83.1-2.74-.01-.9-.19-1.79-.23-2.68-.03-.65-.11-1.3-.11-1.95,0-.4.16-1.11.74-.93.34.1.37.57.41.86.08.66.13,1.31.16,1.97.05.92.19,1.82.2,2.75.01,2.61-.5,5.19-.65,7.79-.05.93-.07,1.86-.02,2.78.02.33.13.78.03,1.11-.14.45-.59.3-.9.11-.47-.3-.36-.89-.29-1.37.24-1.66.31-3.34.43-5.01Z"/>
      <path class="st0" d="M174.13,187.98c.11-.8.1-1.62.08-2.43-.01-.82.03-1.64.04-2.46,0-.86-.11-1.68-.23-2.53-.12-.82-.15-1.66-.26-2.49-.05-.41-.15-.85-.07-1.27.06-.34.42-.72.79-.48.26.17.3.57.35.85.1.57.19,1.14.24,1.72.15,1.66.4,3.26.35,4.94-.05,1.65-.26,3.29-.41,4.93-.15,1.64-.25,3.3-.13,4.94.03.46.21,1.52-.6,1.23-1.07-.38-.51-1.83-.46-2.68.05-.75.13-1.51.17-2.26.04-.66.04-1.35.13-2Z"/>
    </g>
    <g>
      <path class="st0" d="M171.51,154.97c-.43.78-.89,1.55-1.28,2.36-.91,1.88-1.42,3.94-1.17,6.03.47,3.94,3.01,7.23,5.97,9.69,1.56,1.3,3.19,2.5,4.88,3.63,1.51,1,3.13,1.86,4.61,2.92.19.13,1.37,1.02.68,1.22-.27.08-.69-.13-.93-.23-.42-.17-.83-.39-1.23-.61-1.55-.87-3.07-1.78-4.54-2.78-3.25-2.24-6.47-4.66-8.57-8.07-1.04-1.69-1.83-3.63-2.02-5.62-.2-2.04.28-4.04,1.12-5.89.83-1.84,1.99-3.51,2.72-5.41.64-1.67,1.34-4.08-.2-5.48-1.42-1.29-3.6-1.38-5.39-1.74-.96-.19-1.92-.37-2.88-.58-.71-.15-1.52-.3-2.14-.69-.79-.49.18-.83.7-.85.78-.03,1.62.27,2.36.47.97.26,1.94.53,2.91.77.71.18,1.43.29,2.14.48,1.75.47,3.59,1.41,4.02,3.33.42,1.84-.3,3.88-1.03,5.56-.23.51-.48,1.01-.73,1.51Z"/>
      <path class="st0" d="M175.75,150.97c-.49,2.06-1.31,4.04-2.27,5.92-.93,1.83-1.95,3.77-1.82,5.89.24,3.99,3.59,7.03,6.49,9.36,1.63,1.3,3.34,2.49,5.13,3.57.75.45,1.5.88,2.24,1.33.4.24.79.49,1.17.77.23.17.6.41.64.73.08.69-1.33-.01-1.57-.12-.68-.31-1.32-.7-1.97-1.05-1.82-.97-3.53-2.11-5.18-3.34-3.18-2.36-6.39-5.14-7.68-9.02-.68-2.04-.5-4.09.34-6.06.8-1.9,1.97-3.61,2.74-5.53.77-1.94,1.32-4.07,1.04-6.17-.27-2.03-1.36-3.55-3.22-4.4-1.94-.89-4.14-1.08-6.21-1.49-.9-.18-1.8-.36-2.69-.58-.69-.17-1.47-.34-2.07-.74-.66-.44.07-.72.56-.79.75-.1,1.6.23,2.31.42,1.67.45,3.33.86,5.02,1.23,1.84.4,3.78.94,5.22,2.21,1.52,1.34,2.12,3.4,2.09,5.38-.01.82-.07,1.68-.28,2.48Z"/>
      <path class="st0" d="M173.28,160.85c.3-1.09.89-2.09,1.4-3.1.51-1.01,1.02-2.02,1.45-3.07.85-2.1,1.48-4.47,1.64-6.74.15-2.13-.3-4.28-1.8-5.87-1.47-1.55-3.61-2.31-5.6-2.93-2.1-.65-4.26-1.11-6.37-1.72-.96-.28-1.93-.6-2.82-1.08-.32-.17-.71-.37-.94-.66-.23-.3-.22-.61.21-.58.44.03.91.24,1.32.38.43.15.87.29,1.3.44.85.29,1.73.5,2.6.72,2.25.57,4.54,1.1,6.73,1.89,2.02.73,3.96,1.86,5.17,3.67,1.24,1.85,1.55,4.07,1.34,6.25-.22,2.18-.85,4.39-1.71,6.4-.64,1.49-1.44,2.92-2.19,4.36-.39.75-.78,1.52-.92,2.37-.18,1.07.07,2.1.51,3.07.89,1.95,2.45,3.58,4.07,4.94,1.72,1.44,3.64,2.63,5.6,3.71.83.45,1.67.88,2.51,1.29.64.32,1.52.65,2,1.2.48.56-.57.61-.93.57-.84-.09-1.7-.64-2.41-1.04-1.54-.85-3.02-1.83-4.48-2.82-1.66-1.13-3.26-2.38-4.64-3.85-1.39-1.47-2.73-3.27-3.14-5.3-.16-.82-.14-1.68.09-2.48Z"/>
    </g>
    <g>
      <path class="st0" d="M260,158.08c.67-2.48,1.24-5.03,1.45-7.59.07-.87.16-1.76-.18-2.58-.4-.98-1.25-1.66-2.2-2.07-2.36-.99-5.23-.8-7.73-.7-2.63.11-5.26.37-7.87.75-9.69,1.38-19.33,4.83-26.96,11.1-3.68,3.03-6.69,6.79-9.11,10.87-1.12,1.89-2.08,3.86-3.06,5.83-.56,1.12-1.04,2.27-1.57,3.41-.4.86-.77,1.88-1.41,2.61-.57.64-.39-.3-.3-.66.26-1.07.68-2.1,1.08-3.13.62-1.59,1.36-3.1,2.1-4.63,1.73-3.59,3.79-6.99,6.34-10.07,6.31-7.6,15.32-12.34,24.75-14.88,5.03-1.36,10.24-2.1,15.44-2.31,2.51-.11,5.2-.19,7.64.5,2.13.6,4.03,2.15,4.08,4.52.03,1.43-.21,2.91-.47,4.31-.46,2.52-1.05,5.02-1.84,7.45-1.55,4.77-3.96,9.31-6.93,13.35-5.71,7.75-13.68,13.83-22.8,16.98-1.14.39-2.3.73-3.48.97-.54.11-1.08.2-1.63.24-.15.01-.81.11-.89-.09-.12-.33,1.3-.87,1.48-.96.87-.4,1.83-.63,2.74-.93,4.31-1.39,8.53-3.17,12.3-5.71,7.71-5.18,13.72-12.65,17.24-21.24.72-1.75,1.28-3.54,1.77-5.36Z"/>
      <path class="st0" d="M251.77,160.17c.31-1.08.62-2.17.88-3.26.25-1.02.52-2.09.5-3.15-.02-.88-.33-1.65-1.24-1.9-.69-.19-1.44-.22-2.15-.27-2.18-.14-4.38.03-6.55.27-2.23.25-4.46.55-6.66.99-8.01,1.58-15.98,4.94-21.88,10.73-3.12,3.06-5.45,6.77-7.42,10.64,0-.01.01-.03.02-.04-.63,1.29-1.3,2.56-1.94,3.83-.13.25-1.41,3.1-1.82,2.73-.27-.24.22-1.44.31-1.72.24-.77.58-1.53.9-2.27.44-1.01.97-1.98,1.45-2.98,0,.01-.01.03-.02.04,2.15-4.53,5.04-8.76,8.78-12.13,4.09-3.7,9.09-6.29,14.27-8.08,2.7-.93,5.47-1.63,8.28-2.12,2.91-.51,5.88-.88,8.83-.98,1.5-.05,3-.02,4.48.16,1.11.13,2.29.32,2.91,1.37.52.88.47,1.97.33,2.94-.2,1.36-.56,2.72-.93,4.04-1.07,3.92-2.61,7.72-4.64,11.25-2.3,4.01-5.23,7.78-8.77,10.77-3.55,3-7.59,5.58-11.99,7.15-.63.23-1.28.44-1.93.6-.54.13-1.17.32-1.74.26-.86-.1.75-1,.93-1.1.84-.46,1.8-.75,2.69-1.1,1.33-.52,2.64-1.08,3.93-1.71,4.51-2.21,8.51-5.3,11.76-9.14,3.48-4.12,6.08-8.9,7.83-13.99.21-.6.38-1.21.59-1.81Z"/>
      <path class="st0" d="M243.93,162.54c.23-.74.47-1.49.64-2.25.12-.55.32-1.47-.18-1.9-.41-.36-1.24-.3-1.75-.32-.77-.03-1.55-.01-2.32.04-3.27.23-6.59.86-9.76,1.69-6.04,1.58-11.88,4.42-16.21,9-2.12,2.24-3.94,4.85-5.31,7.61-.67,1.35-1.24,2.74-1.88,4.11-.23.49-.45,1.08-.82,1.48-.21.24-.56.46-.58,0-.02-.58.25-1.24.43-1.79.21-.65.45-1.29.7-1.93.42-1.07.92-2.12,1.45-3.14,1.46-2.82,3.41-5.44,5.63-7.71,4.35-4.44,10.3-7.21,16.26-8.76,3.16-.82,6.46-1.39,9.72-1.58,1.32-.08,2.73-.13,4.04.12,1.48.28,1.82,1.58,1.59,2.92-.27,1.57-.82,3.13-1.38,4.62-.56,1.51-1.21,2.98-1.95,4.41-1.44,2.79-3.25,5.46-5.41,7.75-3.12,3.32-6.85,6.22-11.06,8.02-.61.26-1.24.5-1.9.63-.24.05-.92.2-.76-.24.14-.38.68-.74,1.01-.95.45-.28.94-.5,1.42-.73,2.51-1.21,5.03-2.5,7.21-4.26,4.41-3.57,7.81-8.19,9.98-13.44.45-1.1.91-2.24,1.21-3.39Z"/>
    </g>
    <g>
      <path class="st0" d="M205.91,190.65c-1.35-.67-2.79-1.15-4.14-1.83-1.29-.66-2.66-1.11-3.95-1.76-.42-.21-.88-.39-1.26-.66-.3-.22-.63-.69-.24-1.02.23-.19.59-.05.83.05.4.18.81.34,1.2.54,1.3.65,2.67,1.14,3.97,1.8,1.32.67,2.61,1.4,3.95,2,1.32.59,2.7,1.08,4.14,1.27.46.06.91.05,1.37.08.24.02.53.08.58.35.1.56-.51.93-.98.89-.59-.05-1.18-.29-1.75-.44-1.24-.33-2.58-.69-3.73-1.27Z"/>
      <path class="st0" d="M206.57,188.07c-1.18-.61-2.44-1.01-3.63-1.62-1.2-.61-2.48-.99-3.69-1.58-.43-.21-2.02-.82-1.23-1.54.22-.2.54-.07.78.03.39.17.79.32,1.17.51,1.19.59,2.46.99,3.64,1.6,1.26.65,2.48,1.37,3.78,1.93,1.22.53,2.51.92,3.85.98.45.02,1.33-.1,1.07.64-.38,1.08-1.5.44-2.29.24-1.15-.29-2.39-.65-3.45-1.18Z"/>
      <path class="st0" d="M204.66,183.26c.5.29,1.04.48,1.58.67.53.18,1.02.43,1.53.65.5.22.98.35,1.51.47.59.13,1.15.37,1.73.55.25.08.53.13.74.29.25.2.35.65.1.9-.3.31-1.2-.03-1.51-.14-1.08-.35-2.18-.61-3.23-1.07-1.02-.46-1.98-1.01-2.97-1.51-.99-.5-2.01-.95-3.1-1.21-.32-.08-1.28-.07-1.12-.63.11-.41.51-.77.93-.67.36.08.68.33,1.02.48.47.2.94.41,1.41.62.43.19.97.34,1.37.6Z"/>
    </g>
    <g>
      <path class="st0" d="M187.05,190.77c.54.12,1.08.18,1.63.24.59.06,1.14.22,1.71.39.54.16,1.07.25,1.61.36.54.12,1.05.34,1.56.56.47.2,1.48.67.82,1.31-.33.32-1.19-.15-1.5-.28-1.05-.44-2.22-.63-3.32-.96-1.17-.35-2.36-.7-3.58-.81-1.05-.1-2,.03-3,.32-.45.13-.63-.1-.58-.57.05-.47.23-.69.7-.73.32-.03.65.01.97,0,.55-.02,1.1,0,1.65.03.42.03.91.02,1.32.12Z"/>
      <path class="st0" d="M190.37,189.85c-.53-.18-1.09-.27-1.65-.32-.64-.06-1.27-.17-1.91-.27-.61-.09-1.18-.07-1.79-.03-.63.03-1.25,0-1.88,0-.29,0-.62.03-.89-.08-.29-.12-.54-.54-.35-.84.23-.37,1.27-.29,1.6-.29,1.27,0,2.52-.09,3.77.13,1.19.21,2.35.51,3.51.84,1.21.35,2.42.7,3.66.9.35.06,1.22.03,1.08.61-.12.47-.55.77-1.01.65-.36-.09-.69-.3-1.04-.42-1.02-.34-2.09-.53-3.1-.88Z"/>
      <path class="st0" d="M187.99,185.52c.61.14,1.23.2,1.86.27.63.08,1.24.25,1.85.42.56.16,1.12.25,1.69.36.56.11,1.09.33,1.61.54.46.19,1.78.66,1.08,1.38-.34.35-1.26-.15-1.59-.28-1.16-.46-2.41-.67-3.61-1.01-1.19-.33-2.37-.67-3.6-.84-1.28-.18-2.46-.08-3.71.19-.41.09-.74.02-.69-.49.1-1.05,1.05-.74,1.81-.75,1.07-.02,2.25-.05,3.3.2Z"/>
    </g>
    <g>
      <path class="st0" d="M206.86,206.72c-.26,1.68-.8,3.27-1.91,4.59-.54.64-1.15,1.21-1.78,1.75-.66.57-1.31,1.15-2.11,1.53-.78.37-1.61.62-2.45.8-.54.12-1.62.43-2.05-.06-.61-.69.64-.87,1.04-.94.74-.14,1.51-.34,2.21-.6,1.62-.59,3.05-1.91,4.17-3.18,1.1-1.25,1.82-2.68,1.97-4.35.15-1.69-.29-3.36-1.27-4.74-.41-.58-.99-1-1.41-1.55-.35-.46-.09-.76.43-.86.78-.15,1.35.97,1.67,1.53.27.48.55.95.77,1.46.6,1.37,1.01,3.11.72,4.61Z"/>
      <path class="st0" d="M205.09,213.33c1.26-1.15,2.19-2.57,2.71-4.2.27-.84.46-1.71.55-2.59.06-.67,0-1.32-.01-1.99,0,.02,0,.04,0,.06-.15-1.48-.76-2.9-1.47-4.2-.71-1.3-1.67-2.33-2.58-3.48-.18-.23-.89-1.29-.11-1.28.53,0,1.08.67,1.41,1.02.96,1.04,1.78,2.1,2.46,3.34.75,1.38,1.43,2.95,1.48,4.55,0-.02,0-.05,0-.07.27,2.56-.36,5.21-1.84,7.31-1.43,2.05-3.49,3.84-5.75,4.91-1.11.53-2.28.95-3.47,1.26-1.03.27-2.26.62-3.33.46-.37-.05-.85-.24-.57-.67.28-.43.68-.53,1.15-.58,1.05-.1,2.09-.1,3.11-.37,1.22-.32,2.43-.73,3.53-1.36,1.03-.59,1.85-1.38,2.74-2.14Z"/>
      <path class="st0" d="M212.2,206.51c-.24,3.07-1.22,6.1-3.27,8.44-2.01,2.28-4.68,4.24-7.56,5.26-1.46.52-3,.84-4.55.9-1.27.05-2.94.02-4.03-.7-.39-.26-.49-.73.08-.79.62-.06,1.28.13,1.89.22,1.39.2,2.89.06,4.26-.23,3.02-.63,5.78-2.29,8-4.39,2.23-2.11,3.73-4.77,4.14-7.84.41-3.01-.25-6.11-1.83-8.69-.77-1.26-1.76-2.38-2.87-3.35-.45-.39-.93-.73-1.37-1.13-.19-.17-.76-.6-.64-.93.14-.37.9-.27,1.17-.15.61.27,1.14.79,1.6,1.25.79.79,1.51,1.69,2.16,2.6,1.71,2.41,2.72,5.31,2.83,8.27.02.42,0,.83,0,1.25Z"/>
    </g>
    <g>
      <path class="st0" d="M197.89,203.76c-.73-.18-1.46-.3-2.2-.41-.66-.1-1.29-.31-1.93-.5-.64-.19-1.29-.3-1.94-.46-.67-.16-1.32-.42-1.97-.63-.33-.11-.74-.21-.98-.48-.22-.26-.18-.75.17-.88.24-.09.5.04.73.1.52.15,1.03.31,1.54.48.64.2,1.31.32,1.96.51.73.21,1.45.44,2.19.64.59.16,1.18.33,1.77.49,1.35.37,2.78.57,4.17.42.52-.05,1-.19,1.5-.32.18-.05.4-.11.56.03.29.25.09.96-.18,1.14-.46.31-1.24.13-1.76.15-1.17.03-2.48,0-3.62-.28Z"/>
      <path class="st0" d="M198.21,206.5c-1.32-.29-2.65-.39-3.96-.75-.67-.19-1.34-.3-2.03-.43-.66-.12-1.29-.35-1.93-.56-.36-.12-.76-.21-1.07-.44-.28-.2-.42-.65-.13-.92.21-.19.51-.1.75-.03.4.11.8.22,1.19.35,1.27.43,2.62.63,3.92.99,1.35.37,2.68.77,4.07.94,1.34.17,2.7.15,4-.24.43-.13.93-.23.89.41-.07,1.08-1.18.83-1.97.86-1.21.04-2.53.06-3.72-.19Z"/>
      <path class="st0" d="M194.7,207.35c1.16.38,2.45.47,3.66.65.62.1,1.2.08,1.82.06.66-.03,1.31.05,1.97.05.3,0,.62-.03.91.08.29.12.53.51.36.82-.23.41-1.31.31-1.66.3-1.3-.03-2.58.02-3.87-.2-1.28-.22-2.51-.6-3.75-.94-1.24-.34-2.49-.66-3.78-.75-.38-.03-1.15.04-.96-.58.35-1.11,1.34-.5,2.11-.31.59.15,1.17.33,1.76.47.47.11.98.17,1.44.34Z"/>
    </g>
    <g>
      <path class="st0" d="M214.41,191.94c.28-1.62-.11-3.37-.6-4.92-.48-1.52-1.44-2.75-2.48-3.93-.48-.54-1.03-.99-1.56-1.48-.23-.22-.54-.49-.5-.85.04-.29.21-.43.49-.4.51.05,1.12.63,1.5.95.57.48,1.04,1.06,1.52,1.61,2.15,2.46,2.98,5.67,2.6,8.89-.2,1.63-.68,3.21-1.32,4.72-.31.73-.66,1.45-1.04,2.15-.16.28-.5.9-.91.68-.23-.12-.39-.56-.38-.8,0-.38.35-.76.56-1.05.36-.5.67-.98.94-1.53.62-1.28,1-2.64,1.17-4.05Z"/>
      <path class="st0" d="M217.08,192.18c.33-2.1-.18-4.33-.86-6.32-.66-1.92-1.83-3.46-3.22-4.91-.65-.68-1.35-1.26-2.1-1.81-.33-.24-.82-.53-1.01-.9-.15-.28-.08-.64.26-.68.64-.08,1.47.63,1.96.98.81.57,1.5,1.29,2.18,2.01,2.83,3,4.19,7.04,3.79,11.16-.2,2.11-.77,4.13-1.65,6.05-.44.96-.95,1.88-1.51,2.78-.21.33-.71,1.28-1.22,1.1-.3-.1-.38-.68-.33-.93.1-.5.6-.98.9-1.37.45-.59.85-1.18,1.19-1.84.85-1.63,1.51-3.47,1.61-5.32Z"/>
      <path class="st0" d="M219.65,193.17c.47-2.56,0-5.27-.75-7.73-.72-2.33-2.04-4.28-3.69-6.06-.74-.8-1.56-1.53-2.44-2.17-.29-.21-2.38-1.49-1.57-1.95.32-.18.91.16,1.17.3.4.22.79.49,1.18.75.98.65,1.82,1.47,2.62,2.33,1.62,1.73,2.89,3.66,3.68,5.92.84,2.4,1.13,4.99.9,7.52-.22,2.46-.96,4.85-2.06,7.06-.54,1.09-1.16,2.14-1.85,3.14-.45.65-1.1,1.85-1.9,2.12-.35.12-.48-.13-.51-.45-.06-.55.26-.93.59-1.33.72-.86,1.47-1.66,2.07-2.6.72-1.12,1.31-2.33,1.76-3.58.38-1.06.58-2.14.8-3.24Z"/>
    </g>
    <g>
      <path class="st0" d="M177.52,198.92c-.32-.16-.66-.14-1.01-.19-.38-.06-.72-.25-1.1-.29-.52-.05-1.17,0-1.63-.31-.28-.19-.31-.97.05-1.12.29-.12.75.15,1.03.19.35.06.7.05,1.05.14.38.1.74.24,1.11.38.66.26,1.34.55,2.06.57.27,0,.54-.09.8-.09.07,0,.13-.03.2.01.25.18-.15,1.02-.29,1.13-.25.2-.78-.07-1.08-.14-.37-.08-.84-.12-1.18-.29Z"/>
      <path class="st0" d="M176.92,201.26c-.37-.17-.75-.18-1.14-.25-.42-.07-.8-.26-1.22-.33-.39-.07-.77-.02-1.16-.13-.26-.07-.62-.1-.85-.26-.32-.22-.33-1.06.13-1.12.47-.06,1.01.21,1.48.25,1.48.12,2.75,1.02,4.21,1.23.36.05.72.05,1.07,0,.07,0,.26-.07.34-.03.35.18-.03,1.05-.26,1.18-.28.17-.93-.14-1.26-.22-.43-.1-.94-.16-1.35-.33Z"/>
      <path class="st0" d="M176.58,203.56c-.39-.16-.8-.16-1.21-.22-.44-.06-.85-.25-1.28-.32-.67-.11-1.38-.06-2.02-.36-.38-.18-.53-1.02-.04-1.16.37-.11.9.19,1.26.24.42.06.83.07,1.24.17.47.11.92.27,1.37.43.79.28,1.59.59,2.43.66.36.03.69-.03,1.04-.04.09,0,.18-.03.26.02.33.23-.18,1.14-.46,1.2-.24.05-.51-.12-.74-.18-.18-.04-.36-.08-.54-.12-.42-.1-.92-.15-1.32-.32Z"/>
    </g>
    <g>
      <path class="st0" d="M196.82,181.56c-.4.18-.72.46-1.04.76-.32.29-.67.53-1,.8-.31.25-.54.53-.77.85-.28.39-.64.7-.95,1.06-.17.18-.33.41-.6.45-.27.04-.72-.19-.75-.5-.02-.18.11-.29.21-.42.23-.3.47-.56.72-.84.62-.69,1.15-1.35,1.93-1.9.75-.52,1.57-.95,2.37-1.39.77-.43,1.47-.93,2.2-1.42.26-.18.47-.17.59.17.11.29.18.76-.08.98-.2.17-.51.18-.75.28-.73.3-1.35.81-2.06,1.12Z"/>
      <path class="st0" d="M195.92,178.94c-1.04.53-1.95,1.35-2.85,2.09-.87.71-1.53,1.66-2.26,2.51-.25.29-.46.65-.77.89-.29.22-.86.28-1.01-.16-.09-.25.1-.48.24-.67.25-.35.49-.7.78-1.02.78-.88,1.46-1.8,2.38-2.55.9-.73,1.89-1.31,2.91-1.86,1.14-.61,2.33-1.12,3.49-1.69.25-.12,1.12-.75,1.47-.47.26.21.17.87,0,1.09-.3.37-1.02.35-1.44.49-1.03.35-1.95.87-2.92,1.34Z"/>
      <path class="st0" d="M194.99,176.36c-1.27.58-2.35,1.57-3.43,2.45-1.16.94-1.99,2.1-2.94,3.24-.37.44-.7.9-1.06,1.35-.25.31-.6.75-1.05.59-.83-.29.28-1.58.55-1.94.86-1.14,1.76-2.32,2.79-3.31,1.08-1.04,2.31-1.9,3.61-2.64,1.3-.74,2.68-1.35,4.08-1.91.73-.29,1.47-.57,2.21-.84.33-.12,1.06-.51,1.35-.15.16.2.04.57-.04.77-.12.29-.37.39-.67.47-.56.15-1.14.19-1.69.36-1.3.39-2.51.93-3.71,1.56Z"/>
    </g>
    <g>
      <path class="st0" d="M187.57,199.96c-.12.75-.09,1.51-.05,2.27.04.74.03,1.49.07,2.23.08,1.45.53,2.91.99,4.28.15.44.39.88.47,1.34.07.43-.27,1.04-.76.69-.34-.24-.58-.92-.73-1.29-.24-.61-.38-1.25-.58-1.87-.92-2.89-.57-5.94-.22-8.89.17-1.48.35-2.96.44-4.45.03-.55.19-1.23.87-.75.81.57.13,1.76,0,2.55-.22,1.3-.3,2.6-.48,3.9Z"/>
      <path class="st0" d="M183.8,205.42c-.07-1.42-.25-2.84-.16-4.26.08-1.25.1-2.5.18-3.74.06-.87.25-1.73.45-2.58.1-.44.19-.91.42-1.3.19-.32.68-.59.95-.19.18.27.03.67-.03.95-.35,1.46-.52,2.9-.61,4.4-.11,1.71-.3,3.44-.3,5.15,0,1.63.16,3.29.7,4.84.25.73.59,1.43,1.02,2.07.2.29.81.86.51,1.24-.16.2-.59.25-.81.2-.33-.07-.53-.42-.67-.69-.28-.54-.47-1.14-.68-1.71-.52-1.44-.7-2.89-.96-4.38Z"/>
      <path class="st0" d="M182.15,200.83c-.23,1.59.03,3.27.17,4.86.14,1.62.64,3.09,1.14,4.62.22.68.51,1.31.76,1.98.1.26.25.62.16.9-.1.29-.39.44-.66.3-.44-.23-.73-1.06-.93-1.48-.31-.69-.5-1.43-.76-2.14-1.15-3.16-1.06-6.48-.77-9.79.14-1.65.3-3.29.41-4.94.02-.33-.11-1.97.48-2.06.23-.03.51.21.64.36.25.27.22.61.16.96-.1.64-.3,1.25-.38,1.9-.09.77-.21,1.54-.29,2.32-.08.74-.05,1.49-.14,2.22Z"/>
    </g>
    <g>
      <path class="st0" d="M183.75,214.81c1.27-.18,2.46-.86,3.56-1.48,1.14-.64,1.93-1.58,2.8-2.53.35-.38.66-.8,1-1.2.26-.31.63-.67,1.05-.42.63.37-.28,1.39-.54,1.73-.77.99-1.67,2.01-2.67,2.76-1.07.8-2.31,1.37-3.6,1.74-1.39.4-2.84.58-4.29.67-.68.04-1.36.06-2.05.08-.33,0-1.14.14-1.37-.21-.25-.39.32-.99.69-1.03.55-.06,1.13.19,1.68.22,1.26.06,2.49-.07,3.72-.32Z"/>
      <path class="st0" d="M189.75,216.35c-1.71,1-3.38,1.87-5.34,2.26-1.01.2-2.06.44-3.09.5-.98.06-1.97-.06-2.94-.22-.42-.07-1.07-.18-1.35-.54-.15-.2-.16-.54.05-.7.27-.2.72-.06,1.01,0,1.96.37,3.86.24,5.81-.13,1.13-.22,2.25-.51,3.31-.94.49-.2.98-.42,1.45-.68.23-.13.76-.61,1.02-.56-.06.02-.13.05-.19.06,1.02-.66,1.93-1.49,2.68-2.45.38-.48.71-.99,1-1.53.21-.38.36-1.02.71-1.3.35-.28.67.09.82.41.27.56-.33,1.23-.66,1.64-.66.82-1.3,1.64-2.05,2.37-.49.48-1.01.93-1.56,1.34-.21.15-.48.44-.76.4.12-.04.24-.08.36-.11-.09.07-.19.13-.28.19Z"/>
      <path class="st0" d="M191.5,218.37c-1.02.65-2.08,1.27-3.18,1.79-1.95.93-4.2,1.28-6.33,1.55-1.06.14-2.13.07-3.18-.07-.85-.11-1.94-.19-2.67-.69-.24-.16-.48-.51-.23-.78.23-.25.72-.12,1-.07.91.17,1.83.33,2.76.42,2.09.19,4.37-.23,6.38-.79,1.71-.47,3.45-1.14,4.92-2.16,1.29-.9,2.46-1.87,3.44-3.12.59-.76,1.11-1.58,1.53-2.44.17-.36.51-1.56,1.07-1.41.35.09.54.63.49.94-.08.51-.46,1.01-.75,1.42-.43.61-.88,1.21-1.35,1.79-.67.82-1.39,1.61-2.19,2.3-.54.47-1.18.83-1.7,1.31Z"/>
    </g>
  </g>
  <text class="st1" transform="translate(204.97 236.24)"><tspan x="0" y="0">page top</tspan></text>
</svg>