<?xml version="1.0" encoding="UTF-8"?>
<svg id="_レイヤー_2" data-name="レイヤー 2" xmlns="http://www.w3.org/2000/svg" viewBox="0 0 201 96">
  <defs>
    <style>
      .cls-1 {
        fill: none;
        stroke: #c00;
        stroke-miterlimit: 10;
      }

      .cls-2 {
        fill: #c00;
      }
    </style>
  </defs>
  <path class="cls-1" d="M106.19,39.04c15.3-22.28,30.97-35.26,52.47-36.35,1.61-.08,20.95-2.63,17.95,16.94M176.6,19.62c2.19-23.09-22.5-18.57-22.5-18.57-23.96,2.08-36.13,18.85-48.15,35.43M176.6,19.62c2.19-14.4-11.13-14.52-12.3-14.51-29.52.38-43.84,16.67-58.04,36.95M176.6,19.62c.55-10.32-7.95-11-9.01-11.19-33.53-5.92-61.34,36.61-61.34,36.61M176.6,17.72c-1.37-4.08-4.64-6-6.28-6.25-20.43-3.04-41.21,7.51-64.17,36.49M112.28,49.81c15.3-4.08,45.56-16.87,55.58-38.61M116.24,51.61c19.06-7.2,43.2-15.61,54.08-40.14M119.67,53.17c18.09-5.26,45.56-19.01,53.11-40.07M122.75,54.58c18.97-5.01,44.05-18.95,52.22-39.03M125.83,55.98c17.23-5.1,43.31-18,50.77-36.36"/>
  <path class="cls-1" d="M24.4,19.35C21.39-.21,40.82,2.28,42.43,2.33c16.31.49,36.5,12.74,53.44,36.65M96.14,36.35C82.93,18.33,71.12,4.95,46.26.88c0,0-24.05-4.62-21.86,18.47M95.88,41.99C82.87,22.14,59.37,2.87,36.69,4.84c-1.16.1-14.48.11-12.3,14.51M95.91,45.06S68.85,3.23,34.96,7.58c-1.07.14-11.11,1.45-10.57,11.77M95.87,47.8C71.44,16.47,47.72,6.2,30.68,11.2c-1.59.47-4.92,2.17-6.29,6.25M33.14,10.93c10.02,21.75,37.38,34.23,57.6,38.58M30.68,11.2c10.88,24.53,39.5,36.13,56.81,39.75M28.08,12.54c7.55,21.05,37.38,34.95,55.48,40.2M25.88,14.85c8.17,20.08,35.6,34.18,54.57,39.19M24.4,19.35c7.46,18.36,35.48,30.96,52.71,36.06"/>
  <path class="cls-1" d="M197.71,95.5c-.74-.13-56.75-14.44-91.68-38.59M106.33,54.51s9.06,7.22,33.11,17.82c10.11,4.89,35.52,13.31,46.19,16.8,2.07.57,4.14,1.12,6.24,1.64,1.05.26,2.1.51,3.17.75,1.08.24,2.12.47,3.36.69M106.39,51.88c25.24,14.15,40.6,20.45,44.49,21.98,7.8,3.06,15.72,5.89,23.75,8.45,4.01,1.28,8.06,2.49,12.13,3.62,2.04.56,4.08,1.1,6.13,1.61,2.06.5,4.12,1,6.21,1.37M106.23,49.43c14.21,7.06,20.1,10.13,46.2,21.36,7.72,3.03,15.56,5.83,23.49,8.36,3.97,1.26,7.96,2.46,11.97,3.57,2,.55,4.02,1.09,6.03,1.58,1.01.25,2.01.49,3.01.71.98.22,2.02.45,2.88.59M106.89,47.14s21.65,10.32,39.38,17.85c24.32,10.32,54.23,17.32,54.23,17.32h0"/>
  <path class="cls-1" d="M96.24,56.86S56.66,82.35,3.29,95.23M2.59,91.93c1.24-.21,2.27-.44,3.36-.69,1.07-.24,2.12-.49,3.17-.75,2.1-.52,4.17-1.07,6.24-1.64,10.67-3.48,36.08-11.9,46.19-16.8,24.41-11.77,34.33-17.54,34.33-17.54M1.89,88.64c2.09-.37,4.15-.87,6.21-1.37,2.05-.51,4.1-1.05,6.13-1.61,4.07-1.13,8.12-2.34,12.13-3.61,8.03-2.56,15.95-5.39,23.75-8.45,3.9-1.53,34.79-16.35,45.72-21.42M1.2,85.34c.86-.15,1.89-.37,2.88-.59,1-.23,2-.46,3.01-.71,2.01-.5,33.69-9.57,41.49-13.51,26.1-11.23,32.88-14.79,47.27-21.12M.5,82.05h0s29.62-7.7,54.23-17.32c19.22-7.52,40.6-17.43,40.6-17.43"/>
  <path class="cls-1" d="M103.77,57.9v-22.29M101.22,57.9v-22.29M98.67,57.9v-22.52"/>
  <path class="cls-2" d="M104.62,36.32c.55,0,1,.45,1,1v18.61c0,.55-.45,1-1,1h-7.02c-.55,0-1-.45-1-1v-18.61c0-.55.45-1,1-1h7.02M104.62,35.32h-7.02c-1.1,0-2,.9-2,2v18.61c0,1.1.9,2,2,2h7.02c1.1,0,2-.9,2-2v-18.61c0-1.1-.9-2-2-2h0Z"/>
</svg>