<?xml version="1.0" encoding="UTF-8"?>
<svg id="_レイヤー_1" data-name="レイヤー_1" xmlns="http://www.w3.org/2000/svg" version="1.1" viewBox="0 0 1380 375">
  <!-- Generator: Adobe Illustrator 29.0.0, SVG Export Plug-In . SVG Version: 2.1.0 Build 186)  -->
  <defs>
    <style>
      .st0 {
        fill: #c00;
      }

      .st1 {
        opacity: .1;
      }

      .st2 {
        fill: none;
        stroke: #c00;
        stroke-miterlimit: 10;
        stroke-width: 4px;
      }
    </style>
  </defs>
  <g class="st1">
    <g>
      <path class="st0" d="M652.03,214.24c-12.61-1.86-23.74-7.31-31.35-15.33-3.29-3.47-7.38-9.04-8.2-15.86-.69-5.67.56-11.68,3.61-17.36,2.96-5.52,7.44-10.34,13.32-14.33l3.43,5.04c-5.05,3.42-8.87,7.52-11.36,12.16-2.42,4.51-3.46,9.39-2.93,13.75.63,5.18,3.92,9.61,6.58,12.41,6.57,6.94,16.71,11.86,27.8,13.49l-.89,6.03Z"/>
      <path class="st0" d="M651.55,226.48c-9.83-1.27-19.34-4.54-27.49-9.46-7.59-4.58-13.62-10.31-17.93-17.03-4.94-7.71-6.9-16.48-5.66-25.37,2.27-16.24,14.17-30.86,31.06-38.16l2.42,5.59c-14.95,6.46-25.46,19.26-27.44,33.41-1.04,7.43.61,14.78,4.75,21.24,3.8,5.92,9.16,11.01,15.95,15.1,7.43,4.48,16.12,7.47,25.12,8.63l-.78,6.04Z"/>
      <path class="st0" d="M653.89,238.96c-13.84-1.07-27.16-5.57-38.53-13.03-10.45-6.85-18.49-15.9-23.26-26.16-4.24-9.13-5.32-20.03-3.03-30.69,2.38-11.09,8.16-21.4,16.73-29.82,8.18-8.04,18.49-13.92,30.64-17.48l1.72,5.85c-11.18,3.28-20.63,8.66-28.08,15.98-7.6,7.47-12.95,16.98-15.04,26.75-2.01,9.38-1.08,18.91,2.6,26.85,4.29,9.23,11.57,17.4,21.07,23.63,10.51,6.89,22.84,11.06,35.65,12.05l-.47,6.07Z"/>
    </g>
    <g>
      <path class="st0" d="M628.81,173.72l-.03-.49c-.35-4.76-.7-9.68-.74-14.6-.02-3.55.17-6.97.46-11.01.99-13.73,5.66-26.44,13.15-35.79,8.59-10.73,22.06-17.84,37.93-20.01,13.37-1.83,26.34.26,37.51,6.03,12.38,6.4,23.24,16.56,33.22,31.07l-5.03,3.45c-9.39-13.66-19.53-23.18-30.99-29.11-10.05-5.19-21.76-7.06-33.88-5.41-14.31,1.95-26.38,8.27-33.99,17.78-6.72,8.4-10.92,19.91-11.83,32.42-.28,3.89-.46,7.17-.44,10.53.03,4.72.37,9.33.72,14.2l.04.49-6.09.44Z"/>
      <path class="st0" d="M640.42,165.85c-1.4-24.15,3.65-40.94,15.43-51.32,6.12-5.39,14.32-8.92,24.38-10.5,10.12-1.59,19.81-.42,28.79,3.47,8.16,3.54,16.03,9.63,23.39,18.11l-4.61,3.99c-6.76-7.79-13.89-13.34-21.21-16.51-7.9-3.42-16.46-4.45-25.41-3.04-8.89,1.39-16.05,4.44-21.29,9.05-10.29,9.06-14.66,24.23-13.38,46.4l-6.09.35Z"/>
      <path class="st0" d="M652.39,158.69c0-8.85.94-15.73,2.96-21.66,2.13-6.25,5.69-11.34,10.29-14.74,4.48-3.3,10.33-5.4,17.88-6.41,5.58-.74,10.72-.42,15.71.98,5.77,1.62,11.52,4.92,17.08,9.8l-4.03,4.57c-4.87-4.28-9.81-7.14-14.7-8.51-4.18-1.17-8.52-1.44-13.25-.81-6.5.87-11.43,2.59-15.06,5.27-4.54,3.35-6.93,8.27-8.14,11.8-1.8,5.28-2.64,11.54-2.63,19.7h-6.1Z"/>
    </g>
    <g>
      <path class="st0" d="M767.89,227.47l-4.21-4.41c8.99-8.57,15.13-19.84,17.28-31.74,1.05-5.79,1.12-11.53.22-17.06-.8-4.9-2.64-10-5.47-15.17-4.89-8.93-12.09-16.3-20.82-21.32-8.72-5.01-18.74-7.47-28.97-7.09-12.18.44-24.03,3.61-33.36,8.93l-3.02-5.29c10.17-5.8,23.01-9.25,36.16-9.73,11.38-.41,22.52,2.32,32.23,7.9,9.71,5.58,17.71,13.76,23.13,23.67,3.17,5.78,5.23,11.54,6.14,17.12,1.01,6.21.93,12.64-.24,19.11-2.38,13.16-9.15,25.61-19.07,35.07Z"/>
      <path class="st0" d="M764.86,212.66l-4.8-3.76c5.73-7.29,9.11-16.23,9.51-25.19.64-14.45-8.4-29.04-22.5-36.31-6.53-3.37-13.9-4.92-21.35-4.51-9.12.51-17.6,2.56-24.52,5.93l-2.68-5.47c7.64-3.73,16.93-5.99,26.86-6.54,8.52-.47,16.99,1.32,24.49,5.18,16.17,8.34,26.54,25.22,25.79,41.99-.45,10.22-4.29,20.41-10.81,28.68Z"/>
      <path class="st0" d="M758.64,200.04l-5.25-3.1c3.11-5.26,4.58-12.06,3.84-17.76-1.13-8.77-7.96-17.43-16.99-21.55-3.94-1.8-8.31-2.68-12.97-2.61-5.45.08-11.43,1.2-16.86,3.17l-2.08-5.73c6.05-2.19,12.74-3.45,18.85-3.53,5.53-.08,10.82.98,15.6,3.17,10.87,4.97,19.11,15.54,20.51,26.31.92,7.09-.82,15.18-4.64,21.64Z"/>
    </g>
    <g>
      <path class="st0" d="M621.01,192.81l-4.97-3.53c4.99-7,10.68-13.41,16.92-19.06,6.26-5.67,13.37-10.47,21.14-14.27,4.57-2.24,9.13-4.25,13.55-5.98l2.23,5.67c-4.27,1.67-8.67,3.61-13.09,5.78-7.25,3.55-13.89,8.03-19.73,13.31-5.91,5.36-11.31,11.44-16.05,18.08Z"/>
      <path class="st0" d="M629.38,202.15l-5.04-3.44c5.18-7.55,10.88-14.13,16.95-19.58,3.64-3.27,7.06-5.89,10.44-8.01,4.26-2.67,8.81-4.8,12.3-6.36,4.7-2.1,9.63-4.12,15.06-6.19l2.17,5.69c-5.32,2.02-10.14,4-14.74,6.05-3.51,1.57-7.63,3.5-11.55,5.96-3.08,1.93-6.23,4.35-9.6,7.38-5.71,5.12-11.09,11.34-15.99,18.49Z"/>
      <path class="st0" d="M639.8,208.5l-5.04-3.44c4.84-7.08,10.4-13.3,16.53-18.49,7.28-6.16,15.93-10.03,23.47-13.17,4.59-1.91,9.53-3.92,14.53-5.65l2,5.76c-4.84,1.67-9.68,3.64-14.18,5.52-7.44,3.1-15.27,6.6-21.87,12.2-5.7,4.83-10.9,10.65-15.43,17.28Z"/>
    </g>
    <g>
      <path class="st0" d="M718.39,170.07l-6.2-7c-4-4.52-7.78-8.78-12.08-12.71-8.57-7.82-18.66-15.25-32.74-24.09l3.25-5.16c14.4,9.04,24.76,16.67,33.61,24.75,4.54,4.14,8.6,8.73,12.53,13.16l6.2,7-4.57,4.04Z"/>
      <path class="st0" d="M711.23,180.39c-2.1-2.29-4.16-4.66-6.16-6.94-1.29-1.48-2.58-2.95-3.88-4.42-2.41-2.71-5.62-6.23-9.1-9.48-3.04-2.85-6.31-5.46-10.28-8.51-6.84-5.25-14.41-10.42-23.15-15.81l3.21-5.18c8.92,5.5,16.66,10.78,23.66,16.16,4.11,3.16,7.51,5.88,10.73,8.89,3.66,3.42,6.99,7.08,9.49,9.88,1.32,1.48,2.62,2.97,3.92,4.46,1.97,2.26,4.01,4.6,6.06,6.84l-4.51,4.11Z"/>
      <path class="st0" d="M702.06,188.43l-10.66-12.03c-4.95-5.59-10.65-10.82-17.41-15.99-5.69-4.35-11.9-8.64-19.01-13.1l3.25-5.15c7.26,4.57,13.63,8.96,19.47,13.42,7.08,5.41,13.05,10.91,18.27,16.79l10.66,12.03-4.57,4.04Z"/>
    </g>
    <g>
      <path class="st0" d="M689.6,204.14l-3.75-4.81c3.56-2.77,7.23-5.84,10.89-9.13,7.18-6.44,12.65-12.15,17.23-17.98,2.74-3.49,4.84-6.68,6.42-9.74.99-1.92,2.83-5.51,2.32-8.08l5.99-1.18c.81,4.09-.91,8.21-2.88,12.05-1.76,3.41-4.06,6.91-7.04,10.71-4.8,6.11-10.5,12.07-17.95,18.75-3.77,3.38-7.55,6.55-11.22,9.41Z"/>
      <path class="st0" d="M698.92,212.27l-3.79-4.77c4.17-3.31,8.17-6.72,11.88-10.14,7.63-7.05,13.65-13.6,18.41-20.04,4.41-5.96,10.19-14.9,9.49-23.6l6.08-.48c.85,10.74-5.68,20.95-10.67,27.7-4.99,6.75-11.26,13.59-19.18,20.9-3.82,3.53-7.93,7.04-12.23,10.44Z"/>
      <path class="st0" d="M709.63,218.38v-6.09c-.81,0-1.31.35-1.31.35.2-.14.68-.64.91-.88.28-.29.52-.52.67-.65.91-.79,1.8-1.58,2.7-2.38,1.84-1.65,3.52-3.2,5.14-4.74,3.43-3.26,6.69-6.6,9.69-9.93,6.77-7.51,11.7-14.46,15.08-21.27,2.26-4.55,3.66-8.79,4.31-12.96l6.03.93c-.74,4.8-2.33,9.62-4.87,14.74-3.62,7.31-8.86,14.72-16.01,22.64-3.11,3.45-6.48,6.9-10.01,10.27-1.66,1.58-3.39,3.17-5.28,4.86-.92.82-1.84,1.63-2.77,2.44-.05.05-.16.17-.29.3-1.13,1.16-2.31,2.37-3.98,2.37Z"/>
    </g>
    <g>
      <path class="st0" d="M686.79,250.29c-4.74-5.11-8.33-10.51-10.68-16.04-8.96-21.12,4.6-43.61,18.93-56.46l4.08,4.53c-12.84,11.51-25.09,31.39-17.39,49.55,2.07,4.88,5.28,9.68,9.53,14.27l-4.48,4.14Z"/>
      <path class="st0" d="M676.1,256.62c-9.65-11.1-14.88-23.47-15.12-35.77-.24-12.01,4.03-24.69,12.35-36.69,4.08-5.88,8.75-11.17,13.89-15.73l4.05,4.55c-4.78,4.24-9.13,9.17-12.93,14.65-7.58,10.93-11.48,22.38-11.27,33.1.27,13.71,7.56,24.91,13.63,31.9l-4.61,3.99Z"/>
      <path class="st0" d="M661.67,257.98c-3.59-5.03-6.5-10.32-8.66-15.74-7.74-19.45-4.57-42.73,8.49-62.29l5.08,3.38c-11.94,17.89-14.9,39.07-7.89,56.66,1.98,4.96,4.65,9.83,7.96,14.45l-4.97,3.54Z"/>
    </g>
    <g>
      <path class="st0" d="M726.68,220.51c-6.31,0-12.28-.75-17.83-2.24-5.48-1.47-15.68-5.17-22.49-13.39l-1.06-1.27c-1.19-1.42-2.42-2.89-3.57-4.44l4.91-3.61c1.03,1.4,2.2,2.79,3.33,4.15l1.08,1.29c4.19,5.06,11.25,9.21,19.37,11.39,8.2,2.2,17.47,2.62,27.54,1.22l.84,6.04c-4.17.58-8.22.86-12.14.86Z"/>
      <path class="st0" d="M726.91,232.68c-16.04,0-30.41-4.19-41.47-12.24-4.53-3.3-8.2-6.98-10.91-10.94l5.04-3.44c2.32,3.39,5.51,6.57,9.47,9.46,13.17,9.6,31.75,13.12,52.3,9.92l.94,6.02c-5.25.82-10.4,1.22-15.38,1.22Z"/>
      <path class="st0" d="M726.8,244.86c-.76,0-1.53,0-2.29-.03-19.9-.44-37.6-6.61-49.85-17.37l4.03-4.57c11.17,9.81,27.49,15.44,45.96,15.85,4.64.1,9.44-.13,14.26-.69l.71,6.05c-4.32.5-8.62.76-12.82.76Z"/>
    </g>
    <g>
      <path class="st0" d="M713.02,283.16c-7.68,0-15.48-1.29-23.12-3.85l1.94-5.78c12.03,4.03,24.46,4.62,35.95,1.71,9.83-2.49,18.58-7.92,24.64-15.3,6.34-7.71,10.15-17.52,10.74-27.62.97-16.68-8.18-34.98-24.46-48.94l3.98-4.62c17.72,15.19,27.65,35.35,26.58,53.91-.66,11.38-4.96,22.43-12.11,31.13-6.89,8.38-16.78,14.53-27.86,17.34-5.28,1.34-10.74,2.01-16.27,2.01Z"/>
      <path class="st0" d="M712.79,270.94c-2.93,0-5.79-.22-8.48-.63l.91-6.02c13.11,1.98,30.43-.84,39.71-14.7,2.75-4.1,4.63-8.89,5.75-14.63,1.24-6.34-.15-14.29-3.82-21.82-3.66-7.53-9.15-14.55-15.88-20.3l3.97-4.63c7.35,6.29,13.37,13.99,17.39,22.26,2.49,5.11,6.35,15.24,4.32,25.65-1.28,6.56-3.46,12.07-6.67,16.85-8.92,13.31-23.87,17.97-37.22,17.97Z"/>
      <path class="st0" d="M715.08,258.75l-.27-6.09c5.11-.23,9.78-1.5,13.5-3.68,3.43-2.01,6.2-5.12,8.23-9.24,5.3-10.75-.28-21.6-4.08-27.11-2.98-4.32-6.04-7.78-9.11-10.29l3.86-4.72c3.51,2.87,6.97,6.75,10.27,11.55,7.86,11.42,9.47,23.23,4.53,33.26-2.56,5.2-6.13,9.18-10.61,11.8-4.57,2.68-10.21,4.25-16.32,4.52Z"/>
    </g>
    <g>
      <path class="st0" d="M666.91,259.41c-4.28,0-8.69-.65-13.09-1.96-5.43-1.62-9.59-4.18-12.7-7.82-3.55-4.16-5.91-9.7-7-16.46l6.02-.97c.91,5.65,2.8,10.18,5.62,13.47,2.36,2.76,5.47,4.64,9.8,5.94,10.73,3.2,21.47,1.84,29.46-3.72,2.21-1.54,4.11-3.32,5.66-5.32,1.58-2.03,2.53-4.32,3.47-7.14l5.79,1.93c-.98,2.95-2.2,6.07-4.43,8.94-1.92,2.48-4.28,4.69-6.99,6.58-6.18,4.3-13.68,6.52-21.61,6.52Z"/>
      <path class="st0" d="M667.17,271.63c-6.01,0-12.14-.97-18.07-2.87-8.07-2.59-14.82-7.47-19.52-14.11-6.11-8.64-7.71-18.91-8.42-26.89l6.08-.54c.95,10.72,3.22,18.09,7.33,23.91,3.99,5.63,9.51,9.61,16.4,11.83,7.59,2.44,15.86,3.17,23.3,2.06,7.31-1.09,14.55-4.34,20.36-9.13,5.51-4.54,9.33-10.42,11.35-17.48l5.87,1.67c-2.36,8.26-6.85,15.16-13.33,20.5-6.75,5.57-14.83,9.18-23.34,10.46-2.63.39-5.31.59-8.01.59Z"/>
      <path class="st0" d="M667.13,283.82c-8.76,0-17.62-1.65-25.56-4.81-10.58-4.21-19.43-12.04-24.92-22.03-5.38-9.8-7.94-21.7-8.07-37.48l6.1-.05c.12,14.73,2.45,25.72,7.32,34.6,4.8,8.75,12.56,15.61,21.83,19.3,9.27,3.69,19.93,5.12,29.99,4.02,21.26-2.32,39.35-17.12,43.99-35.99l5.93,1.45c-5.25,21.31-25.5,38-49.26,40.6-2.43.27-4.89.4-7.36.4Z"/>
    </g>
  </g>
  <g class="st1">
    <g>
      <g>
        <line class="st2" x1="4.9" y1="195.66" x2="53.78" y2="195.66"/>
        <line class="st2" x1="4.9" y1="187.5" x2="53.78" y2="187.5"/>
        <line class="st2" x1="4.9" y1="179.34" x2="53.78" y2="179.34"/>
      </g>
      <g>
        <line class="st2" x1="53.78" y1="195.66" x2="102.66" y2="195.66"/>
        <line class="st2" x1="53.78" y1="187.5" x2="102.66" y2="187.5"/>
        <line class="st2" x1="53.78" y1="179.34" x2="102.66" y2="179.34"/>
      </g>
      <g>
        <line class="st2" x1="102.66" y1="195.66" x2="151.54" y2="195.66"/>
        <line class="st2" x1="102.66" y1="187.5" x2="151.54" y2="187.5"/>
        <line class="st2" x1="102.66" y1="179.34" x2="151.54" y2="179.34"/>
      </g>
      <g>
        <line class="st2" x1="151.54" y1="195.66" x2="200.42" y2="195.66"/>
        <line class="st2" x1="151.54" y1="187.5" x2="200.42" y2="187.5"/>
        <line class="st2" x1="151.54" y1="179.34" x2="200.42" y2="179.34"/>
      </g>
      <g>
        <line class="st2" x1="200.42" y1="195.66" x2="249.3" y2="195.66"/>
        <line class="st2" x1="200.42" y1="187.5" x2="249.3" y2="187.5"/>
        <line class="st2" x1="200.42" y1="179.34" x2="249.3" y2="179.34"/>
      </g>
      <g>
        <line class="st2" x1="249.3" y1="195.66" x2="298.18" y2="195.66"/>
        <line class="st2" x1="249.3" y1="187.5" x2="298.18" y2="187.5"/>
        <line class="st2" x1="249.3" y1="179.34" x2="298.18" y2="179.34"/>
      </g>
      <g>
        <line class="st2" x1="298.18" y1="195.66" x2="347.06" y2="195.66"/>
        <line class="st2" x1="298.18" y1="187.5" x2="347.06" y2="187.5"/>
        <line class="st2" x1="298.18" y1="179.34" x2="347.06" y2="179.34"/>
      </g>
      <g>
        <line class="st2" x1="347.06" y1="195.66" x2="395.94" y2="195.66"/>
        <line class="st2" x1="347.06" y1="187.5" x2="395.94" y2="187.5"/>
        <line class="st2" x1="347.06" y1="179.34" x2="395.94" y2="179.34"/>
      </g>
      <g>
        <line class="st2" x1="395.94" y1="195.66" x2="444.82" y2="195.66"/>
        <line class="st2" x1="395.94" y1="187.5" x2="444.82" y2="187.5"/>
        <line class="st2" x1="395.94" y1="179.34" x2="444.82" y2="179.34"/>
      </g>
      <g>
        <line class="st2" x1="444.82" y1="195.66" x2="493.71" y2="195.66"/>
        <line class="st2" x1="444.82" y1="187.5" x2="493.71" y2="187.5"/>
        <line class="st2" x1="444.82" y1="179.34" x2="493.71" y2="179.34"/>
      </g>
      <g>
        <line class="st2" x1="493.71" y1="195.66" x2="542.59" y2="195.66"/>
        <line class="st2" x1="493.71" y1="187.5" x2="542.59" y2="187.5"/>
        <line class="st2" x1="493.71" y1="179.34" x2="542.59" y2="179.34"/>
      </g>
      <g>
        <line class="st2" x1="542.59" y1="195.66" x2="591.47" y2="195.66"/>
        <line class="st2" x1="542.59" y1="187.5" x2="591.47" y2="187.5"/>
        <line class="st2" x1="542.59" y1="179.34" x2="591.47" y2="179.34"/>
      </g>
    </g>
  </g>
  <g class="st1">
    <g>
      <g>
        <line class="st2" x1="785.61" y1="195.66" x2="834.73" y2="195.66"/>
        <line class="st2" x1="785.61" y1="187.5" x2="834.73" y2="187.5"/>
        <line class="st2" x1="785.61" y1="179.34" x2="834.73" y2="179.34"/>
      </g>
      <g>
        <line class="st2" x1="834.73" y1="195.66" x2="883.86" y2="195.66"/>
        <line class="st2" x1="834.73" y1="187.5" x2="883.86" y2="187.5"/>
        <line class="st2" x1="834.73" y1="179.34" x2="883.86" y2="179.34"/>
      </g>
      <g>
        <line class="st2" x1="883.86" y1="195.66" x2="932.98" y2="195.66"/>
        <line class="st2" x1="883.86" y1="187.5" x2="932.98" y2="187.5"/>
        <line class="st2" x1="883.86" y1="179.34" x2="932.98" y2="179.34"/>
      </g>
      <g>
        <line class="st2" x1="932.98" y1="195.66" x2="982.11" y2="195.66"/>
        <line class="st2" x1="932.98" y1="187.5" x2="982.11" y2="187.5"/>
        <line class="st2" x1="932.98" y1="179.34" x2="982.11" y2="179.34"/>
      </g>
      <g>
        <line class="st2" x1="982.11" y1="195.66" x2="1031.23" y2="195.66"/>
        <line class="st2" x1="982.11" y1="187.5" x2="1031.23" y2="187.5"/>
        <line class="st2" x1="982.11" y1="179.34" x2="1031.23" y2="179.34"/>
      </g>
      <g>
        <line class="st2" x1="1031.23" y1="195.66" x2="1080.35" y2="195.66"/>
        <line class="st2" x1="1031.23" y1="187.5" x2="1080.35" y2="187.5"/>
        <line class="st2" x1="1031.23" y1="179.34" x2="1080.35" y2="179.34"/>
      </g>
      <g>
        <line class="st2" x1="1080.35" y1="195.66" x2="1129.48" y2="195.66"/>
        <line class="st2" x1="1080.35" y1="187.5" x2="1129.48" y2="187.5"/>
        <line class="st2" x1="1080.35" y1="179.34" x2="1129.48" y2="179.34"/>
      </g>
      <g>
        <line class="st2" x1="1129.48" y1="195.66" x2="1178.6" y2="195.66"/>
        <line class="st2" x1="1129.48" y1="187.5" x2="1178.6" y2="187.5"/>
        <line class="st2" x1="1129.48" y1="179.34" x2="1178.6" y2="179.34"/>
      </g>
      <g>
        <line class="st2" x1="1178.6" y1="195.66" x2="1227.73" y2="195.66"/>
        <line class="st2" x1="1178.6" y1="187.5" x2="1227.73" y2="187.5"/>
        <line class="st2" x1="1178.6" y1="179.34" x2="1227.73" y2="179.34"/>
      </g>
      <g>
        <line class="st2" x1="1227.73" y1="195.66" x2="1276.85" y2="195.66"/>
        <line class="st2" x1="1227.73" y1="187.5" x2="1276.85" y2="187.5"/>
        <line class="st2" x1="1227.73" y1="179.34" x2="1276.85" y2="179.34"/>
      </g>
      <g>
        <line class="st2" x1="1276.85" y1="195.66" x2="1325.98" y2="195.66"/>
        <line class="st2" x1="1276.85" y1="187.5" x2="1325.98" y2="187.5"/>
        <line class="st2" x1="1276.85" y1="179.34" x2="1325.98" y2="179.34"/>
      </g>
      <g>
        <line class="st2" x1="1325.98" y1="195.66" x2="1375.1" y2="195.66"/>
        <line class="st2" x1="1325.98" y1="187.5" x2="1375.1" y2="187.5"/>
        <line class="st2" x1="1325.98" y1="179.34" x2="1375.1" y2="179.34"/>
      </g>
    </g>
  </g>
</svg>