<?xml version="1.0" encoding="UTF-8"?>
<svg id="_レイヤー_1" data-name="レイヤー_1" xmlns="http://www.w3.org/2000/svg" version="1.1" viewBox="0 0 375 375">
  <!-- Generator: Adobe Illustrator 29.0.0, SVG Export Plug-In . SVG Version: 2.1.0 Build 186)  -->
  <defs>
    <style>
      .st0 {
        fill: #c00;
      }

      .st1 {
        fill: none;
        stroke: #c00;
        stroke-miterlimit: 10;
        stroke-width: .76px;
      }
    </style>
  </defs>
  <path class="st1" d="M194.05,177.63c15.28-22.37,30.06-34.54,51.53-35.64,1.6-.08,20.92-2.64,17.92,17.01M263.49,159c2.18-23.19-22.47-18.65-22.47-18.65-23.92,2.09-34.97,17.83-46.98,34.47M263.49,159c2.18-14.46-11.12-14.58-12.28-14.57-29.47.38-42.98,15.94-57.17,36.32M263.49,159c.55-10.37-7.94-11.05-9-11.24-33.48-5.95-60.45,35.96-60.45,35.96M263.49,157.09c-1.36-4.09-4.63-6.03-6.28-6.28-20.4-3.05-40.25,6.64-63.17,35.75M199.26,189.32c15.28-4.09,45.5-16.94,55.5-38.78M203.21,191.13c19.03-7.23,43.14-15.68,54-40.32M206.64,192.69c18.07-5.28,45.5-19.1,53.03-40.24M209.71,194.11c18.94-5.03,43.99-19.03,52.14-39.2M212.79,195.52c17.2-5.12,43.25-18.08,50.7-36.52"/>
  <path class="st1" d="M111.51,158.73c-3-19.65,16.4-17.15,18.01-17.1,16.29.49,35.84,12.19,52.75,36.2M182.18,174.83c-13.19-18.1-24.01-30.56-48.84-34.65,0,0-24.01-4.64-21.83,18.55M182.18,180.75c-13-19.93-35.74-38.57-58.39-36.59-1.16.1-14.46.11-12.28,14.57M182.09,183.72s-26.19-41.18-60.03-36.81c-1.07.14-11.1,1.46-10.55,11.82M182.13,186.56c-24.4-31.46-47.34-41.04-64.35-36.02-1.59.47-4.91,2.18-6.28,6.28M120.24,150.27c10,21.84,37.32,34.38,57.52,38.74M117.78,150.54c10.86,24.64,39.45,36.28,56.73,39.92M115.19,151.88c7.54,21.15,37.33,35.1,55.4,40.38M112.99,154.21c8.15,20.17,35.55,34.33,54.49,39.36M111.51,158.73c7.45,18.43,35.43,31.09,52.63,36.22"/>
  <path class="st1" d="M284.57,235.21c-.74-.13-55.64-13.48-90.52-37.73M194.04,194.76s8.33,6.53,32.34,17.17c10.1,4.91,35.47,13.37,46.13,16.87,2.07.57,4.14,1.12,6.23,1.65,1.05.26,2.1.51,3.17.76,1.08.24,2.11.47,3.35.69M194.05,192.06c25.2,14.21,39.88,19.87,43.77,21.41,7.79,3.08,15.69,5.92,23.71,8.49,4.01,1.28,8.04,2.5,12.11,3.63,2.03.56,4.07,1.11,6.13,1.62,2.05.5,4.11,1.01,6.2,1.38M194.04,189.47c14.19,7.1,19.24,9.64,45.3,20.92,7.71,3.04,15.53,5.86,23.46,8.4,3.96,1.27,7.95,2.47,11.96,3.58,2,.56,4.01,1.09,6.02,1.59,1,.25,2.01.49,3,.72.98.22,2.02.45,2.88.6M194.04,186.81s21.45,10.2,39.16,17.76c24.28,10.37,54.15,17.4,54.15,17.4.45.09-.3-.05,0,0"/>
  <path class="st1" d="M182.18,197.47c3.44-.53-38.45,24.52-91.74,37.46M89.74,231.62c1.24-.21,2.27-.45,3.35-.69,1.07-.24,2.12-.5,3.17-.76,2.1-.52,4.17-1.07,6.23-1.65,10.65-3.5,36.03-11.96,46.13-16.87,24.38-11.82,33.56-16.9,33.56-16.9M89.04,228.31c2.09-.37,4.15-.87,6.2-1.38,2.05-.51,4.09-1.05,6.12-1.62,4.07-1.13,8.1-2.35,12.11-3.63,8.02-2.57,15.92-5.41,23.71-8.49,3.89-1.54,34.07-15.76,44.99-20.85M88.34,225c.86-.15,1.89-.37,2.87-.6,1-.23,2-.47,3-.72,2.01-.5,33.65-9.61,41.43-13.57,26.06-11.28,32.27-14.29,46.64-20.65M87.65,221.69c.3-.05-.45.09,0,0,0,0,29.57-7.73,54.15-17.4,19.19-7.55,40.29-17.25,40.29-17.25"/>
  <path class="st1" d="M191.11,197.44v-22.39M188.18,197.44v-22.39M185.25,197.44v-22.61"/>
  <path class="st0" d="M193.29,175.53v21.19h-10.35v-21.19h10.35M194.05,174.77h-11.87v22.71h11.87v-22.71h0Z"/>
</svg>