<?xml version="1.0" encoding="UTF-8"?>
<svg id="_レイヤー_1" data-name="レイヤー_1" xmlns="http://www.w3.org/2000/svg" version="1.1" viewBox="0 0 600 375">
  <!-- Generator: Adobe Illustrator 29.0.0, SVG Export Plug-In . SVG Version: 2.1.0 Build 186)  -->
  <defs>
    <style>
      .st0 {
        fill: none;
        stroke: #c00;
        stroke-miterlimit: 10;
      }

      .st1 {
        fill: #c00;
      }
    </style>
  </defs>
  <path class="st0" d="M345.12,186.58l29.45-.27M374.57,189.13l-35.05.29M333.3,192.1l41.27-.16M374.57,194.76l-48.13-.17M327.97,197.08l46.6.49"/>
  <path class="st0" d="M374.43,186.32h200M374.43,189.13h200M374.43,191.94h200M574.43,194.76h-200M574.43,197.57h-200"/>
  <path class="st0" d="M25.57,186.32h199.89M25.57,189.13l200,.29M25.57,191.94h200M225.57,194.76H25.57M225.57,197.57H25.57"/>
  <path class="st0" d="M255.93,186.58l-30.9-.27M225.07,189.42h36.94M268.74,192.1l-43.67-.16M225.07,194.76h51.21M225.07,197.57l45.49-.17"/>
  <path class="st0" d="M305.81,177.88c14.9-21.81,29.31-33.68,50.23-34.74,1.56-.08,20.4-2.57,17.47,16.58M373.51,159.72c2.13-22.61-21.91-18.18-21.91-18.18-23.32,2.04-34.09,17.38-45.8,33.61M373.51,159.72c2.13-14.1-10.84-14.22-11.97-14.2-28.73.37-41.9,15.54-55.73,35.4M373.51,159.72c.53-10.11-7.74-10.77-8.78-10.96-32.64-5.8-58.93,35.05-58.93,35.05M373.51,157.85c-1.33-3.99-4.52-5.88-6.12-6.12-19.88-2.97-39.24,6.47-61.59,34.85M310.89,189.27c14.9-3.99,44.35-16.51,54.11-37.81M314.74,191.04c18.55-7.05,42.06-15.28,52.65-39.3M318.08,192.56c17.61-5.15,44.35-18.62,51.7-39.23M321.08,193.94c18.46-4.9,42.88-18.55,50.83-38.22M324.08,195.31c16.77-4.99,42.16-17.63,49.43-35.6"/>
  <path class="st0" d="M225.34,159.45c-2.93-19.15,15.99-16.72,17.56-16.67,15.88.48,34.94,11.88,51.43,35.29M294.24,175.14c-12.86-17.65-23.41-29.79-47.62-33.78,0,0-23.41-4.52-21.28,18.09M294.24,180.92c-12.67-19.43-34.85-37.6-56.93-35.67-1.13.1-14.1.11-11.97,14.2M294.15,183.81s-25.54-40.14-58.52-35.89c-1.04.13-10.82,1.42-10.29,11.53M294.19,186.58c-23.78-30.67-46.15-40.01-62.73-35.11-1.55.46-4.79,2.13-6.12,6.12M233.85,151.2c9.75,21.29,36.39,33.51,56.07,37.77M231.46,151.47c10.59,24.02,38.46,35.37,55.3,38.92M228.93,152.78c7.35,20.61,36.39,34.22,54.01,39.36M226.79,155.05c7.95,19.66,34.65,33.47,53.12,38.37M225.34,159.45c7.27,17.97,34.54,30.31,51.31,35.31"/>
  <path class="st0" d="M394.05,234.01c-.72-.12-54.24-13.14-88.25-36.78M305.81,194.58s8.12,6.37,31.53,16.74c9.84,4.79,34.58,13.03,44.97,16.44,2.01.56,4.03,1.1,6.08,1.61,1.02.25,2.05.5,3.09.74,1.06.24,2.06.46,3.27.67M305.81,191.94c24.57,13.85,38.88,19.37,42.67,20.88,7.59,3,15.3,5.77,23.12,8.27,3.91,1.25,7.84,2.44,11.81,3.54,1.98.55,3.97,1.08,5.97,1.58,2,.49,4.01.98,6.04,1.34M305.81,189.42c13.83,6.92,18.76,9.4,44.17,20.4,7.51,2.97,15.14,5.71,22.87,8.18,3.86,1.24,7.75,2.41,11.66,3.49,1.95.54,3.91,1.06,5.87,1.55.98.24,1.96.48,2.93.7.96.22,1.97.44,2.8.58M305.8,186.82s20.91,9.94,38.18,17.32c23.67,10.11,52.79,16.96,52.79,16.96.44.09-.3-.05,0,0"/>
  <path class="st0" d="M294.24,197.22c3.35-.52-37.48,23.91-89.44,36.52M204.12,230.51c1.2-.21,2.21-.43,3.27-.67,1.04-.24,2.07-.48,3.09-.74,2.04-.51,4.06-1.05,6.08-1.61,10.39-3.41,35.13-11.66,44.97-16.44,23.76-11.53,32.72-16.47,32.72-16.47M203.44,227.29c2.04-.36,4.04-.85,6.04-1.34,2-.5,3.99-1.03,5.97-1.58,3.96-1.1,7.9-2.29,11.81-3.54,7.81-2.51,15.52-5.27,23.12-8.27,3.8-1.5,33.22-15.36,43.86-20.33M202.76,224.06c.83-.14,1.84-.36,2.8-.58.97-.22,1.95-.45,2.93-.7,1.96-.49,32.8-9.37,40.39-13.23,25.41-11,31.46-13.93,45.47-20.13M202.08,220.83c.3-.05-.44.09,0,0,0,0,28.83-7.54,52.79-16.96,18.71-7.36,39.28-16.82,39.28-16.82"/>
  <path class="st0" d="M302.95,197.19v-21.83M300.09,197.19v-21.83M297.23,197.19v-22.05"/>
  <path class="st1" d="M304.81,176.09v20.14h-9.57v-20.14h9.57M305.81,175.09h-11.57v22.14h11.57v-22.14h0Z"/>
</svg>