<?xml version="1.0" encoding="UTF-8"?>
<svg id="_レイヤー_2" data-name="レイヤー 2" xmlns="http://www.w3.org/2000/svg" viewBox="0 0 550 96">
  <defs>
    <style>
      .cls-1 {
        fill: none;
        stroke: #c00;
        stroke-miterlimit: 10;
      }

      .cls-2 {
        fill: #c00;
      }
    </style>
  </defs>
  <g>
    <path class="cls-1" d="M280.69,39.04c15.3-22.28,30.97-35.26,52.47-36.35,1.61-.08,20.95-2.63,17.95,16.94M351.1,19.62c2.19-23.09-22.5-18.57-22.5-18.57-23.96,2.08-36.13,18.85-48.15,35.43M351.1,19.62c2.19-14.4-11.13-14.52-12.3-14.51-29.52.38-43.84,16.67-58.04,36.95M351.1,19.62c.55-10.32-7.95-11-9.01-11.19-33.53-5.92-61.34,36.61-61.34,36.61M351.1,17.72c-1.37-4.08-4.64-6-6.28-6.25-20.43-3.04-41.21,7.51-64.17,36.49M286.78,49.81c15.3-4.08,45.56-16.87,55.58-38.61M290.74,51.61c19.06-7.2,43.2-15.61,54.08-40.14M294.17,53.17c18.09-5.26,45.56-19.01,53.11-40.07M297.25,54.58c18.97-5.01,44.05-18.95,52.22-39.03M300.33,55.98c17.23-5.1,43.31-18,50.77-36.36"/>
    <path class="cls-1" d="M198.9,19.35C195.89-.21,215.32,2.28,216.93,2.33c16.31.49,36.5,12.74,53.44,36.65M270.64,36.35c-13.21-18.02-25.02-31.4-49.89-35.47,0,0-24.05-4.62-21.86,18.47M270.38,41.99c-13.02-19.85-36.51-39.12-59.19-37.15-1.16.1-14.48.11-12.3,14.51M270.41,45.06S243.35,3.23,209.46,7.58c-1.07.14-11.11,1.45-10.57,11.77M270.37,47.8c-24.43-31.33-48.15-41.6-65.19-36.6-1.59.47-4.92,2.17-6.29,6.25M207.64,10.93c10.02,21.75,37.38,34.23,57.6,38.58M205.18,11.2c10.88,24.53,39.5,36.13,56.81,39.75M202.58,12.54c7.55,21.05,37.38,34.95,55.48,40.2M200.38,14.85c8.17,20.08,35.6,34.18,54.57,39.19M198.9,19.35c7.46,18.36,35.48,30.96,52.71,36.06"/>
    <path class="cls-1" d="M372.21,95.5c-.74-.13-56.75-14.44-91.68-38.59M280.83,54.51s9.06,7.22,33.11,17.82c10.11,4.89,35.52,13.31,46.19,16.8,2.07.57,4.14,1.12,6.24,1.64,1.05.26,2.1.51,3.17.75,1.08.24,2.12.47,3.36.69M280.89,51.88c25.24,14.15,40.6,20.45,44.49,21.98,7.8,3.06,15.72,5.89,23.75,8.45,4.01,1.28,8.06,2.49,12.13,3.62,2.04.56,4.08,1.1,6.13,1.61,2.06.5,4.12,1,6.21,1.37M280.73,49.43c14.21,7.06,20.1,10.13,46.2,21.36,7.72,3.03,15.56,5.83,23.49,8.36,3.97,1.26,7.96,2.46,11.97,3.57,2,.55,4.02,1.09,6.03,1.58,1.01.25,2.01.49,3.01.71.98.22,2.02.45,2.88.59M281.39,47.14s21.65,10.32,39.38,17.85c24.32,10.32,54.23,17.32,54.23,17.32h0"/>
    <path class="cls-1" d="M270.74,56.86s-39.58,25.49-92.95,38.37M177.09,91.93c1.24-.21,2.27-.44,3.36-.69,1.07-.24,2.12-.49,3.17-.75,2.1-.52,4.17-1.07,6.24-1.64,10.67-3.48,36.08-11.9,46.19-16.8,24.41-11.77,34.33-17.54,34.33-17.54M176.39,88.64c2.09-.37,4.15-.87,6.21-1.37,2.05-.51,4.1-1.05,6.13-1.61,4.07-1.13,8.12-2.34,12.13-3.61,8.03-2.56,15.95-5.39,23.75-8.45,3.9-1.53,34.79-16.35,45.72-21.42M175.7,85.34c.86-.15,1.89-.37,2.88-.59,1-.23,2-.46,3.01-.71,2.01-.5,33.69-9.57,41.49-13.51,26.1-11.23,32.88-14.79,47.27-21.12M175,82.05h0s29.62-7.7,54.23-17.32c19.22-7.52,40.6-17.43,40.6-17.43"/>
    <path class="cls-1" d="M278.27,57.9v-22.29M275.72,57.9v-22.29M273.17,57.9v-22.52"/>
    <path class="cls-2" d="M279.12,36.32c.55,0,1,.45,1,1v18.61c0,.55-.45,1-1,1h-7.02c-.55,0-1-.45-1-1v-18.61c0-.55.45-1,1-1h7.02M279.12,35.32h-7.02c-1.1,0-2,.9-2,2v18.61c0,1.1.9,2,2,2h7.02c1.1,0,2-.9,2-2v-18.61c0-1.1-.9-2-2-2h0Z"/>
  </g>
  <path class="cls-1" d="M321.87,47.08l27.72-.27M349.59,49.63l-33.31.29M310.06,52.6l39.53-.16M349.59,55.26l-46.37-.17M303.88,57.58l45.71.49"/>
  <path class="cls-1" d="M349.45,46.82h200.05M349.45,49.63h200.05M349.45,52.44h200.05M549.5,55.26h-200.05M549.5,58.07h-200.05"/>
  <path class="cls-1" d="M.5,46.82h199.94M.5,49.63l200.05.29M.5,52.44h200.05M200.55,55.26H.5M200.55,58.07H.5"/>
  <path class="cls-1" d="M230.3,47.08l-30.29-.27M200.05,49.92h36.39M243.18,52.6l-43.13-.16M200.05,55.26h50.86M200.05,58.07l45.82-.17"/>
</svg>