<?xml version="1.0" encoding="UTF-8"?>
<svg id="_レイヤー_1" data-name="レイヤー_1" xmlns="http://www.w3.org/2000/svg" version="1.1" viewBox="0 0 375 375">
  <!-- Generator: Adobe Illustrator 29.0.0, SVG Export Plug-In . SVG Version: 2.1.0 Build 186)  -->
  <defs>
    <style>
      .st0 {
        fill: #8fc123;
      }

      .st1 {
        fill: #ffb5b6;
      }

      .st2 {
        fill: #f2635f;
      }

      .st3 {
        fill: #ffda71;
      }

      .st4 {
        fill: #348210;
      }

      .st5 {
        fill: #f4b467;
      }

      .st6 {
        fill: #211715;
      }
    </style>
  </defs>
  <path class="st4" d="M187.08,209.64c.26-.73,1.25-1.6,2.13-2.17,1.83-1.2,3.35-1.79,5.92-1.94,3.29-.2,7.7.9,11.19,4.68.08.09.07.22-.01.3-.07.06-.17.07-.25.03-4.07-2.27-6.7-2.85-10.1-2.54-1.27.08-2.52.4-3.68.95-1.14.58-1.95,1.49-2.76,2.46-.4.48-1.37,1.39-2.51,1.18"/>
  <path class="st4" d="M182.47,170.15c-.05,1.56-.06,3.25,1,4.53.34.42.78.77,1.05,1.23.23.48.37,1,.4,1.54.03.54.21,1.06.5,1.51.33.44.95.64,1.57.64.72,0,1.23-.19,1.57-.64.29-.45.47-.97.5-1.51.03-.53.17-1.06.4-1.54.26-.45.71-.81,1.05-1.23,1.05-1.28,1.04-2.97,1-4.53"/>
  <path class="st6" d="M187.65,209.8c.22-.58.88-1.11,1.37-1.48.56-.42,1.16-.79,1.78-1.11,1.18-.6,2.47-.95,3.79-1.06,2.51-.23,5.03.25,7.27,1.39.73.37,1.44.81,2.1,1.3.32.24.63.5.93.77.17.15.33.31.49.46.08.07.15.15.22.23.05.05.1.1.15.15.11.15.12.09.02-.17l.15-.26.32-.07-.21-.12c-.1-.06-.21-.11-.31-.17-.17-.09-.34-.18-.5-.26-.35-.18-.7-.35-1.06-.52-.66-.31-1.34-.58-2.02-.82-1.19-.4-2.42-.65-3.68-.73-1.36-.08-2.73,0-4.06.26-1.56.27-3,1-4.14,2.09-.51.5-.93,1.09-1.44,1.59-.42.41-1.02.81-1.64.71-.31-.08-.63.1-.72.41-.08.31.1.63.41.72.8.13,1.62-.08,2.26-.58.56-.41.96-.94,1.42-1.45.51-.6,1.11-1.11,1.77-1.52.75-.41,1.56-.69,2.4-.84,2.8-.53,5.69-.21,8.3.92.8.34,1.57.73,2.33,1.14.41.22.81.49,1.26.2.37-.25.46-.75.21-1.12-.02-.03-.05-.07-.08-.1-.55-.62-1.16-1.19-1.83-1.68-.64-.51-1.33-.96-2.04-1.36-2.34-1.3-4.99-1.93-7.67-1.81-1.68.06-3.32.46-4.83,1.18-.75.37-1.47.82-2.13,1.33-.7.54-1.39,1.18-1.71,2.03-.08.31.1.63.41.72.31.08.63-.1.72-.41h0Z"/>
  <path class="st4" d="M186.83,198.89c-.26-.73-1.25-1.6-2.13-2.17-1.83-1.2-3.35-1.79-5.92-1.94-3.29-.2-7.7.9-11.19,4.68-.08.09-.07.22.02.3.07.06.17.07.24.03,4.07-2.27,6.7-2.85,10.1-2.54,1.27.08,2.52.4,3.68.95,1.14.58,1.95,1.49,2.76,2.46.4.48,1.37,1.39,2.51,1.18"/>
  <path class="st6" d="M187.4,198.73c-.32-.73-.83-1.36-1.47-1.84-.6-.49-1.24-.92-1.92-1.29-1.26-.69-2.65-1.14-4.08-1.31-2.72-.35-5.49.08-7.98,1.24-1.42.66-2.72,1.54-3.87,2.6-.32.28-.62.58-.9.9-.31.32-.29.84.04,1.14.03.03.06.05.1.08.45.29.85.02,1.26-.2.43-.23.86-.45,1.3-.67,1.31-.66,2.7-1.14,4.14-1.43,1.3-.23,2.63-.27,3.94-.13.96.07,1.91.28,2.82.61.83.33,1.58.84,2.19,1.48.54.55.98,1.21,1.58,1.7.68.61,1.6.89,2.51.77.31-.09.49-.41.41-.72-.09-.31-.41-.49-.72-.41-1.21.19-2.04-1.21-2.73-1.95-1.05-1.14-2.41-1.94-3.91-2.31-2.6-.65-5.33-.58-7.9.2-.74.23-1.46.51-2.17.83-.39.17-.77.35-1.14.54-.2.1-.4.2-.6.31-.1.05-.21.11-.31.16-.07.04-.14.08-.21.11-.2.08-.13.13.21.13l.15.26-.05.24c.05-.05.1-.1.15-.16.07-.08.15-.15.22-.23.15-.15.3-.29.45-.43.3-.27.61-.54.93-.79.57-.44,1.17-.83,1.81-1.18,1.16-.63,2.4-1.1,3.69-1.38,2.4-.52,5.15-.42,7.4.64.7.33,1.37.72,2,1.17.55.39,1.29.96,1.54,1.6.09.31.41.49.72.41.31-.09.49-.41.41-.72h0Z"/>
  <path class="st6" d="M186.39,179.87v48.77c0,.75,1.18.76,1.18,0v-48.77c0-.75-1.18-.76-1.18,0Z"/>
  <path class="st6" d="M181.88,170.15c-.05,1.56-.03,3.26.89,4.59.45.65,1.2,1.13,1.41,1.92.21.78.17,1.6.56,2.33.72,1.37,3.06,1.64,4.12.5.6-.64.68-1.48.81-2.31.04-.37.15-.73.34-1.06.23-.31.49-.6.77-.87,1.27-1.42,1.35-3.29,1.3-5.1-.02-.75-1.2-.76-1.18,0,.04,1.32.08,2.76-.68,3.91-.4.61-1.04,1.03-1.36,1.69-.34.71-.32,1.47-.51,2.22-.15.56-.45.95-1.05,1.02-.58.07-1.25-.03-1.54-.59-.32-.62-.26-1.39-.44-2.05-.21-.79-.74-1.3-1.27-1.89-1.07-1.17-1.04-2.82-.99-4.31.02-.76-1.15-.75-1.18,0h0Z"/>
  <path class="st6" d="M186.16,174.99c.07-.09.14-.17.22-.25.03-.04.07-.07.11-.11.02-.02.05-.04.07-.06.07-.07-.09.06-.04.03.05-.03.09-.06.14-.09.02-.01.05-.02.07-.03.06-.03-.13.05-.03.02.06-.02.12-.03.19-.05.07-.02-.14,0-.02,0,.04,0,.08,0,.12,0,.03,0,.07,0,.1,0,.1,0,.03.01-.02,0,.06.02.13.02.19.04.03.01.05.02.08.03-.13-.02-.08-.04-.02,0,.05.02.09.05.13.08.09.06-.11-.09-.02-.02.02.02.04.03.06.05.04.04.08.08.12.12.08.08.15.17.22.25.23.23.6.23.83,0,.22-.23.22-.6,0-.83-.18-.23-.38-.43-.62-.6-.63-.39-1.42-.4-2.05,0-.24.17-.45.38-.63.61-.23.23-.23.6,0,.83s.6.23.83,0c0,0,0,0,0,0h0Z"/>
  <path class="st2" d="M174.85,147.63c-1.67,1.04-3.72,1.33-4.27,3.02,0,0-.5,1.98-.91,3.64-5.05,2.71-6.38,7.6-5.14,9.12.79.97,4.02.69,4.49,2.32.67,3.99,8.08,2.88,10.26,1.84l.63-.3c1.83,1.99,4.73,4.21,7.81,4.35,1.76.08,3.46-.98,4.48-2.76,1.2.53,2.53.71,3.84.53,1.2-.23,2.28-.87,3.07-1.8.29.04.46.06.46.06,3.41.44,6.02-.11,7.78-1.21,2.75-1.72,3.41-4.77,1.73-7.45,2.06-2.35-2.38-3.95-5.14-4.89l-.75-.26c.93-1.1,1.5-2.46,1.62-3.9.05-.94-.45-1.83-1.28-2.29-1.65-.9-3.52-1.48-5.31-2.03l-.1-.03-2.31-.72c-.29-.92-.79-1.7-1.72-1.98-3.16-.93-6.56-.67-9.54.74-1-.89-2.55-1.2-5-.26-2.3.88-2.4,2.28-3.87,3.64-.25.23-.53.44-.82.62Z"/>
  <path class="st6" d="M169.39,153.78c-2.32,1.25-4.32,3.18-5.34,5.63-.57,1.36-1.07,3.72.4,4.72.81.55,1.9.62,2.82.92.39.1.74.3,1.03.58.11.12-.05-.09.04.05.03.05.06.09.08.14-.05-.11.02.06.02.07.01.06.02.11.03.17.06.25.14.48.25.71.84,1.79,3.05,2.28,4.85,2.36,1.14.04,2.29-.05,3.41-.27.89-.15,1.76-.41,2.59-.77.28-.17.37-.52.21-.8-.17-.27-.52-.37-.8-.21-.04.02-.26.11-.1.05-.06.03-.13.05-.19.08-.17.06-.35.12-.52.18-.38.11-.76.21-1.15.29-.88.19-1.77.29-2.67.3-.48.01-.96,0-1.44-.06-.41-.05-.82-.13-1.21-.24-.37-.09-.71-.24-1.03-.45-.28-.18-.53-.4-.72-.67-.05-.07-.09-.15-.13-.22-.02-.03-.11-.25-.07-.15-.08-.21-.11-.43-.18-.65-.16-.48-.49-.88-.93-1.14-.84-.54-1.89-.67-2.83-.94-.1-.03-.19-.06-.28-.09-.05-.02-.11-.04-.16-.06.02,0,.09.04,0,0-.09-.04-.18-.09-.27-.14-.03-.02-.05-.03-.08-.05.12.09-.02-.04-.04-.06-.11-.09.07.1,0,0-.01-.02-.03-.04-.04-.06-.04-.06-.07-.13-.1-.19-.02-.03-.04-.1.01.04-.01-.04-.03-.07-.04-.11-.02-.08-.05-.15-.07-.23,0-.04-.05-.25-.04-.17.01.1,0-.05,0-.05,0-.05,0-.09-.01-.14-.01-.19,0-.37,0-.56,0-.15.03-.3.06-.45.04-.23.1-.46.17-.68.75-2.43,2.8-4.43,5.06-5.64.67-.36.07-1.37-.59-1.01h0Z"/>
  <path class="st6" d="M203.78,154.68c1.28.44,2.57.88,3.74,1.55.14.08.27.16.4.25.11.07.28.2.32.22.11.09.21.18.31.27.05.05.09.09.14.14.02.02.14.18.08.09.07.1.13.2.18.3.05.1-.02-.07.01.04.02.06.03.12.05.18.02.09.01-.08,0,.05,0,.05,0,.11,0,.17,0-.12,0,.01-.02.06-.01.04-.06.18-.05.15-.14.28-.33.52-.57.72-.39.35-.82.65-1.28.9-.65.38-.06,1.4.59,1.01,1.29-.76,3.08-2.1,2.3-3.81-.31-.59-.77-1.08-1.34-1.42-.63-.42-1.31-.77-2.02-1.06-.84-.35-1.69-.66-2.55-.95-.72-.24-1.03.89-.31,1.13h0Z"/>
  <path class="st6" d="M208.78,159.66c.18.33.33.68.43,1.04.11.33.17.68.19,1.03.05.67-.07,1.35-.33,1.97-.65,1.46-1.96,2.43-3.51,2.97-1.2.39-2.46.59-3.72.57-.76,0-.76,1.18,0,1.17,2.3,0,4.68-.49,6.51-1.94,1.4-1.08,2.22-2.74,2.23-4.5-.02-1.01-.29-2-.78-2.89-.36-.67-1.37-.07-1.01.59h0Z"/>
  <path class="st6" d="M175.47,158.15c-1.4-.21-2.56-1.15-3.48-2.17-.92-1-1.64-2.17-2.12-3.44-.09-.31-.41-.49-.72-.41-.31.09-.49.41-.41.72.53,1.47,1.36,2.81,2.42,3.96,1.04,1.15,2.42,2.24,4,2.47.31.08.63-.1.72-.41.08-.31-.1-.63-.41-.72h0Z"/>
  <path class="st6" d="M179.7,159.03c1.55-.37,3.14-.51,4.73-.43,1.73.06,3.45.34,5.11.83.86.25,1.68.59,2.47,1.01.66.36,1.26-.65.59-1.01-1.56-.82-3.25-1.38-4.99-1.66-1.8-.33-3.62-.43-5.45-.31-.94.06-1.87.21-2.79.43-.73.19-.42,1.32.31,1.13Z"/>
  <path class="st6" d="M182.17,150.05c.73-.91,2.64-1.94,3.51-.69.19.28.67.44.92.12.7-.87,3.13-1.63,3.57-.15.21.72,1.35.42,1.13-.31-.34-1.15-1.4-1.74-2.57-1.67-1.04.07-2.29.45-2.97,1.3l.92.12c-.27-.42-.65-.75-1.1-.96-.5-.19-1.04-.23-1.57-.14-1.06.17-2.01.72-2.69,1.55-.22.23-.22.6,0,.83.23.23.6.23.83,0h0Z"/>
  <path class="st6" d="M171.15,150.81c.32-.95,1.36-1.39,2.26-1.8,1.13-.52,2.23-1.05,3.08-1.99.73-.8,1.21-1.81,2.09-2.47.6-.42,1.26-.72,1.97-.9.6-.19,1.23-.28,1.86-.26.48.02.95.15,1.36.4.38.24.7.56.94.93.42.63,1.43.04,1.01-.59-.57-.92-1.49-1.58-2.55-1.82-1.47-.3-3.08.12-4.4.76-.6.29-1.14.69-1.59,1.19-.41.46-.75.98-1.12,1.47-.35.48-.78.9-1.27,1.25-.55.36-1.14.67-1.75.92-1.26.57-2.54,1.2-3.01,2.6-.24.72.89,1.02,1.13.31Z"/>
  <path class="st6" d="M187.14,143.34c1.62-.42,3.3-.52,4.96-.28.46.07.92.16,1.37.28.36.06.7.21,1.01.41.52.42.74,1.09.89,1.71.18.73,1.31.42,1.13-.31-.19-.79-.52-1.61-1.13-2.18-.73-.67-1.78-.86-2.72-1.01-1.93-.32-3.91-.24-5.8.25-.73.19-.42,1.32.31,1.13Z"/>
  <path class="st6" d="M197.96,146.18c.93.29,1.86.58,2.77.91.9.29,1.77.68,2.59,1.15,1.45.91.86,2.87.2,4.09-.45.84-1.08,1.59-1.83,2.19-.23.23-.23.6,0,.83.23.22.6.22.83,0,1.57-1.25,2.59-3.06,2.85-5.04.12-.95-.19-1.91-.86-2.6-.71-.73-1.81-1.11-2.74-1.47-1.14-.45-2.32-.81-3.49-1.18-.72-.23-1.03.91-.31,1.13h0Z"/>
  <path class="st6" d="M195.7,148.87c-1.8,2.25-4.13,4.49-7.2,4.48-.76,0-.76,1.17,0,1.17,3.39.01,6.03-2.32,8.03-4.82.22-.23.22-.6,0-.83-.23-.23-.6-.23-.83,0h0Z"/>
  <path class="st6" d="M198.71,163.22c.59.63.96,1.45.79,2.32-.21.9-.72,1.71-1.45,2.28-1.64,1.38-3.81,1.25-5.69.48-.31-.08-.63.1-.72.41-.08.31.1.63.41.72,1.83.74,3.94.92,5.73-.02,1.57-.83,2.91-2.44,2.95-4.27-.01-1.04-.43-2.02-1.17-2.75-.52-.55-1.35.28-.83.83Z"/>
  <path class="st6" d="M178.43,166.42c1.37,1.84,3.1,3.38,5.09,4.52,2.06,1.14,4.66,1.85,6.84.62,1.19-.7,2.12-1.76,2.67-3.02.15-.28.06-.63-.21-.8-.28-.16-.64-.07-.8.21-.41.98-1.09,1.82-1.96,2.43-.8.53-1.76.76-2.71.65-2.15-.21-4.14-1.47-5.72-2.87-.8-.7-1.53-1.48-2.19-2.32-.17-.27-.52-.36-.8-.21-.28.16-.37.52-.21.8h0Z"/>
  <path class="st6" d="M140.09,174.98v60.24c0,1.04,1.62,1.04,1.62,0v-60.24c0-1.04-1.62-1.04-1.62,0Z"/>
  <path class="st0" d="M134.6,172.38c1.01,2.68,2.1,4.9,3,5.83.93.95,5.29,1.14,6.74-.22.74-.69,2.17-3.53,3.3-6.03-.39.11-.79.21-1.21.31-2.36.46-8.33.63-11.83.11Z"/>
  <path class="st6" d="M133.66,172.19c.69,1.85,1.42,3.74,2.48,5.42.31.57.74,1.07,1.26,1.46.5.29,1.04.48,1.61.55,1.44.27,2.92.2,4.32-.2.62-.17,1.19-.49,1.65-.93.41-.47.77-.99,1.07-1.54,1-1.77,1.89-3.6,2.68-5.47.21-.39.08-.87-.29-1.11-.39-.22-.88-.09-1.11.29-.68,1.56-1.4,3.11-2.21,4.61-.31.6-.65,1.18-1.03,1.75-.03.04-.2.26-.09.14-.06.08-.13.15-.2.23-.03.03-.06.06-.09.08-.17.15.07-.05-.05.03-.12.08-.25.16-.38.22-.21.09-.43.16-.65.22-.28.07-.56.13-.84.16-.63.07-1.28.07-1.91.02-.48-.04-.96-.15-1.42-.31-.06-.04-.13-.07-.19-.1-.19-.1.02.06-.07-.05-.16-.18-.31-.36-.45-.56-1.11-1.61-1.83-3.51-2.51-5.33-.13-.42-.57-.67-1-.57-.43.12-.68.57-.57,1h0Z"/>
  <path class="st0" d="M140.36,191.33c-.99-1.03-2.8-2.12-4.38-2.91-3.24-1.61-8.42-3.91-9.62-3.62-.15.05-.26.18-.29.34-.21.98.38,3.31,1.25,4.82.88,1.53,1.96,2.94,3.21,4.2,1.27,1.26,2.51,2.59,5.16,3.25,1.58.39,4.83-.77,5.43-3.38,1.31,1.56,3.74,1.32,5.07.76,2.51-1.06,3.53-2.57,4.58-4.01,1.03-1.43,1.88-3,2.51-4.65.63-1.62.84-4.02.48-4.95-.05-.15-.18-.26-.34-.29-1.23-.11-5.67,3.25-8.61,5.36-1.43,1.02-3.65,2.93-4.4,5.15-.01-.02-.03-.03-.04-.05Z"/>
  <path class="st6" d="M140.93,190.75c-1.19-1.21-2.73-2.11-4.23-2.88-1.3-.67-2.63-1.28-3.96-1.87-1.31-.6-2.65-1.13-4.02-1.59-.81-.26-2.07-.75-2.88-.27-.65.39-.67,1.25-.61,1.92.08.73.23,1.46.46,2.16.55,1.59,1.38,3.08,2.44,4.39,1.86,2.43,4.2,4.78,7.26,5.54,2.65.66,5.85-1.29,6.5-3.92l-1.36.36c2.01,2.29,5.56,1.47,7.75-.04,1.1-.81,2.06-1.8,2.84-2.93,1.02-1.37,1.87-2.84,2.55-4.41.64-1.44,1-2.98,1.05-4.55.04-.58-.03-1.16-.21-1.72-.28-.75-.97-.99-1.69-.81-1.01.24-1.96.9-2.82,1.45-1.23.79-2.41,1.64-3.59,2.49-2.66,1.91-5.66,3.85-6.8,7.09l1.36-.36-.04-.04c-.72-.76-1.86.39-1.15,1.15l.04.04c.33.31.85.3,1.16-.02.09-.09.16-.21.2-.34.83-2.35,3.02-3.93,4.96-5.33,2-1.44,3.98-3,6.17-4.16.18-.1.36-.19.55-.27.12-.06-.07.02.13-.05.08-.03.15-.05.23-.07.04,0,.07-.02.1-.03.12-.05-.04.03-.07,0,.01,0,.08,0,.09,0,.21.06-.26-.72-.34-.24-.01.06.05.19.07.26.02.09.04.18.04.28.08,1.24-.09,2.48-.51,3.65-.52,1.45-1.22,2.84-2.09,4.11-.62.99-1.35,1.9-2.17,2.73-1.59,1.5-4.85,3.03-6.63.99-.32-.31-.84-.31-1.16.01-.09.1-.16.21-.2.34-.26.96-.91,1.78-1.8,2.24-.74.45-1.61.66-2.47.61-.13,0,.13.02,0,0-.04,0-.09-.02-.13-.03-.18-.04-.36-.09-.54-.15-.35-.1-.68-.22-1.01-.37-.57-.26-1.11-.58-1.6-.97-.95-.77-1.82-1.62-2.61-2.56-1.04-1.15-1.9-2.45-2.56-3.85-.26-.59-.46-1.21-.6-1.84-.06-.26-.11-.52-.15-.78.01-.26,0-.51-.02-.77.03.08-.04.03,0,.04v-.03c-.04.13-.16.22-.3.23,0,.03-.12,0,0,0,.03,0,.06,0,.1,0,.07,0,.14,0,.22.01.09,0-.06,0-.06,0,.07,0,.13.02.2.03.44.09.88.21,1.3.35,1.14.37,2.25.82,3.34,1.3,1.35.59,2.68,1.21,4,1.87,1.47.74,3,1.57,4.15,2.75.73.75,1.87-.4,1.14-1.15Z"/>
  <path class="st6" d="M139.61,208.59h1.08c.21,0,.42-.09.57-.24.14-.16.23-.36.24-.57,0-.21-.09-.42-.24-.57-.15-.15-.36-.23-.57-.24h-1.08c-.21,0-.42.09-.57.24-.14.16-.23.36-.24.57,0,.21.09.42.24.57.15.15.36.23.57.24Z"/>
  <path class="st6" d="M141.02,218.02h1.08c.21,0,.42-.09.57-.24.14-.16.23-.36.24-.57,0-.21-.09-.42-.24-.57-.15-.15-.36-.23-.57-.24h-1.08c-.21,0-.42.09-.57.24-.14.16-.23.36-.24.57,0,.21.09.42.24.57.15.15.36.23.57.24Z"/>
  <path class="st1" d="M131.02,172.12c-1.45-.29-2.73-1.11-3.61-2.3-1.62-2.09-2.61-3.91-3.93-6.2-.8-1.4-2.15-3.19-3.03-4.54-1.43-2.21-2.53-4.13-3.98-5.93-.48-.59-.79-1.43-.62-1.97.14-.45.77-.91,1.23-1.12,1.69-.75,4.07-.69,5.62-.27l.84.3c-.17-.55-.3-1.1-.4-1.66-.3-1.84-.12-2.78.39-3.42.53-.67,1.72-.9,2.57-1.05l6.25-1.07,4.19-1.12c1.64-1.65,4.03-2.31,6.28-1.76,1.5.39,2.8,1.29,4.17,2.02,3.52,1.86,6.93,2.46,10.54,2.78.7.04,1.06.08,1.32.52.08.19.12.39.12.6l3.68,1.61c.24.76.6,1.47,1.07,2.11,1.06,1.41,1.21,2.54.07,3.58l-.75.75c-.54.45-1.03.97-1.44,1.55-.55.9-1,1.86-1.37,2.85-1.44,3.68-2.93,7.03-5.75,9.7-2.79,2.64-4.94,3.43-8.07,4.18-2.53.5-9.23.66-12.55-.02"/>
  <path class="st6" d="M122.92,149.01c-1.06-.27-2.15-.38-3.24-.32-1.13.01-2.25.29-3.26.8-.54.28-.99.73-1.27,1.28-.2.51-.2,1.08-.01,1.59.21.56.51,1.08.9,1.53.38.48.74.98,1.08,1.49,1.4,2.06,2.68,4.19,4.1,6.24,1.37,1.97,2.47,4.1,3.75,6.12,1.43,2.25,3.04,4.6,5.83,5.15.43.11.87-.14,1-.56.11-.43-.14-.87-.57-1-.91-.17-1.75-.58-2.43-1.2-.77-.77-1.44-1.62-2-2.55-1.21-1.81-2.17-3.78-3.38-5.6-1.24-1.87-2.52-3.71-3.72-5.61-.61-.96-1.23-1.91-1.9-2.83-.35-.47-1.44-1.54-1.16-2.16.17-.37.76-.61,1.12-.73.51-.17,1.04-.28,1.58-.33,1.05-.1,2.12-.02,3.14.24,1.01.27,1.44-1.29.43-1.56h0Z"/>
  <path class="st6" d="M126.7,155.7c-.61-1.13-1.14-2.31-1.58-3.52-.49-1.2-.87-2.45-1.14-3.72-.14-.66-.19-1.33-.15-2,.02-.21.07-.42.14-.62.05-.13-.05.09,0-.02.02-.05.04-.09.07-.13s.16-.23.12-.19c.39-.44,1.11-.56,1.66-.67.74-.15,1.48-.26,2.22-.39l4.52-.77c.43-.12.68-.57.57-1-.13-.42-.57-.67-1-.57l-4.34.74c-.8.14-1.6.26-2.39.42-.77.12-1.51.42-2.14.88-1.06.86-1.15,2.35-1.02,3.6.18,1.42.54,2.82,1.05,4.16.55,1.59,1.22,3.13,2.01,4.62.5.91,1.9.1,1.4-.82h0Z"/>
  <path class="st6" d="M133.65,173.04c2.81.56,5.77.55,8.62.44,1.29-.04,2.57-.15,3.84-.33,1.44-.24,2.85-.65,4.19-1.24,3.13-1.33,5.74-3.82,7.55-6.66.92-1.49,1.71-3.05,2.37-4.68.68-1.6,1.17-3.46,2.24-4.85.84-1.1,2.34-1.86,2.8-3.23.3-.89.03-1.83-.43-2.61-.25-.42-.57-.79-.82-1.21-.24-.42-.44-.87-.59-1.33-.33-.98-1.9-.56-1.56.43.25.81.63,1.57,1.12,2.26.37.5.89,1.18.78,1.82-.08.47-.51.79-.83,1.11-.39.39-.8.75-1.18,1.14-1.28,1.31-1.89,3.08-2.55,4.74-.59,1.54-1.29,3.04-2.08,4.49-1.57,2.8-3.84,5.29-6.73,6.76-1.29.62-2.65,1.08-4.05,1.37-.43.1-.87.17-1.31.2-.62.07-1.24.11-1.86.15-1.61.09-3.22.11-4.83.06-1.43-.02-2.85-.15-4.25-.4-.43-.11-.87.14-1,.57-.11.43.14.87.57,1h0Z"/>
  <path class="st6" d="M149.23,147.76c.12.79.02,1.59-.29,2.32-.34.7-.84,1.32-1.45,1.8-.62.56-1.14,1.26-.99,2.14.15.86.96,1.52,1.66,1.95,1.56.93,3.43,1.17,5.17.66.92-.3,1.77-.77,2.52-1.39.65-.56,1.22-1.21,1.69-1.93.94-1.37,1.62-2.89,2.02-4.5.25-.97.32-1.98.22-2.98-.1-.87-.52-1.59-1.44-1.75-.92-.17-1.87-.17-2.8-.3s-1.84-.28-2.75-.49c-1.95-.43-3.83-1.13-5.59-2.08-1.87-1.01-3.66-2.19-5.85-2.22-2.02-.02-3.96.77-5.39,2.19-.74.74.41,1.89,1.15,1.15,1.03-1.03,2.4-1.64,3.86-1.71,1.66-.07,3.07.66,4.47,1.46,1.56.91,3.21,1.66,4.93,2.23,1.71.53,3.47.89,5.26,1.1.78.1,1.57.15,2.34.24.15.02.18.05.19.08.08.43.1.87.05,1.3-.13,1.54-.59,3.03-1.37,4.37-.71,1.28-1.58,2.45-2.86,3.19-1.29.76-2.85.89-4.25.35-.38-.14-.74-.34-1.06-.58-.19-.15-.54-.41-.58-.67,0,.04.04-.1.06-.14.08-.12.17-.24.28-.33.27-.27.57-.5.84-.78,1.3-1.36,1.87-3.27,1.53-5.12-.12-.43-.57-.68-1-.57-.43.13-.67.57-.57,1h0Z"/>
  <path class="st6" d="M129.99,148.31c1.26.66,2.34,1.61,3.17,2.76l1.27-.98-.21-.26v1.15c2.48-2.76,6.93-3.19,9.92-1.02.39.22.88.09,1.11-.29.22-.39.09-.88-.29-1.11-3.54-2.58-8.97-1.99-11.89,1.27-.3.32-.3.82,0,1.15l.21.26c.57.71,1.81-.23,1.27-.98-.98-1.39-2.26-2.53-3.75-3.34-.92-.49-1.74.9-.82,1.4h0Z"/>
  <path class="st6" d="M129.61,157.97c3.13-.88,6.6-.18,9.63.76,1.45.44,2.86,1,4.22,1.67,1.02.51,2.28,1.12,2.84,2.05.16.25.26.52.31.81.05.32.06.64.03.96-.13.94-.4,1.85-.8,2.71-.12.43.14.87.57,1,.43.11.87-.14,1-.57.64-1.52,1.23-3.36.64-4.99-.52-1.44-1.75-2.29-3.04-3-3.07-1.66-6.41-2.75-9.87-3.22-1.98-.32-4-.23-5.94.26-1,.28-.58,1.84.43,1.56h0Z"/>
  <path class="st6" d="M152.38,160.74s-.12.15-.04.06-.05.05-.05.06c-.06.07-.13.14-.19.21-.14.14-.29.28-.44.4-.05.04-.09.07-.14.11.09-.07.02-.02-.03.02-.09.06-.18.13-.26.19-.19.13-.39.25-.6.37-.2.11-.4.21-.6.31-.06.03-.11.05-.17.08s-.09.04-.01,0c-.12.05-.23.09-.35.13-.43.15-.87.27-1.32.34-.43.12-.68.56-.57,1,.13.42.57.67,1,.57,1.03-.18,2.01-.54,2.91-1.07.89-.48,1.67-1.15,2.27-1.96.22-.39.09-.88-.29-1.11-.39-.21-.88-.09-1.11.29h0Z"/>
  <path class="st6" d="M235.49,188.12c.03,4.97,0,9.95-.07,14.92-.07,5.17-.18,10.35-.32,15.52-.07,2.61-.15,5.22-.25,7.83-.03.83,1.26.83,1.29,0,.17-4.83.31-9.67.41-14.5.11-5.21.19-10.42.23-15.64.02-2.71.02-5.42,0-8.13,0-.83-1.29-.83-1.29,0h0Z"/>
  <path class="st6" d="M230.22,209.79c1.77.75,3.43,1.74,4.93,2.95.26.24.66.24.91,0,.25-.25.25-.66,0-.91-1.57-1.29-3.32-2.35-5.19-3.15-.31-.17-.69-.07-.88.23-.18.31-.07.7.23.88h0Z"/>
  <path class="st6" d="M236.69,205.71c1.56-2.49,3.62-4.62,6.04-6.28.3-.18.4-.57.23-.88-.18-.3-.57-.41-.88-.23-2.61,1.78-4.82,4.07-6.5,6.74-.44.7.67,1.35,1.11.65Z"/>
  <path class="st3" d="M238.8,174.29c.03,2.55.77,5.04,2.14,7.19,1.07,1.67,2.71,3.03,4.83,3.49.93.23,1.91.15,2.79-.24.88-.45,1.56-1.2,1.93-2.12.31-.82.41-1.71.29-2.57-.35-2.85-2.29-5.52-4.57-7.11-.84-.58-1.75-1.05-2.72-1.38l-4.7,2.74Z"/>
  <path class="st3" d="M232.88,154.22c-.03-2.55-.77-5.04-2.14-7.19-1.07-1.67-2.71-3.03-4.83-3.49-.93-.23-1.91-.15-2.79.24-.88.45-1.56,1.2-1.93,2.12-.31.82-.41,1.71-.29,2.57.34,2.85,2.29,5.52,4.57,7.11.84.58,1.76,1.05,2.72,1.38l4.7-2.74Z"/>
  <path class="st0" d="M224.34,212.5c.76.02,1.51-.08,2.23-.3.79-.23,1.52-.63,2.14-1.17.28-.29.54-.6.79-.91.78-.86,1.28-2.37,1.18-3.36-.12-.74-.37-1.46-.73-2.13-.24-.4-.53-.77-.87-1.09-.65-.68-1.41-1.24-2.25-1.67-1.67-.88-3.58-1.22-5.45-.97-3.68.51-6.86,3.17-8.51,6.5,1.95.81,3.7,2.03,5.53,3.08s3.83,1.95,5.94,2.02Z"/>
  <path class="st0" d="M248.42,201.6c-1.19.16-2.4-.01-3.5-.49-.73-.32-1.37-.8-1.88-1.41-.54-.59-.96-1.27-1.23-2.02-.17-.77-.19-1.56-.04-2.33.19-.85.58-1.65,1.15-2.31.59-.72,1.3-1.34,2.09-1.84,1.57-1,3.41-1.5,5.27-1.43,3.71.16,7.13,2.52,9.08,5.68-1.87.98-3.49,2.36-5.22,3.58s-3.63,2.3-5.72,2.57Z"/>
  <path class="st3" d="M232.38,174.13c-1.47,2.09-2.32,4.54-2.47,7.09-.11,1.98.43,4.04,1.89,5.65.62.73,1.46,1.24,2.4,1.43.98.15,1.97-.07,2.8-.59.73-.48,1.33-1.14,1.74-1.92,1.39-2.51,1.37-5.81.45-8.44-.34-.96-.81-1.87-1.41-2.7l-5.41-.52Z"/>
  <path class="st3" d="M239.31,154.38c1.47-2.09,2.32-4.54,2.47-7.09.1-1.98-.43-4.04-1.89-5.65-.62-.73-1.46-1.24-2.4-1.43-.98-.15-1.97.07-2.8.59-.73.48-1.33,1.14-1.74,1.92-1.39,2.51-1.37,5.81-.45,8.44.34.96.81,1.87,1.41,2.7l5.41.52Z"/>
  <path class="st3" d="M227.19,170.16c-2.42.82-4.56,2.29-6.19,4.25-1.26,1.54-2.05,3.51-1.83,5.67.06.96.45,1.86,1.08,2.58.7.69,1.63,1.11,2.61,1.18.88.05,1.75-.13,2.54-.52,2.61-1.21,4.55-3.88,5.37-6.53.3-.98.46-1.99.47-3.01l-4.06-3.62Z"/>
  <path class="st3" d="M244.49,158.35c2.42-.82,4.56-2.29,6.19-4.25,1.26-1.54,2.05-3.51,1.83-5.67-.06-.96-.45-1.86-1.08-2.58-.7-.69-1.63-1.11-2.61-1.18-.88-.05-1.75.13-2.54.52-2.61,1.21-4.55,3.88-5.37,6.53-.3.98-.46,1.99-.47,3.01l4.05,3.62Z"/>
  <path class="st3" d="M225.37,163.88c-2.43-.78-5.03-.86-7.51-.25-1.93.49-3.74,1.6-4.84,3.47-.52.81-.75,1.76-.66,2.72.15.97.65,1.86,1.4,2.5.68.56,1.49.93,2.35,1.09,2.82.58,5.97-.42,8.21-2.07.82-.61,1.55-1.33,2.17-2.14l-1.11-5.31Z"/>
  <path class="st3" d="M246.31,164.63c2.43.78,5.03.86,7.51.25,1.93-.49,3.74-1.6,4.84-3.47.52-.81.75-1.76.66-2.72-.15-.97-.65-1.86-1.4-2.5-.68-.56-1.49-.93-2.35-1.09-2.82-.58-5.97.42-8.21,2.07-.82.61-1.55,1.33-2.17,2.14l1.11,5.31Z"/>
  <path class="st3" d="M227.6,157.79c-1.51-2.06-3.56-3.66-5.93-4.62-1.85-.74-3.97-.9-5.96-.04-.89.35-1.64.98-2.13,1.81-.45.88-.57,1.88-.34,2.84.22.85.65,1.63,1.26,2.26,1.94,2.12,5.07,3.17,7.85,3.15,1.02-.01,2.04-.16,3.02-.46l2.24-4.95Z"/>
  <path class="st3" d="M244.08,170.72c1.51,2.06,3.56,3.66,5.92,4.62,1.85.74,3.97.9,5.96.04.89-.35,1.64-.98,2.14-1.81.45-.88.57-1.88.34-2.84-.22-.85-.65-1.63-1.26-2.26-1.94-2.12-5.07-3.17-7.85-3.15-1.02.01-2.04.16-3.02.46l-2.24,4.95Z"/>
  <path class="st5" d="M236.5,152.44c-6.94-.39-12.04,4.71-12.39,10.99-.39,7.03,4.24,12.14,11.07,12.52,7.1.4,12.01-4.23,12.4-11.21.35-6.32-4.17-11.92-11.09-12.3Z"/>
  <path class="st6" d="M224.34,213.14c1.32.04,2.63-.27,3.79-.91.52-.28.99-.65,1.37-1.1.37-.42.71-.86,1.02-1.33.55-.89.83-1.92.81-2.96-.05-.57-.19-1.12-.42-1.64-.2-.54-.48-1.04-.82-1.5-1.63-1.95-3.95-3.19-6.48-3.46-2.27-.22-4.54.32-6.47,1.53-2.07,1.28-3.74,3.12-4.82,5.3-.17.32-.06.72.26.89.04.02.08.04.13.05,1.97.83,3.73,2.09,5.58,3.13,1.87,1.05,3.88,1.91,6.05,1.99.83.03.83-1.25,0-1.29-2.06-.08-3.96-.98-5.72-2-1.84-1.07-3.6-2.26-5.58-3.08l.38.94c1.64-3.3,4.9-6.06,8.71-6.25,2.2-.11,4.36.63,6.02,2.08.41.34.77.73,1.08,1.16.24.38.43.79.57,1.22.29.8.27,1.69-.05,2.48-.16.45-.39.86-.69,1.22-.33.46-.73.87-1.17,1.23-1.05.7-2.3,1.05-3.56,1-.83-.02-.83,1.26,0,1.28Z"/>
  <path class="st6" d="M245.61,197.68c.55-.32,1.14-.57,1.75-.76.66-.21,1.34-.37,2.03-.48.34-.1.54-.45.45-.79-.1-.34-.45-.53-.79-.45-1.43.2-2.82.66-4.08,1.36-.31.18-.41.57-.23.88.18.31.57.41.88.23h0Z"/>
  <path class="st6" d="M248.42,200.96c-1.07.15-2.17.01-3.17-.4-.88-.4-1.63-1.04-2.17-1.85-.3-.38-.52-.82-.66-1.28-.09-.41-.12-.84-.08-1.26.06-1.02.45-1.99,1.12-2.76,1.38-1.62,3.32-2.67,5.44-2.94,1.88-.2,3.77.18,5.43,1.09,1.84.99,3.38,2.44,4.47,4.22l.23-.88c-1.89,1.01-3.52,2.39-5.26,3.61-1.6,1.12-3.38,2.18-5.35,2.45-.35.01-.63.29-.64.64,0,.31.3.69.64.64,2.14-.29,4.05-1.27,5.81-2.49,1.81-1.26,3.5-2.7,5.45-3.75.3-.18.41-.57.23-.88-2.24-3.61-6.4-6.36-10.79-5.97-2.45.21-4.72,1.32-6.39,3.12-.86.89-1.43,2.02-1.63,3.25-.15,1.12-.08,2.22.47,3.22.62,1.17,1.57,2.14,2.73,2.79,1.27.64,2.7.89,4.12.71.35-.01.63-.29.64-.64,0-.35-.29-.64-.64-.64Z"/>
  <path class="st6" d="M238.24,175.67c.04.31.08.62.13.93.03.15.05.29.08.44.03.17.07.28.09.35.12.53.27,1.06.46,1.58.39,1.09.91,2.13,1.55,3.09,1.1,1.67,2.77,2.9,4.7,3.45,1.08.29,2.27.36,3.33-.07.99-.42,1.81-1.17,2.31-2.12,1.07-2.04.54-4.53-.45-6.49-1.16-2.26-3-4.1-5.27-5.26-.74-.38-1.39.73-.65,1.11,1.75.89,3.23,2.23,4.29,3.88.96,1.51,1.71,3.5,1.26,5.3-.2.84-.7,1.59-1.41,2.08-.79.49-1.75.64-2.65.42-1.64-.36-3.11-1.29-4.11-2.64-.64-.86-1.16-1.81-1.54-2.81-.21-.54-.36-1.09-.52-1.64-.03-.12.02-.14-.02-.05.01.11.01.1,0,0,0-.05-.01-.1-.03-.15-.03-.17-.07-.33-.11-.5-.06-.3-.11-.6-.14-.9-.01-.35-.29-.63-.64-.64-.35,0-.64.29-.64.64h0Z"/>
  <path class="st6" d="M233.44,152.77c-.12-1.1-.37-2.18-.75-3.23-.38-1.09-.91-2.13-1.55-3.09-1.11-1.69-2.8-2.92-4.75-3.47-1.09-.33-2.26-.29-3.33.11-1,.43-1.82,1.21-2.3,2.19-1.02,2.05-.48,4.5.52,6.45,1.17,2.25,3.02,4.08,5.29,5.23.74.37,1.39-.74.65-1.11-1.74-.87-3.21-2.18-4.27-3.81-.98-1.51-1.76-3.52-1.33-5.34.19-.85.68-1.6,1.38-2.11.78-.51,1.74-.67,2.64-.46,1.66.35,3.14,1.29,4.15,2.64.65.86,1.17,1.81,1.55,2.82.21.54.36,1.09.52,1.64.03.12-.02.14.02.05-.01-.11-.01-.1,0,0,0,.05.01.1.03.14.03.16.07.32.1.48.06.28.1.57.14.85.01.35.29.63.64.64.35,0,.64-.29.64-.64h0Z"/>
  <path class="st6" d="M231.1,174.95c-2.1,3.76-2.89,9.1.35,12.48.75.83,1.76,1.37,2.87,1.53,1.13.12,2.27-.17,3.2-.82,1.8-1.26,2.63-3.49,2.89-5.6.14-1.24.09-2.49-.15-3.72-.05-.27-.11-.54-.18-.81-.04-.16-.09-.32-.14-.48-.02-.08-.05-.16-.08-.23-.05-.11-.08-.12-.04,0-.12-.35-.22-.7-.37-1.04-.12-.28-.26-.56-.41-.83-.4-.73-1.51-.08-1.11.65.23.42.39.85.59,1.28,0,0-.04-.18.03.03,0,.03.02.1.03.13.04.14.09.27.13.41.08.26.15.52.21.78.2.89.3,1.8.28,2.71-.04,1.76-.5,3.75-1.74,5.07-.61.68-1.44,1.1-2.35,1.2-.89.07-1.77-.25-2.43-.86-1.35-1.21-2.06-3-2.13-4.78-.04-2.26.53-4.49,1.66-6.46.4-.72-.71-1.37-1.11-.65h0Z"/>
  <path class="st6" d="M240.63,153.49c2.07-3.77,2.84-9.08-.43-12.44-.75-.81-1.75-1.34-2.83-1.5-1.13-.12-2.27.17-3.2.82-1.79,1.25-2.62,3.46-2.88,5.54-.15,1.22-.1,2.46.12,3.67.05.27.11.54.17.8.04.16.08.32.13.48.02.08.05.16.07.24l.04.12c.03.14.05.16.04.06v-.06s.02.17.02.17c.03.1.07.19.11.29.06.16.13.32.2.48.13.29.26.57.41.85.39.73,1.5.08,1.11-.65-.44-.81-.77-1.68-.95-2.58-.2-.9-.3-1.82-.27-2.75.04-1.76.52-3.74,1.77-5.05.6-.65,1.42-1.07,2.31-1.16.89-.07,1.77.24,2.43.86,1.31,1.23,2.08,2.93,2.13,4.73.1,2.22-.55,4.5-1.61,6.43-.4.73.71,1.38,1.11.65h0Z"/>
  <path class="st6" d="M225.5,170.14c-3.94,1.85-7.65,5.75-6.92,10.41.14,1.1.68,2.12,1.52,2.85.86.7,1.94,1.09,3.06,1.09,2.19,0,4.24-1.38,5.65-2.96.78-.87,1.43-1.85,1.93-2.91.26-.54.47-1.09.65-1.66.22-.6.35-1.23.4-1.87,0-.83-1.29-.83-1.29,0,0-.15-.02.1-.02.15-.02.13-.05.26-.07.39-.06.27-.12.54-.2.81-.12.41-.26.81-.43,1.21-.36.85-.83,1.64-1.38,2.38-1.07,1.41-2.6,2.7-4.37,3.09-.89.2-1.82.07-2.61-.37-.77-.45-1.32-1.21-1.5-2.09-.45-1.84.13-3.8,1.19-5.33,1.23-1.78,3.1-3.17,5.05-4.08.3-.18.41-.57.23-.88-.18-.3-.57-.4-.88-.23h0Z"/>
  <path class="st6" d="M246.17,158.38c3.94-1.84,7.62-5.72,6.94-10.36-.13-1.09-.64-2.09-1.45-2.83-.86-.73-1.95-1.14-3.08-1.16-2.17-.04-4.23,1.33-5.64,2.88-.8.88-1.47,1.87-1.98,2.94-.25.52-.47,1.06-.64,1.61-.23.61-.37,1.24-.41,1.89,0,.83,1.29.83,1.29,0,0,.14.02-.12.03-.16.02-.13.05-.27.08-.4.06-.28.13-.56.21-.83.12-.4.26-.8.43-1.18.37-.84.84-1.64,1.41-2.37,1.08-1.39,2.6-2.65,4.36-3.02.89-.19,1.82-.05,2.6.41.76.47,1.3,1.23,1.46,2.11.42,1.83-.15,3.76-1.2,5.27-1.24,1.79-3.11,3.18-5.06,4.09-.3.18-.41.57-.23.88.18.3.57.4.88.23h0Z"/>
  <path class="st6" d="M224.27,162.92c-4.16-.89-9.37-.14-11.76,3.77-.65.99-.92,2.18-.77,3.36.18,1.05.72,2,1.52,2.7,1.7,1.49,4.17,1.67,6.31,1.31,2.44-.42,4.69-1.59,6.44-3.35.58-.59-.33-1.5-.91-.91-1.34,1.34-3.02,2.3-4.85,2.79-1.7.46-3.75.58-5.35-.26-.79-.4-1.41-1.08-1.74-1.9-.31-.88-.23-1.84.22-2.66.8-1.51,2.14-2.67,3.75-3.24,2.19-.75,4.54-.87,6.79-.37.81.17,1.15-1.07.34-1.24h0Z"/>
  <path class="st6" d="M246.57,158.73c1.35-1.34,3.02-2.31,4.86-2.8,1.7-.46,3.75-.58,5.35.27.79.4,1.41,1.08,1.74,1.9.31.88.23,1.84-.22,2.66-.8,1.51-2.14,2.67-3.75,3.24-2.19.75-4.55.87-6.81.37-.81-.17-1.15,1.07-.34,1.24,4.16.89,9.38.15,11.78-3.77.65-.99.92-2.18.77-3.35-.18-1.05-.72-2-1.52-2.7-1.7-1.49-4.17-1.67-6.32-1.31-2.45.43-4.7,1.6-6.45,3.36-.58.59.33,1.5.91.91h0Z"/>
  <path class="st6" d="M227.13,156.21c-1.61-1.78-3.66-3.12-5.94-3.88-2.14-.68-4.66-.56-6.59.67-.93.57-1.62,1.45-1.94,2.49-.31,1.08-.23,2.24.22,3.27.8,1.86,2.6,3.23,4.41,4.03,2.2.97,4.64,1.27,7.01.87.34-.1.54-.45.45-.79-.1-.34-.45-.54-.79-.45-1.78.29-3.6.13-5.3-.47-1.59-.54-3.21-1.51-4.17-2.93-1.01-1.48-1.02-3.56.48-4.72,1.49-1.15,3.61-1.32,5.38-.87,2.26.57,4.31,2,5.87,3.69.56.61,1.47-.3.91-.91h0Z"/>
  <path class="st6" d="M244.58,172.34c1.61,1.77,3.64,3.09,5.91,3.85,2.14.68,4.66.56,6.59-.66.95-.58,1.64-1.48,1.96-2.54.29-1.08.2-2.22-.25-3.25-.81-1.89-2.65-3.26-4.5-4.04-2.18-.94-4.6-1.23-6.94-.82-.34.1-.54.45-.45.79.1.34.45.54.79.45,1.77-.29,3.58-.14,5.28.44,1.58.53,3.18,1.47,4.16,2.86,1.05,1.48,1.13,3.57-.38,4.78-1.48,1.18-3.64,1.35-5.42.9-2.25-.56-4.28-1.98-5.84-3.66-.56-.61-1.47.3-.91.91h0Z"/>
  <path class="st6" d="M236.5,151.8c-2.7-.17-5.39.54-7.65,2.03-2.11,1.43-3.73,3.49-4.62,5.88-1.76,4.71-.62,10.58,3.25,13.92,3.86,3.32,9.91,3.95,14.43,1.64,4.52-2.3,6.79-7.57,6.27-12.48-.25-2.54-1.29-4.94-2.96-6.87-1.74-1.96-4.07-3.31-6.64-3.84-.69-.14-1.38-.23-2.08-.27-.83-.05-.82,1.24,0,1.29,2.42.12,4.73,1.01,6.6,2.54,1.75,1.48,2.98,3.48,3.53,5.7,1.07,4.29-.4,9.46-4.07,12.05-3.71,2.62-9.17,2.61-12.99.2-3.91-2.46-5.53-7.38-4.59-11.82.47-2.25,1.63-4.3,3.31-5.87,1.74-1.58,3.94-2.55,6.28-2.77.64-.06,1.29-.07,1.93-.03.83.04.83-1.24,0-1.29Z"/>
  <path class="st6" d="M240.57,158.78c-1.04-1.18-2.58-1.63-4.1-1.77-1.39-.12-2.77.17-4,.82-2.45,1.3-3.85,3.95-3.79,6.68.03,2.61,1.55,4.97,3.91,6.08,2.35,1.08,5.37,1.09,7.53-.47,1.17-.86,2.04-2.05,2.5-3.43.59-1.69.67-3.63-.13-5.26-.18-.3-.57-.41-.88-.23-.3.18-.4.57-.23.88.59,1.21.48,2.67.1,3.93-.29,1.02-.85,1.94-1.62,2.67-1.6,1.48-4,1.69-6.04,1.03-2.03-.64-3.51-2.39-3.81-4.49-.31-2.17.53-4.47,2.32-5.8,1.03-.76,2.27-1.17,3.55-1.16,1.37,0,2.83.36,3.76,1.42.55.62,1.46-.29.91-.91Z"/>
</svg>